<svg xmlns="http://www.w3.org/2000/svg" width="3000" height="1816" viewBox="0 0 3000 1816"><path fill="#fff" stroke="#5e54af" stroke-miterlimit="10" stroke-width="30" d="M48.6 134.95h1007.62v1244.42H48.6z"/><path d="M210.13 543.73c0-2.15-1.67-4.41-8.4-4.47v-4.17c6.73-.06 8.4-2.33 8.4-4.47 0-3.75-.6-6.73-.6-10.84 0-6.32 3.51-8.22 11.08-8.22h4.11v3.75H222c-5.54 0-6.73 1.19-6.73 4.77 0 3.27.3 6.61.3 10.24 0 4.17-1.49 6-5.66 6.73v.24c4.17.72 5.66 2.56 5.66 6.73 0 3.82-.3 6.79-.3 10.25S216.44 559 222 559h2.74v3.75h-4.11c-7.57 0-11.08-1.91-11.08-8.22-.02-4.25.58-6.87.58-10.8zm21.98 4.7l11-10.78 2.5 2.32-9.83 12zm.12-23.53c0-6.19 3.63-9.77 8.57-9.77s8.58 3.58 8.58 9.77-3.63 10-8.58 10-8.57-3.8-8.57-10zm12.27 0c0-4.41-1.67-6-3.7-6s-3.69 1.55-3.69 6 1.67 6.2 3.69 6.2 3.7-1.85 3.7-6.2zm3.33 19.54c0-6.19 3.64-9.77 8.58-9.77s8.58 3.58 8.58 9.77-3.64 10-8.58 10-8.58-3.8-8.58-10zm17.34-24.36l-11 10.78-2.5-2.32 9.82-12zm-5.07 24.36c0-4.41-1.66-6-3.69-6s-3.69 1.55-3.69 6 1.67 6.2 3.69 6.2 3.69-1.85 3.69-6.2zm53.9 11.68v9.17h-6.9v-40.81h5.66l.54 3.34h.18a14.51 14.51 0 0 1 9.35-4.05c7.62 0 12 5.84 12 14.89 0 10-6.25 15.79-13 15.79a12.3 12.3 0 0 1-8.05-3.46zm6.38-7.33c4.17 0 7.32-3.46 7.32-10.07 0-5.84-2-9.29-6.79-9.29-2.2 0-4.52 1.07-6.91 3.51v13.17a9.76 9.76 0 0 0 6.39 2.68zm42-13.79c-.24-3.28-2.2-5.72-7-5.72-3.27 0-6.55 1.43-9.59 3.1l-2.5-4.59a27.14 27.14 0 0 1 13.34-4.05c8.11 0 12.57 4.47 12.57 12.63v17.33h-5.6l-.53-3.63h-.18c-3.1 2.38-7 4.35-11 4.35-5.72 0-9.77-3.46-9.77-8.58.07-6.52 5.88-9.84 20.26-10.84zM354 549.09c2.92 0 5.66-1.43 8.34-3.58v-6.19c-10.48.71-13.58 2.86-13.58 6 .04 2.68 2.36 3.77 5.24 3.77zm31-19.18h-7.81v-5.13l8.11-.3.89-8h5.66v8h13.28v5.43h-13.26v12c0 4.82 1.79 7 6.73 7a18.09 18.09 0 0 0 6.49-1.19l1.25 5a29.25 29.25 0 0 1-9.41 1.67c-8.87 0-11.91-5-11.91-12.51zm35.76 0H413v-5.13l8.1-.3.89-8h5.66v8h13.28v5.43h-13.32v12c0 4.82 1.79 7 6.73 7a18.09 18.09 0 0 0 6.49-1.19l1.26 5a29.36 29.36 0 0 1-9.42 1.67c-8.87 0-11.91-5-11.91-12.51zm43.13-6.14c8.69 0 13.58 5.78 13.58 13.88a19.69 19.69 0 0 1-.3 3.22H455.9c.66 5.3 4.53 8.28 9.83 8.28a16.24 16.24 0 0 0 8.22-2.39l2.33 4.29a21.87 21.87 0 0 1-11.44 3.4c-8.88 0-16-5.66-16-15.31a14.91 14.91 0 0 1 15.05-15.37zm7.26 12.75c0-4.65-2.44-7.45-7.08-7.45-3.94 0-7.51 2.56-8.22 7.45zm17.52-12.04h5.66l.59 6.62h.18c3-4.71 7.39-7.33 12.45-7.33a11.92 11.92 0 0 1 5.66 1.19l-1.43 5.78a15.16 15.16 0 0 0-5.3-.89c-4 0-7.92 2.08-10.9 7.74v16.14h-6.91zm32.88 0h5.66l.53 4.41h.26c2.74-2.8 6.08-5.12 10.55-5.12 6.73 0 9.83 4.29 9.83 11.85v18.11h-6.91v-17.21c0-4.71-1.49-6.85-5.49-6.85-2.85 0-4.82 1.37-7.5 4.11v20h-6.91zm71.45-12.8h6.91v10.84l-.42 6.25c2.68-2.68 6-5 10.49-5 6.73 0 9.83 4.29 9.83 11.85v18.11h-6.91v-17.21c0-4.71-1.49-6.85-5.48-6.85-2.86 0-4.83 1.37-7.51 4.11v20H593zm49.59 12.09c8.7 0 13.58 5.78 13.58 13.88a19.88 19.88 0 0 1-.29 3.22h-21.27c.66 5.3 4.53 8.28 9.83 8.28a16.24 16.24 0 0 0 8.22-2.39l2.32 4.29a21.84 21.84 0 0 1-11.43 3.4c-8.88 0-16-5.66-16-15.31a14.91 14.91 0 0 1 15.04-15.37zm7.27 12.75c0-4.65-2.44-7.45-7.09-7.45-3.93 0-7.5 2.56-8.22 7.45zm34.19-1.52c-.24-3.28-2.2-5.72-7-5.72-3.27 0-6.55 1.43-9.59 3.1l-2.5-4.59a27.14 27.14 0 0 1 13.34-4.05c8.1 0 12.57 4.47 12.57 12.63v17.33h-5.6l-.53-3.63h-.18c-3.1 2.38-7 4.35-11 4.35-5.72 0-9.77-3.46-9.77-8.58.07-6.52 5.85-9.84 20.26-10.84zm-8.34 14.06c2.92 0 5.66-1.43 8.34-3.58v-6.19c-10.48.71-13.58 2.86-13.58 6 0 2.71 2.32 3.8 5.24 3.8zm35.74-25.29c3.46 0 5.78 1.31 8.16 3.45l-.29-4.94v-10.6h6.91v42.05h-5.66l-.54-3.39h-.18c-2.26 2.26-5.54 4.11-8.81 4.11-7.51 0-12.51-5.66-12.51-15.31s6.25-15.37 12.92-15.37zm1.25 25c2.45 0 4.59-1.13 6.62-3.52v-13.14a8.72 8.72 0 0 0-6.26-2.68c-4 0-7.44 3.51-7.44 9.65 0 6.31 2.62 9.71 7.08 9.71zm37.12-25c8.69 0 13.58 5.78 13.58 13.88a19.69 19.69 0 0 1-.3 3.22h-21.27c.66 5.3 4.53 8.28 9.83 8.28a16.24 16.24 0 0 0 8.22-2.39l2.33 4.29a21.87 21.87 0 0 1-11.44 3.4c-8.88 0-16-5.66-16-15.31a14.92 14.92 0 0 1 15.05-15.37zm7.26 12.75c0-4.65-2.44-7.45-7.09-7.45-3.93 0-7.5 2.56-8.22 7.45zm17.52-12.04h5.65l.6 6.62h.15c3-4.71 7.39-7.33 12.45-7.33a11.92 11.92 0 0 1 5.66 1.19l-1.43 5.78a15.16 15.16 0 0 0-5.3-.89c-4 0-7.93 2.08-10.9 7.74v16.14h-6.88zm65.1 23.95l11-10.78 2.51 2.32-9.83 12zm.12-23.53c0-6.19 3.64-9.77 8.58-9.77s8.58 3.58 8.58 9.77-3.64 10-8.58 10-8.58-3.8-8.58-10zm12.27 0c0-4.41-1.66-6-3.69-6s-3.69 1.55-3.69 6 1.67 6.2 3.69 6.2 3.69-1.85 3.69-6.2zm3.34 19.54c0-6.19 3.63-9.77 8.58-9.77s8.58 3.58 8.58 9.77-3.64 10-8.58 10-8.58-3.8-8.58-10zm17.33-24.36l-11 10.78-2.5-2.32 9.83-12zm-5.06 24.36c0-4.41-1.67-6-3.69-6s-3.7 1.55-3.7 6 1.67 6.2 3.7 6.2 3.69-1.85 3.69-6.2zM882.89 559c5.48 0 6.73-1.2 6.73-4.77s-.3-6.43-.3-10.25c0-4.17 1.43-6 5.66-6.73v-.24c-4.23-.71-5.66-2.56-5.66-6.73 0-3.63.3-7 .3-10.24 0-3.58-1.25-4.77-6.73-4.77h-2.74v-3.75h4.11c7.57 0 11 1.9 11 8.22 0 4.11-.59 7.09-.59 10.84 0 2.14 1.66 4.41 8.39 4.47v4.17c-6.73.06-8.39 2.32-8.39 4.47 0 3.93.59 6.55.59 10.84 0 6.31-3.45 8.22-11 8.22h-4.11V559zM371 756.36c0-2.14-1.67-4.4-8.4-4.46v-4.17c6.73-.06 8.4-2.33 8.4-4.47 0-3.75-.6-6.73-.6-10.84 0-6.32 3.52-8.22 11.08-8.22h4.11v3.8h-2.74c-5.54 0-6.73 1.19-6.73 4.76 0 3.28.3 6.62.3 10.25 0 4.17-1.49 6-5.66 6.73v.24c4.17.72 5.66 2.56 5.66 6.73 0 3.81-.3 6.79-.3 10.25s1.19 4.76 6.73 4.76h2.74v3.76h-4.11c-7.56 0-11.08-1.91-11.08-8.22-.04-4.34.6-6.96.6-10.9zm35.7 0c0-2.14-1.67-4.4-8.4-4.46v-4.17c6.73-.06 8.4-2.33 8.4-4.47 0-3.75-.6-6.73-.6-10.84 0-6.32 3.52-8.22 11.09-8.22h4.11v3.8h-2.74c-5.54 0-6.74 1.19-6.74 4.76 0 3.28.3 6.62.3 10.25 0 4.17-1.49 6-5.66 6.73v.24c4.17.72 5.66 2.56 5.66 6.73 0 3.81-.3 6.79-.3 10.25s1.2 4.76 6.74 4.76h2.74v3.76h-4.11c-7.57 0-11.09-1.91-11.09-8.22 0-4.34.6-6.96.6-10.9zm41.58-19.95a15.52 15.52 0 0 1 10.84 4.11l-3.28 4.29a11.06 11.06 0 0 0-7.2-2.8c-5.84 0-9.89 3.87-9.89 9.77s3.93 9.71 9.71 9.71a13.71 13.71 0 0 0 8.34-3.22l2.86 4.41a18.2 18.2 0 0 1-11.86 4.41c-9.17 0-16.14-5.6-16.14-15.31s7.68-15.37 16.62-15.37zm32.64 0c7.69 0 14.72 5.6 14.72 15.37s-7 15.31-14.72 15.31-14.71-5.6-14.71-15.31 7.03-15.37 14.71-15.37zm0 25.08c4.77 0 7.63-3.87 7.63-9.71s-2.86-9.77-7.63-9.77-7.62 3.87-7.62 9.77 2.86 9.71 7.62 9.71zm22.76-24.37h5.66l.53 4.41h.24c2.74-2.8 6.08-5.12 10.55-5.12 6.73 0 9.82 4.29 9.82 11.85v18.11h-6.91v-17.21c0-4.71-1.49-6.85-5.48-6.85-2.86 0-4.82 1.37-7.5 4.11v20h-6.91zm42.17 5.42h-7.8v-5.12l8.1-.3.89-8h5.66v8H566v5.42h-13.3v12c0 4.82 1.79 7 6.73 7a18.15 18.15 0 0 0 6.5-1.19l1.25 5a29.3 29.3 0 0 1-9.41 1.67c-8.88 0-11.92-5-11.92-12.51zm43.15-6.13c8.7 0 13.58 5.78 13.58 13.88a19.43 19.43 0 0 1-.3 3.21H581c.65 5.31 4.52 8.29 9.83 8.29a16.27 16.27 0 0 0 8.22-2.39l2.32 4.29a21.87 21.87 0 0 1-11.44 3.4c-8.87 0-16-5.66-16-15.31A14.91 14.91 0 0 1 589 736.41zm7.27 12.75c0-4.65-2.44-7.45-7.09-7.45-3.93 0-7.51 2.56-8.22 7.45zm14.63-12.04h5.66l.54 4.41h.23c2.74-2.8 6.08-5.12 10.55-5.12 6.73 0 9.83 4.29 9.83 11.85v18.11h-6.91v-17.21c0-4.71-1.49-6.85-5.48-6.85-2.86 0-4.83 1.37-7.51 4.11v20h-6.91zm42.18 5.42h-7.81v-5.12l8.1-.3.9-8h5.66v8h13.28v5.42h-13.28v12c0 4.82 1.78 7 6.73 7a18.14 18.14 0 0 0 6.49-1.19l1.25 5a29.3 29.3 0 0 1-9.41 1.67c-8.88 0-11.91-5-11.91-12.51zm33.23 29.13c5.48 0 6.74-1.19 6.74-4.76s-.3-6.44-.3-10.25c0-4.17 1.43-6 5.66-6.73v-.24c-4.23-.71-5.66-2.56-5.66-6.73 0-3.63.3-7 .3-10.25 0-3.57-1.26-4.76-6.74-4.76h-2.74v-3.75h4.11c7.57 0 11 1.9 11 8.22 0 4.11-.6 7.09-.6 10.84 0 2.14 1.67 4.41 8.4 4.47v4.17c-6.73.06-8.4 2.32-8.4 4.46 0 3.94.6 6.56.6 10.85 0 6.31-3.46 8.22-11 8.22h-4.11v-3.76zm35.75 0c5.48 0 6.73-1.19 6.73-4.76s-.3-6.44-.3-10.25c0-4.17 1.43-6 5.66-6.73v-.24c-4.23-.71-5.66-2.56-5.66-6.73 0-3.63.3-7 .3-10.25 0-3.57-1.25-4.76-6.73-4.76h-2.74v-3.75h4.11c7.56 0 11 1.9 11 8.22 0 4.11-.6 7.09-.6 10.84 0 2.14 1.67 4.41 8.4 4.47v4.17c-6.73.06-8.4 2.32-8.4 4.46 0 3.94.6 6.56.6 10.85 0 6.31-3.46 8.22-11 8.22h-4.11v-3.76zM228 973.84c0-2.15-1.67-4.41-8.4-4.47v-4.17c6.73-.06 8.4-2.32 8.4-4.47 0-3.75-.6-6.73-.6-10.84 0-6.32 3.51-8.22 11.08-8.22h4.11v3.75h-2.74c-5.54 0-6.73 1.19-6.73 4.77 0 3.27.3 6.61.3 10.24 0 4.17-1.49 6-5.66 6.73v.24c4.17.72 5.66 2.56 5.66 6.73 0 3.82-.3 6.79-.3 10.25s1.19 4.77 6.73 4.77h2.74v3.75h-4.11c-7.57 0-11.08-1.91-11.08-8.22 0-4.29.6-6.91.6-10.84zm22 4.7l11-10.78 2.5 2.32-9.83 12zm.11-23.53c0-6.19 3.64-9.77 8.58-9.77s8.58 3.58 8.58 9.77-3.63 10-8.58 10-8.6-3.8-8.6-10.01zm12.28 0c0-4.41-1.67-6-3.7-6S255 950.6 255 955s1.67 6.2 3.69 6.2 3.68-1.84 3.68-6.2zm3.33 19.54c0-6.19 3.64-9.77 8.58-9.77s8.58 3.58 8.58 9.77-3.64 10-8.58 10-8.6-3.8-8.6-10zM283 950.19L272 961l-2.51-2.32 9.83-12zm-5 24.36c0-4.41-1.66-6-3.69-6s-3.69 1.55-3.69 6 1.66 6.2 3.69 6.2 3.69-1.85 3.69-6.2zm53.88 11.68v9.17H325v-40.81h5.66l.54 3.34h.18a14.51 14.51 0 0 1 9.35-4c7.62 0 12 5.84 12 14.89 0 10-6.25 15.79-13 15.79a12.3 12.3 0 0 1-8.05-3.46zm6.38-7.33c4.17 0 7.32-3.46 7.32-10.07 0-5.84-2-9.29-6.79-9.29-2.2 0-4.52 1.07-6.91 3.51v13.17a9.76 9.76 0 0 0 6.38 2.68zm41.99-13.76c-.24-3.28-2.2-5.72-7-5.72-3.27 0-6.55 1.43-9.59 3.1l-2.5-4.59a27.14 27.14 0 0 1 13.34-4c8.11 0 12.57 4.47 12.57 12.63v17.33h-5.6l-.53-3.63h-.18c-3.1 2.38-7 4.35-11 4.35-5.72 0-9.77-3.46-9.77-8.58.07-6.6 5.85-9.88 20.26-10.89zm-8.34 14.06c2.92 0 5.66-1.43 8.34-3.58v-6.19c-10.48.71-13.58 2.86-13.58 6 0 2.64 2.33 3.77 5.24 3.77zm30.98-19.2h-7.81v-5.13l8.11-.3.89-8h5.66v8H423V960h-13.26v12c0 4.82 1.79 7 6.73 7a18.09 18.09 0 0 0 6.49-1.19l1.25 5a29.25 29.25 0 0 1-9.41 1.67c-8.87 0-11.91-5-11.91-12.51zm35.74 0h-7.8v-5.13l8.1-.3.89-8h5.66v8h13.28V960h-13.28v12c0 4.82 1.79 7 6.73 7a18.09 18.09 0 0 0 6.49-1.19l1.26 5a29.36 29.36 0 0 1-9.42 1.67c-8.87 0-11.91-5-11.91-12.51zm43.13-6.12c8.69 0 13.58 5.78 13.58 13.88A19.69 19.69 0 0 1 495 971h-21.23c.66 5.3 4.53 8.28 9.83 8.28a16.24 16.24 0 0 0 8.22-2.39l2.33 4.29a21.87 21.87 0 0 1-11.44 3.4c-8.88 0-16-5.66-16-15.31a14.91 14.91 0 0 1 15.05-15.39zm7.24 12.75c0-4.65-2.44-7.45-7.08-7.45-3.94 0-7.51 2.56-8.23 7.45zm17.54-12.04h5.66l.59 6.62h.21c3-4.71 7.39-7.33 12.45-7.33a11.92 11.92 0 0 1 5.66 1.19l-1.43 5.78a15.16 15.16 0 0 0-5.3-.89c-4 0-7.92 2.08-10.9 7.74v16.14h-6.91zm32.88 0h5.66l.53 4.41h.24c2.74-2.8 6.08-5.12 10.55-5.12 6.73 0 9.83 4.29 9.83 11.85v18.11h-6.92v-17.21c0-4.71-1.48-6.85-5.48-6.85-2.85 0-4.82 1.37-7.5 4.11v20h-6.91zm99.84-6.85a16.83 16.83 0 0 0-6.44-1.25c-4.47 0-6.43 2.27-6.43 6.38v1.72h11.14V960h-11.14v23.82h-6.79V960h-8.1v-5.13l8.1-.3V953c0-6.91 3.81-11.92 12.39-11.92a24.13 24.13 0 0 1 8.7 1.61zm20.37 6.14c7.68 0 14.71 5.6 14.71 15.37s-7 15.31-14.71 15.31-14.72-5.6-14.72-15.31 7.03-15.37 14.72-15.37zm0 25.08c4.76 0 7.62-3.87 7.62-9.71s-2.86-9.77-7.62-9.77-7.63 3.87-7.63 9.77 2.86 9.75 7.63 9.75zm35.74-25.08c7.68 0 14.71 5.6 14.71 15.37s-7 15.31-14.71 15.31-14.72-5.6-14.72-15.31 7.03-15.37 14.72-15.37zm0 25.08c4.76 0 7.62-3.87 7.62-9.71s-2.86-9.77-7.62-9.77-7.63 3.87-7.63 9.77 2.86 9.75 7.63 9.75zM724.56 960h-7.81v-5.13l8.1-.3.9-8h5.66v8h13.28V960h-13.28v12c0 4.82 1.78 7 6.73 7a18.09 18.09 0 0 0 6.49-1.19l1.25 5a29.25 29.25 0 0 1-9.41 1.67c-8.87 0-11.91-5-11.91-12.51zm43.13-6.12c8.69 0 13.58 5.78 13.58 13.88A19.69 19.69 0 0 1 781 971h-21.3c.66 5.3 4.53 8.28 9.83 8.28a16.24 16.24 0 0 0 8.22-2.39l2.33 4.29a21.87 21.87 0 0 1-11.44 3.4c-8.88 0-16-5.66-16-15.31a14.92 14.92 0 0 1 15.05-15.39zm7.31 12.75c0-4.65-2.44-7.45-7.09-7.45-3.93 0-7.5 2.56-8.22 7.45zm17.46-12.04h5.66l.6 6.62h.18c3-4.71 7.39-7.33 12.45-7.33a11.92 11.92 0 0 1 5.66 1.19l-1.43 5.78a15.16 15.16 0 0 0-5.3-.89c-4 0-7.93 2.08-10.9 7.74v16.14h-6.92zm29.37 23.95l11-10.78 2.5 2.32-9.82 12zM822 955c0-6.19 3.63-9.77 8.58-9.77s8.58 3.58 8.58 9.77-3.64 10-8.58 10-8.58-3.79-8.58-10zm12.27 0c0-4.41-1.67-6-3.69-6s-3.69 1.55-3.69 6 1.66 6.2 3.69 6.2 3.64-1.84 3.64-6.2zm3.34 19.54c0-6.19 3.63-9.77 8.58-9.77s8.57 3.58 8.57 9.77-3.63 10-8.57 10-8.63-3.79-8.63-9.99zm17.33-24.36l-11 10.78-2.5-2.32 9.83-12zm-5.06 24.36c0-4.41-1.67-6-3.69-6s-3.7 1.55-3.7 6 1.67 6.2 3.7 6.2 3.64-1.84 3.64-6.19zM865 989.15c5.48 0 6.73-1.2 6.73-4.77s-.3-6.43-.3-10.25c0-4.17 1.43-6 5.66-6.73v-.24c-4.23-.71-5.66-2.56-5.66-6.73 0-3.63.3-7 .3-10.24 0-3.58-1.25-4.77-6.73-4.77h-2.74v-3.75h4.11c7.57 0 11 1.9 11 8.22 0 4.11-.6 7.09-.6 10.84 0 2.15 1.67 4.41 8.4 4.47v4.17c-6.73.06-8.4 2.32-8.4 4.47 0 3.93.6 6.55.6 10.84 0 6.31-3.45 8.22-11 8.22h-4.11v-3.75zM209.29 93.49v5.36H180.7v-5.36zm7.8-45.75h16.09v31.75c0 3.93 2.26 5.42 5.24 5.42a13.54 13.54 0 0 0 5-1.13l1.58 5.06a22.82 22.82 0 0 1-8.28 1.67c-6.85 0-10.42-4.17-10.42-11.38v-26h-9.24zM273 71.09c-.24-3.28-2.2-5.72-7-5.72-3.28 0-6.55 1.43-9.59 3.1L254 63.88a27.14 27.14 0 0 1 13.34-4.05c8.1 0 12.57 4.47 12.57 12.63v17.33h-5.6l-.54-3.63h-.17c-3.1 2.38-7 4.35-11 4.35-5.71 0-9.77-3.46-9.77-8.58 0-6.55 5.78-9.83 20.17-10.84zm-8.34 14.06c2.92 0 5.66-1.43 8.34-3.58v-6.19c-10.49.71-13.58 2.86-13.58 6 .03 2.62 2.35 3.77 5.27 3.77zm27.43 11.14c3.69 0 5.84-2.09 7-5l.71-1.84-13.1-28.89h6.85l6 14.35c1.07 2.62 2.14 5.66 3.21 8.58h.24c.9-2.8 2-5.84 2.92-8.58l5.3-14.35h6.5L305.55 91.1c-2.5 6.62-6 10.73-13 10.73a14.24 14.24 0 0 1-4.17-.6l1.31-5.36a8.33 8.33 0 0 0 2.4.42zM338 59.83c7.68 0 14.71 5.6 14.71 15.37s-7 15.31-14.71 15.31-14.71-5.6-14.71-15.31 6.98-15.37 14.71-15.37zm0 25.08c4.76 0 7.62-3.87 7.62-9.71s-2.86-9.77-7.62-9.77-7.63 3.87-7.63 9.77 2.82 9.71 7.63 9.71zm48.51 4.88h-5.6l-.54-4.64h-.24c-2.74 3.21-6 5.36-10.36 5.36-6.79 0-9.77-4.29-9.77-11.86v-18.1h6.85v17.21c0 4.71 1.43 6.85 5.48 6.85 2.74 0 4.71-1.13 7.33-4.35V60.55h6.85zM402.89 66h-7.81v-5.16l8.11-.29.89-8h5.66v8H423V66h-13.26v12c0 4.82 1.79 7 6.73 7a18.09 18.09 0 0 0 6.53-1.16l1.25 5a29.25 29.25 0 0 1-9.41 1.67c-8.87 0-11.91-5-11.91-12.51zm31.33 15.63a19 19 0 0 0 11.32 3.7c4.59 0 6.67-1.49 6.67-3.52s-2.74-3.27-8.64-4.82c-5.6-1.49-10.78-4-10.78-8.4 0-5.13 4.65-8.76 12.93-8.76a22.87 22.87 0 0 1 12.15 3.87l-3.16 4.23a16.12 16.12 0 0 0-8.93-2.93c-4.53 0-6.14 1.37-6.14 3.22 0 2.08 3.52 3.22 8.22 4.41 6.79 1.79 11.2 4 11.2 8.81 0 5-4.82 9.06-13.7 9.06A26.22 26.22 0 0 1 431 86zm39.85 17.7h-5.9l19.6-51.83h5.9zm40.81-39.5c3.45 0 5.78 1.31 8.16 3.46l-.3-4.95v-10.6h6.91v42.05H524l-.53-3.39h-.18c-2.27 2.26-5.54 4.11-8.82 4.11C507 90.51 502 84.85 502 75.2s6.21-15.37 12.88-15.37zm1.25 25c2.44 0 4.58-1.13 6.61-3.51V68.17a8.7 8.7 0 0 0-6.25-2.68c-4.06 0-7.45 3.51-7.45 9.65-.04 6.31 2.62 9.71 7.09 9.71zm37.11-25c8.7 0 13.58 5.78 13.58 13.88a19.69 19.69 0 0 1-.3 3.22h-21.26c.65 5.3 4.52 8.28 9.83 8.28a16.27 16.27 0 0 0 8.22-2.39l2.32 4.29a21.87 21.87 0 0 1-11.44 3.4c-8.87 0-16-5.66-16-15.31a14.91 14.91 0 0 1 15.05-15.37zm7.27 12.75c0-4.65-2.45-7.45-7.09-7.45-3.93 0-7.51 2.56-8.22 7.45zm43.01-18.89a16.87 16.87 0 0 0-6.44-1.25c-4.47 0-6.43 2.27-6.43 6.38v1.73h11.14V66h-11.14v23.79h-6.79V66h-8.1v-5.16l8.1-.29v-1.61c0-6.94 3.81-11.94 12.39-11.94a24.08 24.08 0 0 1 8.69 1.61zm26.92 17.4c-.24-3.28-2.2-5.72-7-5.72-3.28 0-6.55 1.43-9.59 3.1l-2.5-4.59a27.14 27.14 0 0 1 13.34-4.05c8.1 0 12.57 4.47 12.57 12.63v17.33h-5.6l-.54-3.63H631c-3.1 2.38-7 4.35-11 4.35-5.72 0-9.77-3.46-9.77-8.58.02-6.55 5.77-9.83 20.21-10.84zm-8.34 14.06c2.92 0 5.66-1.43 8.34-3.58v-6.19c-10.48.71-13.58 2.86-13.58 6 0 2.62 2.32 3.77 5.24 3.77zm50.34 4.64h-5.6l-.54-4.64h-.24c-2.74 3.21-6 5.36-10.36 5.36-6.79 0-9.77-4.29-9.77-11.86v-18.1h6.85v17.21c0 4.71 1.43 6.85 5.48 6.85 2.74 0 4.7-1.13 7.32-4.35V60.55h6.86zm9.29-42.05h16.08v31.75c0 3.93 2.27 5.42 5.24 5.42a13.63 13.63 0 0 0 5-1.13l1.61 5.06a22.87 22.87 0 0 1-8.28 1.67c-6.85 0-10.43-4.17-10.43-11.38v-26h-9.23zM724.56 66h-7.81v-5.16l8.11-.29.89-8h5.66v8h13.28V66h-13.28v12c0 4.82 1.79 7 6.73 7a18.09 18.09 0 0 0 6.49-1.19l1.25 5a29.25 29.25 0 0 1-9.41 1.67c-8.87 0-11.91-5-11.91-12.51zm42.29 12.48a6 6 0 1 1-5.9 6 5.79 5.79 0 0 1 5.9-6zm22.76-30.74h6.91v10.84l-.42 6.25c2.68-2.68 6-5 10.48-5 6.73 0 9.83 4.29 9.83 11.86v18.1h-6.91V72.58c0-4.71-1.49-6.85-5.48-6.85-2.86 0-4.82 1.37-7.5 4.11v20h-6.91zM831.78 66H824v-5.16l8.1-.29.89-8h5.66v8h13.29V66h-13.31v12c0 4.82 1.79 7 6.73 7a18.19 18.19 0 0 0 6.5-1.19l1.25 5a29.36 29.36 0 0 1-9.42 1.67c-8.87 0-11.91-5-11.91-12.51zm27.28-5.45h5.19l.53 3.75h.22c1.31-2.56 3.1-4.47 6.43-4.47 2.8 0 4.65 1.67 5.36 4.89 1.37-2.8 3.4-4.89 6.62-4.89 4.11 0 6.49 3.4 6.49 9.23v20.73h-6.49V69.6c0-2.62-.78-3.87-2.45-3.87s-2.68 1.19-3.81 3.63v20.43h-5.36V69.6c0-2.62-.83-3.87-2.5-3.87s-2.56 1.19-3.69 3.63v20.43h-6.5zm37.11-12.81h16.09v31.75c0 3.93 2.26 5.42 5.24 5.42a13.54 13.54 0 0 0 5-1.13l1.61 5.06a22.82 22.82 0 0 1-8.28 1.67c-6.85 0-10.42-4.17-10.42-11.38v-26h-9.24z"/><path fill="none" stroke="#00deaf" stroke-miterlimit="10" stroke-width="30" d="M325.87 661.71h453.07v173.98H325.87zm684-335.87L779.11 661.71m230.76 908.55L779.11 835.69"/><path fill="#fff" stroke="#5e54af" stroke-miterlimit="10" stroke-width="30" d="M1009.89 325.84h1007.62v1244.42H1009.89z"/><path d="M1170.59 282v5.36H1142V282zm7.8-45.79h16.09V268c0 3.94 2.26 5.42 5.24 5.42a13.34 13.34 0 0 0 5-1.13l1.61 5.07a22.86 22.86 0 0 1-8.28 1.66c-6.85 0-10.43-4.17-10.43-11.37v-26h-9.23zm55.94 23.35c-.24-3.27-2.21-5.71-7-5.71-3.28 0-6.56 1.43-9.59 3.09l-2.51-4.58a27.08 27.08 0 0 1 13.35-4.05c8.1 0 12.57 4.46 12.57 12.62v17.34h-5.6l-.54-3.63h-.18c-3.1 2.38-7 4.34-11 4.34-5.72 0-9.77-3.45-9.77-8.57.07-6.56 5.85-9.83 20.27-10.85zm-8.33 14.06c2.92 0 5.66-1.43 8.34-3.57v-6.2c-10.49.72-13.59 2.86-13.59 6-.01 2.64 2.32 3.77 5.25 3.77zm27.39 11.14c3.69 0 5.84-2.08 7-5l.71-1.85L1248 249h6.85l6 14.36c1.15 2.64 2.15 5.64 3.26 8.64h.24c.89-2.8 2-5.84 2.92-8.58l5.3-14.36h6.49l-12.21 30.56c-2.5 6.61-6 10.72-13 10.72a14.71 14.71 0 0 1-4.17-.59l1.32-5.36a8.6 8.6 0 0 0 2.39.37zm45.87-36.45c7.68 0 14.71 5.6 14.71 15.36s-7 15.31-14.71 15.31-14.72-5.6-14.72-15.31 7.03-15.36 14.72-15.36zm0 25.07c4.76 0 7.62-3.87 7.62-9.71s-2.86-9.76-7.62-9.76-7.63 3.87-7.63 9.76 2.86 9.71 7.63 9.71zm48.54 4.89h-5.6l-.53-4.65h-.24c-2.74 3.22-6 5.36-10.37 5.36-6.79 0-9.76-4.28-9.76-11.85V249h6.85v17.22c0 4.7 1.43 6.85 5.48 6.85 2.74 0 4.7-1.13 7.32-4.35V249h6.85zm16.39-23.83h-7.81v-5.12l8.1-.3.9-8h5.62v8h13.28v5.42H1371v12c0 4.83 1.78 7 6.73 7a17.92 17.92 0 0 0 6.49-1.19l1.25 5a29.31 29.31 0 0 1-9.41 1.66c-8.88 0-11.91-5-11.91-12.51zm31.33 15.67a19.07 19.07 0 0 0 11.32 3.69c4.58 0 6.67-1.49 6.67-3.51s-2.74-3.28-8.64-4.83c-5.6-1.49-10.78-4-10.78-8.4 0-5.12 4.64-8.75 12.93-8.75a22.79 22.79 0 0 1 12.15 3.87l-3.16 4.23a16.13 16.13 0 0 0-8.94-2.92c-4.52 0-6.13 1.37-6.13 3.22 0 2.08 3.51 3.21 8.22 4.4 6.79 1.79 11.2 4 11.2 8.82 0 5-4.83 9.05-13.7 9.05a26.21 26.21 0 0 1-14.36-4.52zm39.85 17.69h-5.9l19.6-51.83h5.9zm36.51-7.15v9.18H1465V249h5.66l.54 3.34h.18a14.48 14.48 0 0 1 9.35-4.05c7.63 0 12 5.83 12 14.89 0 10-6.25 15.78-13 15.78a12.3 12.3 0 0 1-8-3.45zm6.38-7.32c4.17 0 7.33-3.46 7.33-10.07 0-5.84-2-9.3-6.8-9.3-2.2 0-4.52 1.08-6.91 3.52v13.16a9.73 9.73 0 0 0 6.38 2.69zm25.32-24.33h5.65l.6 6.61h.18c3-4.7 7.39-7.32 12.45-7.32a11.81 11.81 0 0 1 5.66 1.19l-1.43 5.78a15.16 15.16 0 0 0-5.3-.9c-4 0-7.93 2.09-10.9 7.75v16.14h-6.91zm45.86-.69c7.69 0 14.72 5.6 14.72 15.36s-7 15.31-14.72 15.31-14.71-5.6-14.71-15.31 7.03-15.36 14.71-15.36zm0 25.07c4.77 0 7.63-3.87 7.63-9.71s-2.86-9.76-7.63-9.76-7.62 3.87-7.62 9.76 2.86 9.71 7.62 9.71zm33.96-25.07c3.45 0 5.78 1.31 8.16 3.45l-.3-4.94v-10.61h6.91v42.06h-5.66l-.53-3.4h-.18c-2.27 2.27-5.54 4.11-8.82 4.11-7.51 0-12.51-5.65-12.51-15.31s6.26-15.36 12.93-15.36zm1.25 25c2.44 0 4.58-1.14 6.61-3.52v-13.14A8.71 8.71 0 0 0 1585 254c-4.06 0-7.45 3.52-7.45 9.66.01 6.27 2.63 9.67 7.1 9.67zm49.08 4.96h-5.6l-.53-4.65h-.24c-2.74 3.22-6 5.36-10.37 5.36-6.79 0-9.77-4.28-9.77-11.85V249h6.85v17.22c0 4.7 1.43 6.85 5.48 6.85 2.74 0 4.71-1.13 7.33-4.35V249h6.85zm26.03-29.96a15.52 15.52 0 0 1 10.85 4.11l-3.28 4.29a11.09 11.09 0 0 0-7.21-2.8c-5.84 0-9.89 3.87-9.89 9.76s3.93 9.71 9.71 9.71a13.66 13.66 0 0 0 8.34-3.21l2.86 4.41a18.14 18.14 0 0 1-11.85 4.4c-9.18 0-16.15-5.6-16.15-15.31s7.69-15.36 16.62-15.36zm26.09 6.13h-7.8v-5.12l8.1-.3.9-8h5.66v8H1706v5.42h-13.28v12c0 4.83 1.78 7 6.73 7a17.92 17.92 0 0 0 6.49-1.19l1.25 5a29.31 29.31 0 0 1-9.41 1.66c-8.88 0-11.92-5-11.92-12.51zm42.3 12.56a6 6 0 1 1-5.9 6 5.8 5.8 0 0 1 5.9-6zm22.75-30.79h6.91v10.84l-.41 6.26c2.68-2.68 6-5 10.48-5 6.73 0 9.83 4.28 9.83 11.85v18.11h-6.91v-17.22c0-4.7-1.49-6.85-5.48-6.85-2.86 0-4.83 1.37-7.51 4.11v20h-6.91zm42.18 18.23h-7.81v-5.12l8.11-.3.89-8h5.66v8h13.28v5.42h-13.28v12c0 4.83 1.78 7 6.73 7a17.88 17.88 0 0 0 6.49-1.19l1.25 5a29.26 29.26 0 0 1-9.4 1.75c-8.87 0-11.91-5-11.91-12.51zm27.28-5.44h5.18l.54 3.75h.18c1.31-2.56 3.09-4.46 6.43-4.46 2.8 0 4.65 1.66 5.36 4.88 1.37-2.8 3.4-4.88 6.61-4.88 4.11 0 6.5 3.39 6.5 9.23v20.73h-6.5v-20.17c0-2.63-.77-3.88-2.44-3.88s-2.68 1.19-3.81 3.64v20.43h-5.36v-20.19c0-2.63-.84-3.88-2.5-3.88s-2.57 1.19-3.7 3.64v20.43h-6.49zm37.11-12.79h16.08V268c0 3.94 2.27 5.42 5.25 5.42a13.38 13.38 0 0 0 5-1.13l1.61 5.07a22.86 22.86 0 0 1-8.28 1.66c-6.85 0-10.43-4.17-10.43-11.37v-26h-9.23zm-759.6 372.61l22.64-15v6.37l-16.86 11v.24l16.86 11v6.38l-22.64-15zm33.6-21.03h6.91v10.84l-.42 6.26c2.68-2.68 6-5 10.48-5 6.74 0 9.83 4.29 9.83 11.86v18.11h-6.91v-17.23c0-4.7-1.49-6.85-5.48-6.85-2.86 0-4.82 1.37-7.5 4.11v20h-6.91zm62.6 36.46v5.6h-26.39v-5.6h10.25v-24.9H1170v-4.29a30 30 0 0 0 9.77-3.1h5v32.29zm32.71-10.54l-22.64 15v-6.38l16.86-11v-.24l-16.86-11v-6.37l22.64 15zm22.16 6.13c0-2.14-1.67-4.41-8.4-4.47v-4.17c6.73-.06 8.4-2.32 8.4-4.46 0-3.76-.6-6.74-.6-10.85 0-6.31 3.51-8.22 11.08-8.22h4.11v3.76h-2.74c-5.54 0-6.73 1.19-6.73 4.76 0 3.28.3 6.61.3 10.25 0 4.17-1.49 6-5.66 6.73v.24c4.17.71 5.66 2.56 5.66 6.73 0 3.81-.3 6.79-.3 10.24s1.19 4.77 6.73 4.77h2.74v3.75h-4.11c-7.57 0-11.08-1.9-11.08-8.22 0-4.29.6-6.91.6-10.84zm35.74 0c0-2.14-1.67-4.41-8.4-4.47v-4.17c6.73-.06 8.4-2.32 8.4-4.46 0-3.76-.6-6.74-.6-10.85 0-6.31 3.52-8.22 11.08-8.22h4.11v3.76h-2.74c-5.54 0-6.73 1.19-6.73 4.76 0 3.28.3 6.61.3 10.25 0 4.17-1.49 6-5.66 6.73v.24c4.17.71 5.66 2.56 5.66 6.73 0 3.81-.3 6.79-.3 10.24s1.19 4.77 6.73 4.77h2.74v3.75h-4.11c-7.56 0-11.08-1.9-11.08-8.22 0-4.29.6-6.91.6-10.84zm32.4 12.39v9.18h-6.91V600.6h5.66l.54 3.34h.18a14.47 14.47 0 0 1 9.35-4.06c7.62 0 12 5.84 12 14.9 0 10-6.25 15.78-13 15.78a12.34 12.34 0 0 1-8.05-3.45zm6.38-7.33c4.17 0 7.32-3.45 7.32-10.06 0-5.84-2-9.3-6.79-9.3-2.2 0-4.53 1.08-6.91 3.52v13.16a9.71 9.71 0 0 0 6.38 2.68zm41.99-13.76c-.24-3.27-2.2-5.72-7-5.72-3.27 0-6.55 1.43-9.59 3.1l-2.5-4.58a27 27 0 0 1 13.34-4.06c8.1 0 12.57 4.47 12.57 12.63v17.34h-5.6l-.53-3.64h-.14c-3.1 2.39-7 4.35-11 4.35-5.72 0-9.77-3.45-9.77-8.57.03-6.56 5.77-9.83 20.22-10.85zm-8.34 14.06c2.92 0 5.66-1.43 8.34-3.57v-6.2c-10.48.72-13.58 2.86-13.58 6 0 2.64 2.32 3.77 5.24 3.77zm28 3.64v-.24a5.51 5.51 0 0 1-3-4.89c0-2 1.37-4.05 3.52-5.54v-.24a8.93 8.93 0 0 1-3.76-7.5c0-6.73 5.6-10.55 12-10.55a13.38 13.38 0 0 1 4.58.72h12v5.06h-6.85a8 8 0 0 1 2 5c0 6.49-5.12 9.89-11.67 9.89a13.77 13.77 0 0 1-4.47-.78 3.17 3.17 0 0 0-1.79 2.68c0 2 1.91 2.8 5.54 2.8h6c7.56 0 11.49 2.09 11.49 7.15 0 5.78-6.55 10.37-16.85 10.37-8 0-13.35-2.57-13.35-7.81-.04-2.31 1.57-4.52 4.61-6.12zm9.53 9.47c5.72 0 9.41-2.27 9.41-4.77 0-2.26-2-2.86-5.9-2.86h-4.64a15.52 15.52 0 0 1-4.47-.47c-2.08 1.25-2.86 2.5-2.86 3.87 0 2.62 3.04 4.23 8.46 4.23zm4.88-27.88a5.57 5.57 0 1 0-11.13 0c0 3.69 2.5 5.84 5.54 5.84a5.48 5.48 0 0 0 5.59-5.84zm31.7-10.55c8.69 0 13.58 5.78 13.58 13.88a19.46 19.46 0 0 1-.3 3.22h-21.27c.66 5.3 4.53 8.28 9.83 8.28a16.23 16.23 0 0 0 8.22-2.38l2.33 4.29a22 22 0 0 1-11.44 3.39c-8.88 0-16-5.66-16-15.31a14.92 14.92 0 0 1 15.05-15.37zm7.26 12.75c0-4.64-2.44-7.44-7.09-7.44-3.93 0-7.5 2.56-8.22 7.44zm27.64 5.9a6 6 0 1 1-5.9 6 5.79 5.79 0 0 1 5.9-6zm29.19-12.53h-7.8v-5.1l8.1-.3.89-8h5.66v8h13.29v5.4h-13.29v12c0 4.83 1.79 7 6.73 7a18 18 0 0 0 6.5-1.19l1.25 5a29.32 29.32 0 0 1-9.42 1.66c-8.87 0-11.91-5-11.91-12.51zm29.43-5.4h19.54v29.25h-6.85V606h-12.69zm10.72-9.71a4.89 4.89 0 0 1 9.77 0c0 2.74-2 4.59-4.89 4.59a4.56 4.56 0 0 1-4.88-4.59zm31.33 15.11H1559v-5.1l8.1-.3.89-8h5.66v8h13.29v5.4h-13.29v12c0 4.83 1.79 7 6.73 7a17.94 17.94 0 0 0 6.5-1.19l1.25 5a29.31 29.31 0 0 1-9.41 1.66c-8.88 0-11.92-5-11.92-12.51zm28.65-18.21h16.09v31.75c0 3.93 2.26 5.42 5.24 5.42a13.34 13.34 0 0 0 5-1.13l1.61 5.07a22.82 22.82 0 0 1-8.28 1.66c-6.85 0-10.42-4.17-10.42-11.37v-26h-9.24zm50.22 12.09c8.7 0 13.58 5.78 13.58 13.88a20.83 20.83 0 0 1-.24 3.24h-21.27c.65 5.3 4.53 8.28 9.83 8.28a16.23 16.23 0 0 0 8.22-2.38l2.32 4.29a21.93 21.93 0 0 1-11.44 3.39c-8.87 0-16-5.66-16-15.31a14.91 14.91 0 0 1 15-15.39zm7.27 12.75c0-4.64-2.44-7.44-7.09-7.44-3.93 0-7.51 2.56-8.22 7.44zm18.58 22.52c5.48 0 6.74-1.19 6.74-4.77s-.3-6.43-.3-10.24c0-4.17 1.43-6 5.66-6.73v-.24c-4.23-.72-5.66-2.56-5.66-6.73 0-3.64.3-7 .3-10.25 0-3.57-1.26-4.76-6.74-4.76h-2.74v-3.76h4.11c7.57 0 11 1.91 11 8.22 0 4.11-.59 7.09-.59 10.85 0 2.14 1.67 4.4 8.4 4.46v4.17c-6.73.06-8.4 2.33-8.4 4.47 0 3.93.59 6.55.59 10.84 0 6.32-3.45 8.22-11 8.22h-4.11v-3.75zm35.74 0c5.49 0 6.74-1.19 6.74-4.77s-.3-6.43-.3-10.24c0-4.17 1.43-6 5.66-6.73v-.24c-4.23-.72-5.66-2.56-5.66-6.73 0-3.64.3-7 .3-10.25 0-3.57-1.25-4.76-6.74-4.76h-2.74v-3.76h4.11c7.57 0 11 1.91 11 8.22 0 4.11-.6 7.09-.6 10.85 0 2.14 1.67 4.4 8.4 4.46v4.17c-6.73.06-8.4 2.33-8.4 4.47 0 3.93.6 6.55.6 10.84 0 6.32-3.46 8.22-11 8.22h-4.11v-3.75zm33.96-26.33l22.64-15v6.37l-16.86 11v.24l16.86 11v6.38l-22.64-15zm39.73 30.56H1775l19.6-51.83h5.9zm29.61-51.59h6.91v10.84l-.42 6.26c2.68-2.68 6-5 10.48-5 6.74 0 9.83 4.29 9.83 11.86v18.11h-6.91v-17.23c0-4.7-1.49-6.85-5.48-6.85-2.86 0-4.82 1.37-7.5 4.11v20h-6.91zm62.6 36.46v5.6h-26.39v-5.6H1857v-24.9h-7.92v-4.29a30 30 0 0 0 9.77-3.1h5v32.29zm32.71-10.54l-22.64 15v-6.38l16.86-11v-.24l-16.86-11v-6.37l22.64 15zm-807.99 131.63l22.64-15v6.38l-16.86 11v.24l16.86 11v6.37l-22.64-15zm40.51 23.41v9.18h-6.91v-40.81h5.66l.53 3.34h.18a14.53 14.53 0 0 1 9.35-4.05c7.63 0 12 5.84 12 14.89 0 10-6.26 15.79-13 15.79a12.26 12.26 0 0 1-8-3.46zm6.37-7.32c4.17 0 7.33-3.46 7.33-10.07 0-5.84-2-9.29-6.79-9.29-2.21 0-4.53 1.07-6.91 3.51v13.17a9.72 9.72 0 0 0 6.37 2.68zm46.25-11.2l-22.64 15v-6.37l16.86-11v-.24l-16.86-11v-6.38l22.64 15zm22.19 6.13c0-2.14-1.66-4.4-8.39-4.46v-4.17c6.73-.06 8.39-2.33 8.39-4.47 0-3.75-.59-6.73-.59-10.84 0-6.32 3.51-8.22 11.08-8.22h4.11v3.8h-2.74c-5.54 0-6.73 1.19-6.73 4.76 0 3.28.3 6.62.3 10.25 0 4.17-1.49 6-5.66 6.73v.24c4.17.72 5.66 2.56 5.66 6.73 0 3.81-.3 6.79-.3 10.25s1.19 4.76 6.73 4.76h2.74v3.76h-4.11c-7.57 0-11.08-1.91-11.08-8.22 0-4.34.59-6.96.59-10.9zm35.75 0c0-2.14-1.67-4.4-8.4-4.46v-4.17c6.73-.06 8.4-2.33 8.4-4.47 0-3.75-.6-6.73-.6-10.84 0-6.32 3.51-8.22 11.08-8.22h4.11v3.8h-2.74c-5.54 0-6.73 1.19-6.73 4.76 0 3.28.3 6.62.3 10.25 0 4.17-1.49 6-5.66 6.73v.24c4.17.72 5.66 2.56 5.66 6.73 0 3.81-.3 6.79-.3 10.25s1.19 4.76 6.73 4.76h2.74v3.76h-4.11c-7.57 0-11.08-1.91-11.08-8.22 0-4.34.6-6.96.6-10.9zm32.4 12.39v9.18h-6.91v-40.81h5.66l.54 3.34h.17a14.56 14.56 0 0 1 9.36-4.05c7.62 0 12 5.84 12 14.89 0 10-6.25 15.79-13 15.79a12.28 12.28 0 0 1-8-3.46zm6.37-7.32c4.17 0 7.33-3.46 7.33-10.07 0-5.84-2-9.29-6.79-9.29-2.2 0-4.53 1.07-6.91 3.51v13.17a9.76 9.76 0 0 0 6.37 2.68zm42-13.76c-.24-3.28-2.2-5.72-7-5.72-3.28 0-6.55 1.43-9.59 3.1l-2.5-4.59a27 27 0 0 1 13.34-4.05c8.1 0 12.57 4.47 12.57 12.63v17.33H1331l-.53-3.63h-.18c-3.1 2.38-7 4.35-11 4.35-5.72 0-9.77-3.46-9.77-8.58 0-6.51 5.77-9.83 20.19-10.84zm-8.34 14.06c2.92 0 5.66-1.43 8.34-3.58V752c-10.48.71-13.58 2.86-13.58 6 0 2.59 2.32 3.73 5.24 3.73zm28 3.63v-.24a5.49 5.49 0 0 1-3-4.88c0-2 1.37-4 3.51-5.54v-.24a9 9 0 0 1-3.75-7.51c0-6.73 5.6-10.54 12-10.54a13.66 13.66 0 0 1 4.59.71h12v5.07h-6.86a7.89 7.89 0 0 1 2 5c0 6.49-5.12 9.89-11.68 9.89a13.71 13.71 0 0 1-4.46-.78 3.16 3.16 0 0 0-1.79 2.69c0 2 1.91 2.8 5.54 2.8h6c7.56 0 11.49 2.08 11.49 7.14 0 5.78-6.55 10.37-16.85 10.37-8 0-13.35-2.56-13.35-7.8-.04-2.33 1.57-4.5 4.61-6.14zm9.53 9.47c5.72 0 9.41-2.26 9.41-4.76 0-2.27-2-2.86-5.9-2.86h-4.64a15.12 15.12 0 0 1-4.47-.48c-2.09 1.25-2.86 2.5-2.86 3.87 0 2.62 3.04 4.23 8.46 4.23zm4.88-27.88a5.58 5.58 0 1 0-11.14 0c0 3.7 2.51 5.84 5.54 5.84a5.47 5.47 0 0 0 5.6-5.79zm31.69-10.54c8.7 0 13.59 5.78 13.59 13.88a19.43 19.43 0 0 1-.3 3.21h-21.27c.66 5.31 4.53 8.29 9.83 8.29a16.24 16.24 0 0 0 8.22-2.39l2.32 4.29a21.81 21.81 0 0 1-11.43 3.4c-8.88 0-16-5.66-16-15.31a14.91 14.91 0 0 1 15.04-15.37zm7.27 12.75c0-4.65-2.44-7.45-7.09-7.45-3.93 0-7.5 2.56-8.22 7.45zm27.64 5.89a6 6 0 1 1-5.9 6 5.8 5.8 0 0 1 5.9-6zm33.95-18.64c3.46 0 5.78 1.31 8.17 3.45l-.3-4.94v-10.6h6.91v42h-5.66l-.54-3.39h-.18c-2.26 2.26-5.54 4.11-8.81 4.11-7.51 0-12.51-5.66-12.51-15.31s6.25-15.32 12.92-15.32zm1.26 25c2.44 0 4.58-1.13 6.61-3.52v-13.14a8.72 8.72 0 0 0-6.26-2.68c-4 0-7.44 3.51-7.44 9.65 0 6.28 2.62 9.71 7.09 9.71zm37.11-25c8.69 0 13.58 5.78 13.58 13.88a19.43 19.43 0 0 1-.3 3.21h-21.27c.66 5.31 4.53 8.29 9.83 8.29a16.24 16.24 0 0 0 8.22-2.39l2.33 4.29a21.87 21.87 0 0 1-11.44 3.4c-8.88 0-16-5.66-16-15.31a14.91 14.91 0 0 1 15.05-15.37zm7.26 12.75c0-4.65-2.44-7.45-7.08-7.45-3.94 0-7.51 2.56-8.22 7.45zm16.68 9.05a19.09 19.09 0 0 0 11.36 3.69c4.59 0 6.67-1.48 6.67-3.51s-2.74-3.28-8.63-4.83c-5.6-1.48-10.79-4-10.79-8.39 0-5.13 4.65-8.76 12.93-8.76a22.76 22.76 0 0 1 12.15 3.87l-3.15 4.23a16.16 16.16 0 0 0-8.94-2.92c-4.53 0-6.14 1.37-6.14 3.22 0 2.08 3.52 3.21 8.23 4.41 6.79 1.78 11.19 4 11.19 8.81 0 5-4.82 9.06-13.7 9.06a26.15 26.15 0 0 1-14.35-4.53zm49.8-21.8a15.52 15.52 0 0 1 10.84 4.11l-3.27 4.29a11.11 11.11 0 0 0-7.21-2.8c-5.84 0-9.89 3.87-9.89 9.77s3.93 9.71 9.71 9.71a13.66 13.66 0 0 0 8.34-3.22l2.86 4.41a18.17 18.17 0 0 1-11.85 4.41c-9.18 0-16.15-5.6-16.15-15.31s7.69-15.37 16.62-15.37zm23.56 35.26c5.48 0 6.73-1.19 6.73-4.76s-.29-6.44-.29-10.25c0-4.17 1.43-6 5.65-6.73v-.24c-4.22-.71-5.65-2.56-5.65-6.73 0-3.63.29-7 .29-10.25 0-3.57-1.25-4.76-6.73-4.76h-2.74v-3.75h4.11c7.57 0 11 1.9 11 8.22 0 4.11-.59 7.09-.59 10.84 0 2.14 1.66 4.41 8.4 4.47v4.17c-6.74.06-8.4 2.32-8.4 4.46 0 3.94.59 6.56.59 10.85 0 6.31-3.45 8.22-11 8.22h-4.11v-3.76zm35.77 0c5.48 0 6.73-1.19 6.73-4.76s-.29-6.44-.29-10.25c0-4.17 1.43-6 5.66-6.73v-.24c-4.23-.71-5.66-2.56-5.66-6.73 0-3.63.29-7 .29-10.25 0-3.57-1.25-4.76-6.73-4.76H1633v-3.75h4.11c7.57 0 11 1.9 11 8.22 0 4.11-.59 7.09-.59 10.84 0 2.14 1.67 4.41 8.4 4.47v4.17c-6.73.06-8.4 2.32-8.4 4.46 0 3.94.59 6.56.59 10.85 0 6.31-3.45 8.22-11 8.22H1633v-3.76zm33.96-26.33l22.63-15v6.38l-16.86 11v.24l16.86 11v6.37l-22.63-15zm39.73 30.56h-5.9l19.6-51.82h5.9zm36.54-7.15v9.18h-6.91v-40.81h5.66l.54 3.34h.18a14.53 14.53 0 0 1 9.35-4.05c7.63 0 12 5.84 12 14.89 0 10-6.25 15.79-13 15.79a12.26 12.26 0 0 1-8-3.46zm6.38-7.32c4.17 0 7.33-3.46 7.33-10.07 0-5.84-2-9.29-6.8-9.29-2.2 0-4.52 1.07-6.91 3.51v13.17a9.76 9.76 0 0 0 6.35 2.68zm46.25-11.2l-22.63 15v-6.37l16.85-11v-.24l-16.85-11v-6.38l22.63 15z"/><path fill="#fff" stroke="#9d35af" stroke-miterlimit="10" stroke-width="30" d="M1943.79 531.23h1007.62v1244.42H1943.79z"/><path d="M2122.35 491v5.36h-28.59V491zm15.37-1.33v9.17h-6.91V458h5.66l.54 3.34h.18a14.51 14.51 0 0 1 9.35-4.05c7.62 0 12 5.84 12 14.89 0 10-6.25 15.79-13 15.79a12.3 12.3 0 0 1-8.05-3.46zm6.38-7.33c4.17 0 7.32-3.46 7.32-10.07 0-5.84-2-9.29-6.79-9.29-2.2 0-4.53 1.07-6.91 3.51v13.17a9.76 9.76 0 0 0 6.38 2.68zm25.31-24.34h5.66l.6 6.62h.18c3-4.71 7.38-7.33 12.45-7.33a11.92 11.92 0 0 1 5.66 1.19l-1.43 5.78a15.18 15.18 0 0 0-5.31-.89c-4 0-7.92 2.08-10.9 7.74v16.14h-6.91zm45.87-.68c7.68 0 14.71 5.6 14.71 15.37S2223 488 2215.28 488s-14.71-5.6-14.71-15.31 7.03-15.37 14.71-15.37zm0 25.08c4.77 0 7.63-3.87 7.63-9.71s-2.86-9.77-7.63-9.77-7.62 3.87-7.62 9.77 2.85 9.71 7.62 9.71zm33.95-25.08c3.46 0 5.78 1.31 8.17 3.45l-.3-4.94v-10.6h6.9v42h-5.66l-.54-3.39h-.18c-2.26 2.26-5.54 4.11-8.81 4.11-7.51 0-12.51-5.66-12.51-15.31s6.26-15.32 12.93-15.32zm1.26 25c2.44 0 4.58-1.13 6.61-3.52v-13.14a8.72 8.72 0 0 0-6.26-2.68c-4.05 0-7.44 3.51-7.44 9.65 0 6.31 2.6 9.71 7.09 9.71zm49.08 4.96H2294l-.54-4.64h-.23c-2.74 3.21-6 5.36-10.37 5.36-6.79 0-9.77-4.29-9.77-11.86V458h6.85v17.22c0 4.71 1.43 6.85 5.48 6.85 2.74 0 4.71-1.13 7.33-4.35V458h6.85zm26.03-29.96a15.52 15.52 0 0 1 10.84 4.11l-3.27 4.29a11.11 11.11 0 0 0-7.21-2.8c-5.84 0-9.89 3.87-9.89 9.77s3.93 9.71 9.71 9.71a13.66 13.66 0 0 0 8.34-3.22l2.86 4.41a18.2 18.2 0 0 1-11.86 4.41c-9.17 0-16.14-5.6-16.14-15.31s7.69-15.37 16.62-15.37zm26.09 6.14h-7.8v-5.13l8.1-.3.89-8h5.66v8h13.29v5.43h-13.29v12c0 4.82 1.79 7 6.73 7a18.15 18.15 0 0 0 6.5-1.19l1.25 5a29.3 29.3 0 0 1-9.41 1.67c-8.88 0-11.92-5-11.92-12.51zm31.31 15.66a19.05 19.05 0 0 0 11.32 3.7c4.59 0 6.67-1.49 6.67-3.52s-2.74-3.28-8.63-4.82c-5.6-1.49-10.79-4-10.79-8.4 0-5.13 4.65-8.76 12.93-8.76a22.81 22.81 0 0 1 12.15 3.87l-3.15 4.23a16.13 16.13 0 0 0-8.94-2.92c-4.53 0-6.13 1.37-6.13 3.22 0 2.08 3.51 3.22 8.22 4.41 6.79 1.78 11.2 4 11.2 8.81 0 5-4.83 9.06-13.71 9.06a26.15 26.15 0 0 1-14.35-4.53zm39.88 17.69H2417l19.6-51.82h5.89zm40.8-39.49c3.46 0 5.78 1.31 8.16 3.45l-.3-4.94v-10.6h6.91v42h-5.66l-.53-3.39h-.18c-2.26 2.26-5.54 4.11-8.82 4.11-7.5 0-12.51-5.66-12.51-15.31s6.25-15.32 12.93-15.32zm1.25 25c2.44 0 4.59-1.13 6.61-3.52v-13.14a8.7 8.7 0 0 0-6.25-2.68c-4.05 0-7.45 3.51-7.45 9.65 0 6.31 2.62 9.71 7.09 9.71zm23.41-24.32h19.54v29.25H2501v-23.79h-12.69zm10.72-9.71a4.89 4.89 0 0 1 9.77 0c0 2.74-2 4.59-4.88 4.59a4.56 4.56 0 0 1-4.89-4.56zm44.44 20.29c-.24-3.28-2.2-5.72-7-5.72-3.27 0-6.55 1.43-9.59 3.1l-2.5-4.59a27.14 27.14 0 0 1 13.34-4.05c8.1 0 12.57 4.47 12.57 12.63v17.33h-5.6l-.53-3.63h-.19c-3.1 2.38-7 4.35-11 4.35-5.72 0-9.77-3.46-9.77-8.58.08-6.55 5.86-9.83 20.27-10.84zm-8.34 14.06c2.92 0 5.66-1.43 8.34-3.58v-6.19c-10.48.71-13.58 2.86-13.58 6 0 2.64 2.32 3.77 5.24 3.77zm22.52-24.64h5.18l.54 3.76h.18c1.31-2.56 3.09-4.47 6.43-4.47 2.8 0 4.65 1.67 5.36 4.88 1.37-2.8 3.4-4.88 6.61-4.88 4.11 0 6.5 3.4 6.5 9.23v20.73H2582v-20.16c0-2.62-.77-3.87-2.44-3.87s-2.68 1.19-3.81 3.63v20.43h-5.36v-20.19c0-2.62-.84-3.87-2.5-3.87s-2.57 1.19-3.7 3.63v20.43h-6.49zm50.75-.68c7.69 0 14.72 5.6 14.72 15.37s-7 15.31-14.72 15.31-14.71-5.6-14.71-15.31 7.03-15.37 14.71-15.37zm0 25.08c4.77 0 7.63-3.87 7.63-9.71s-2.86-9.77-7.63-9.77-7.62 3.87-7.62 9.77 2.86 9.71 7.62 9.71zm22.76-24.4h5.66l.53 4.41h.24c2.74-2.8 6.08-5.12 10.54-5.12 6.74 0 9.83 4.29 9.83 11.85v18.11h-6.91v-17.18c0-4.71-1.49-6.85-5.48-6.85-2.86 0-4.82 1.37-7.5 4.11v19.95h-6.91zm46.94-.68c3.45 0 5.78 1.31 8.16 3.45l-.3-4.94v-10.6h6.91v42h-5.66l-.53-3.39h-.18c-2.27 2.26-5.54 4.11-8.82 4.11-7.51 0-12.51-5.66-12.51-15.31s6.26-15.32 12.93-15.32zm1.25 25c2.44 0 4.58-1.13 6.61-3.52v-13.14a8.7 8.7 0 0 0-6.25-2.68c-4.06 0-7.45 3.51-7.45 9.65 0 6.31 2.62 9.71 7.09 9.71zm36.27-6.32a6 6 0 1 1-5.89 6 5.79 5.79 0 0 1 5.89-6zm20.73-18h5.19l.53 3.76h.18c1.31-2.56 3.1-4.47 6.43-4.47 2.8 0 4.65 1.67 5.37 4.88 1.37-2.8 3.39-4.88 6.61-4.88 4.11 0 6.49 3.4 6.49 9.23v20.73h-6.49v-20.16c0-2.62-.78-3.87-2.44-3.87s-2.68 1.19-3.82 3.63v20.43h-5.36v-20.19c0-2.62-.83-3.87-2.5-3.87s-2.56 1.19-3.69 3.63v20.43h-6.5zm48.97-.68c3.45 0 5.78 1.31 8.16 3.45l-.3-4.94v-10.6h6.91v42h-5.66l-.53-3.39h-.18c-2.26 2.26-5.54 4.11-8.82 4.11-7.5 0-12.51-5.66-12.51-15.31s6.26-15.32 12.93-15.32zm1.25 25c2.44 0 4.59-1.13 6.61-3.52v-13.14A8.7 8.7 0 0 0 2787 463c-4.05 0-7.45 3.51-7.45 9.65-.04 6.29 2.58 9.69 7.05 9.69zm-765.23 135.73h20.37v5.48h-20.37zm35.74 0h20.37v5.48h-20.37zm35.74 0h20.37v5.48h-20.37zM2025 686h-7.8v-5.12l8.1-.3.89-8h5.66v8h13.29V686h-13.29v12c0 4.83 1.79 7 6.73 7a17.94 17.94 0 0 0 6.5-1.19l1.25 5a29.31 29.31 0 0 1-9.41 1.66c-8.88 0-11.92-5-11.92-12.51zm29.43-5.46H2074v29.25h-6.85V686h-12.69zm10.72-9.71a4.89 4.89 0 0 1 9.77 0c0 2.74-2 4.59-4.88 4.59a4.56 4.56 0 0 1-4.89-4.59zm31.33 15.17h-7.8v-5.12l8.1-.3.9-8h5.65v8h13.29V686h-13.29v12c0 4.83 1.79 7 6.74 7a17.92 17.92 0 0 0 6.49-1.19l1.25 5a29.31 29.31 0 0 1-9.41 1.66c-8.88 0-11.92-5-11.92-12.51zm28.66-18.27h16.08v31.75c0 3.94 2.26 5.42 5.24 5.42a13.43 13.43 0 0 0 5-1.13l1.6 5.07a22.82 22.82 0 0 1-8.28 1.66c-6.85 0-10.42-4.17-10.42-11.37v-26h-9.23zm50.21 12.1c8.7 0 13.59 5.77 13.59 13.88a19.43 19.43 0 0 1-.3 3.21h-21.27c.66 5.3 4.53 8.28 9.83 8.28a16.23 16.23 0 0 0 8.22-2.38l2.32 4.29a21.89 21.89 0 0 1-11.43 3.39c-8.88 0-16-5.66-16-15.31a14.9 14.9 0 0 1 15.04-15.36zm7.27 12.74c0-4.64-2.44-7.44-7.09-7.44-3.93 0-7.5 2.56-8.22 7.44zm27.64-14.41a6 6 0 1 1-5.9 6 5.82 5.82 0 0 1 5.9-6zm0 20.31a6 6 0 1 1-5.9 6 5.79 5.79 0 0 1 5.9-6zm60.1-21.92l-.17-7.63h8.34l-.18 7.63-1.79 13.76h-4.41zm14.78 0l-.18-7.63h8.34l-.18 7.63-1.79 13.76h-4.41zm18.94-5.72h10.07c11.49 0 18.34 6.43 18.34 19.3s-6.85 19.66-18 19.66h-10.42zm9.65 33.36c7.45 0 11.68-4.47 11.68-14.06s-4.23-13.7-11.68-13.7H2311v27.76zm26.63-23.65h19.54v29.25h-6.85V686h-12.69zm10.72-9.71a4.89 4.89 0 0 1 9.77 0c0 2.74-2 4.59-4.89 4.59a4.56 4.56 0 0 1-4.88-4.59zm44.44 20.25c-.24-3.27-2.21-5.71-7-5.71-3.28 0-6.55 1.42-9.59 3.09l-2.5-4.58a27 27 0 0 1 13.34-4c8.1 0 12.57 4.46 12.57 12.62v17.34h-5.6l-.54-3.63h-.18c-3.09 2.38-7 4.34-11 4.34-5.72 0-9.77-3.45-9.77-8.57.07-6.61 5.85-9.88 20.27-10.9zm-8.34 14.06c2.92 0 5.66-1.43 8.34-3.57v-6.2c-10.49.72-13.58 2.86-13.58 6 0 2.63 2.32 3.77 5.24 3.77zm22.51-24.6h5.19l.53 3.75h.18c1.31-2.56 3.1-4.46 6.44-4.46 2.8 0 4.64 1.66 5.36 4.88 1.37-2.8 3.39-4.88 6.61-4.88 4.11 0 6.49 3.39 6.49 9.23v20.73H2434v-20.2c0-2.62-.78-3.87-2.44-3.87s-2.68 1.19-3.82 3.64v20.43h-5.36v-20.2c0-2.62-.83-3.87-2.5-3.87s-2.56 1.19-3.69 3.64v20.43h-6.5zm50.76-.71c7.68 0 14.71 5.59 14.71 15.36s-7 15.31-14.71 15.31-14.72-5.6-14.72-15.31 7.03-15.36 14.72-15.36zm0 25.07c4.76 0 7.62-3.87 7.62-9.71s-2.86-9.77-7.62-9.77-7.63 3.88-7.63 9.77 2.86 9.71 7.63 9.71zm22.75-24.36h5.66l.54 4.41h.24c2.74-2.8 6.07-5.12 10.54-5.12 6.73 0 9.83 4.28 9.83 11.85v18.11h-6.91v-17.22c0-4.7-1.49-6.85-5.48-6.85-2.86 0-4.83 1.37-7.51 4.11v20h-6.91zm46.94-.71c3.46 0 5.78 1.31 8.16 3.45l-.29-4.94v-10.61h6.91v42.06h-5.66l-.54-3.4h-.18c-2.26 2.27-5.54 4.11-8.81 4.11-7.51 0-12.51-5.66-12.51-15.31s6.25-15.36 12.92-15.36zm1.25 25c2.45 0 4.59-1.13 6.62-3.51v-13.15a8.73 8.73 0 0 0-6.26-2.69c-4.05 0-7.45 3.52-7.45 9.65 0 6.32 2.63 9.71 7.09 9.71zm24.9-28.28l-.18-7.63h8.34l-.18 7.63-1.78 13.76h-4.41zm14.78 0l-.18-7.63h8.34l-.18 7.63-1.79 13.76h-4.41zm-541.3 74.76c3.45 0 5.78 1.31 8.16 3.45l-.3-4.94v-10.6h6.91v42h-5.66l-.53-3.39h-.18c-2.27 2.26-5.54 4.11-8.82 4.11-7.51 0-12.51-5.66-12.51-15.31s6.26-15.32 12.93-15.32zm1.25 25c2.44 0 4.59-1.13 6.61-3.52v-13.14a8.7 8.7 0 0 0-6.25-2.68c-4.05 0-7.45 3.51-7.45 9.65 0 6.31 2.62 9.71 7.07 9.71zm37.11-25c8.7 0 13.58 5.78 13.58 13.88a19.43 19.43 0 0 1-.3 3.21h-21.26c.65 5.31 4.52 8.29 9.83 8.29a16.27 16.27 0 0 0 8.22-2.39l2.32 4.29a21.87 21.87 0 0 1-11.44 3.4c-8.87 0-16-5.66-16-15.31a14.91 14.91 0 0 1 15.05-15.37zm7.27 12.75c0-4.65-2.44-7.45-7.09-7.45-3.93 0-7.51 2.56-8.22 7.45zm16.68 9.05a19.06 19.06 0 0 0 11.31 3.69c4.59 0 6.68-1.49 6.68-3.51s-2.74-3.28-8.64-4.83c-5.6-1.48-10.78-4-10.78-8.4 0-5.12 4.64-8.75 12.92-8.75a22.79 22.79 0 0 1 12.16 3.87l-3.16 4.23a16.13 16.13 0 0 0-8.94-2.92c-4.53 0-6.13 1.37-6.13 3.22 0 2.08 3.51 3.21 8.22 4.41 6.79 1.78 11.2 4 11.2 8.81 0 5-4.83 9.06-13.7 9.06a26.16 26.16 0 0 1-14.36-4.53zm49.8-21.8a15.56 15.56 0 0 1 10.84 4.11l-3.28 4.29a11.09 11.09 0 0 0-7.21-2.8c-5.83 0-9.89 3.87-9.89 9.77s3.94 9.71 9.71 9.71a13.66 13.66 0 0 0 8.34-3.22l2.86 4.41a18.15 18.15 0 0 1-11.85 4.42c-9.17 0-16.14-5.6-16.14-15.31s7.68-15.38 16.62-15.38zm32.64-1.67a6 6 0 1 1-5.9 6 5.83 5.83 0 0 1 5.9-6zm0 20.31a6 6 0 1 1-5.9 6 5.8 5.8 0 0 1 5.9-5.95zm60.1-21.95l-.18-7.62h8.34l-.17 7.62-1.79 13.76h-4.41zm14.78 0l-.18-7.62h8.34l-.18 7.62-1.79 13.76h-4.41zm21.98 23.56A16.43 16.43 0 0 0 2282 776c4.77 0 7.27-2 7.27-5 0-3.22-2.68-4.23-6.55-5.72l-5.31-2.33c-4.11-1.6-8.34-4.64-8.34-10.36 0-6.2 5.6-11 13.53-11a18.4 18.4 0 0 1 12.51 4.94l-3.58 4.41a13.71 13.71 0 0 0-8.93-3.34c-4 0-6.56 1.73-6.56 4.59 0 3 3.16 4.11 6.68 5.48l5.12 2.21c4.94 2 8.46 4.88 8.46 10.54 0 6.31-5.36 11.56-14.42 11.56a21.23 21.23 0 0 1-14.53-5.72zm33.12-32.34h6.91v10.84l-.42 6.25c2.68-2.68 6-5 10.48-5 6.74 0 9.83 4.29 9.83 11.85v18.11h-6.91v-17.21c0-4.71-1.49-6.85-5.48-6.85-2.86 0-4.82 1.37-7.5 4.11v19.95h-6.91zm35.86 12.78h19.54v29.25h-6.85v-23.81h-12.69zm10.72-9.71a4.89 4.89 0 0 1 9.77 0c0 2.74-2 4.59-4.89 4.59a4.56 4.56 0 0 1-4.88-4.57zM2376 752h5.66l.53 4.41h.24c2.74-2.8 6.08-5.12 10.55-5.12 6.73 0 9.83 4.29 9.83 11.85v18.11h-6.91v-17.19c0-4.71-1.49-6.85-5.49-6.85-2.85 0-4.82 1.37-7.5 4.11v19.95H2376zm38.58 35.77c3.69 0 5.84-2.09 7-5l.71-1.85-13.07-28.92h6.85l6 14.36c1.08 2.62 2.15 5.66 3.22 8.58h.24c.89-2.8 2-5.84 2.92-8.58l5.3-14.36h6.49L2428 782.58c-2.5 6.61-6 10.73-13 10.73a14.24 14.24 0 0 1-4.17-.6l1.31-5.36a8.33 8.33 0 0 0 2.44.42zm96.68-5.77a26.55 26.55 0 0 1-8.22-4 16.11 16.11 0 0 1-10.72 4c-7.51 0-12.1-4.83-12.1-11 0-5.19 3.22-8.34 6.79-10.91a20.35 20.35 0 0 1-2.56-8.81c0-5.36 3.58-9.71 9.12-9.71 5.3 0 8.46 3.33 8.46 8.28s-4 8.16-7.93 11.2a48.83 48.83 0 0 0 8.28 8.81 31.71 31.71 0 0 0 4-10.12h6.32a47.48 47.48 0 0 1-5.84 13.52 22.71 22.71 0 0 0 6.08 3.1zm-18.11-5.3a8.4 8.4 0 0 0 5.42-2.27 54.76 54.76 0 0 1-8.82-9.77c-1.72 1.73-3 3.64-3 6 .03 3.58 2.77 6.03 6.4 6.03zm-1.49-19.78c2.8-2 5-4 5-7 0-2.09-.77-3.7-3-3.7-2.09 0-3.46 2-3.46 5a13.21 13.21 0 0 0 1.46 5.69zm63.02-17.7h6.91v10.84l-.23 5.12a13.76 13.76 0 0 1 9-3.87c7.57 0 12 5.84 12 14.83 0 10.07-6.25 15.85-13 15.85a12.89 12.89 0 0 1-8.52-3.93h-.18l-.6 3.21h-5.42zm13.32 37.11c4.11 0 7.26-3.46 7.26-10.07 0-5.84-2-9.29-6.79-9.29-2.2 0-4.52 1.07-6.91 3.51v13.17a9.78 9.78 0 0 0 6.44 2.68zm25.28-24.33h5.66l.6 6.62h.18c3-4.71 7.38-7.33 12.45-7.33a11.92 11.92 0 0 1 5.66 1.19l-1.43 5.78a15.16 15.16 0 0 0-5.3-.9c-4 0-7.93 2.09-10.91 7.75v16.14h-6.91zm33.01 0h19.53v29.25H2639v-23.81h-12.68zm10.72-9.71a4.89 4.89 0 0 1 9.77 0c0 2.74-2 4.59-4.89 4.59a4.56 4.56 0 0 1-4.89-4.57zm28.35 37.97V780a5.49 5.49 0 0 1-3-4.88c0-2 1.37-4 3.52-5.54v-.24a8.93 8.93 0 0 1-3.75-7.51c0-6.73 5.6-10.54 12-10.54a13.66 13.66 0 0 1 4.59.71h12v5.07h-6.85a7.92 7.92 0 0 1 2 5c0 6.49-5.12 9.89-11.67 9.89a13.77 13.77 0 0 1-4.47-.78 3.18 3.18 0 0 0-1.79 2.69c0 2 1.91 2.8 5.54 2.8h6c7.57 0 11.5 2.08 11.5 7.14 0 5.78-6.55 10.37-16.86 10.37-8 0-13.34-2.56-13.34-7.8-.06-2.31 1.54-4.51 4.58-6.12zm9.53 9.47c5.72 0 9.42-2.26 9.42-4.76 0-2.27-2-2.86-5.9-2.86h-4.65a15.21 15.21 0 0 1-4.47-.48c-2.08 1.25-2.86 2.5-2.86 3.87 0 2.62 3.04 4.23 8.46 4.23zm4.89-27.88a5.58 5.58 0 1 0-11.14 0c0 3.7 2.5 5.84 5.54 5.84a5.47 5.47 0 0 0 5.6-5.84zm17.87-22.63h6.91v10.84l-.42 6.25c2.68-2.68 6-5 10.49-5 6.73 0 9.83 4.29 9.83 11.85v18.11h-6.92v-17.21c0-4.71-1.48-6.85-5.48-6.85-2.85 0-4.82 1.37-7.5 4.11v19.95h-6.91zm42.17 18.22H2732v-5.12l8.1-.3.89-8h5.66v8H2760v5.42h-13.29v12c0 4.82 1.79 7 6.73 7a17.93 17.93 0 0 0 6.5-1.2l1.25 5a29.3 29.3 0 0 1-9.41 1.67c-8.88 0-11.92-5-11.92-12.51zm30.92-9.44l-.18-7.62h8.34l-.18 7.62-1.79 13.76h-4.4zm14.77 0l-.18-7.62h8.34l-.18 7.62-1.78 13.76h-4.41zm-764.14 84.5h20.37v5.5h-20.37zm35.74 0h20.37v5.5h-20.37zm35.74 0h20.37v5.5h-20.37z"/><path fill="none" stroke="#00deaf" stroke-miterlimit="10" stroke-width="30" d="M2013.86 687.08l-338.74-53.07"/><path fill="#00deaf" d="M1721.96 605.32l-40.71 29.66 29.69 40.68-29.87-4.68-29.66-40.68 40.68-29.66 29.87 4.68z"/><path fill="none" stroke="#00deaf" stroke-miterlimit="10" stroke-width="30" d="M2013.86 757.16l-394.04-11.39"/><path fill="#00deaf" d="M1662.66 711.39l-36.63 34.56 34.58 36.61-30.22-.87-34.56-36.61 36.62-34.56 30.21.87z"/></svg>