<svg xmlns="http://www.w3.org/2000/svg" width="1280" height="720" viewBox="0 0 1280 720"><defs><style>.a,.f,.g,.i,.l,.r,.s,.t,.v{fill:none;}.a,.b,.f,.g,.n,.o,.t{stroke:#bcbec0;}.a,.b,.i,.l,.r,.s,.t{stroke-miterlimit:10;}.a,.v{stroke-dasharray:1 5;}.b,.e,.o{fill:#fff;}.b{stroke-width:10px;}.c{fill:#939598;}.d{fill:#58595b;}.f,.g,.n,.o,.v{stroke-linecap:round;stroke-linejoin:round;}.f,.g,.v{stroke-width:3px;}.g{stroke-dasharray:0.99 4.96;}.h{fill:#b4d44f;}.i{stroke:#849f3a;}.i,.l{stroke-width:8px;}.j{fill:#657d2b;}.k{fill:#fbef4b;}.l,.v{stroke:#b4ae39;}.m{fill:#807d24;}.n{fill:#e6e7e8;}.n,.o{stroke-width:2.51px;stroke-dasharray:0.84 4.19;}.p{fill:#231f20;}.q{fill:#2865b0;}.r{stroke:#253979;}.r,.s,.t{stroke-width:2.09px;}.s{stroke:#72c6ef;}.u{fill:#579577;}.w{fill:#f9f294;}</style></defs><title>answers</title><rect class="a" x="758" y="-228.5" width="183.3" height="754.2" rx="22" ry="22" transform="translate(998.2 -701) rotate(90)"/><rect class="b" x="482.5" y="67" width="734.2" height="163.29" rx="12" ry="12"/><path class="c" d="M789.9 82.7h1.6l-2 10.3h5.6l-.3 1.3h-7.2zM799.4 85.7h3.7l-1.5 7.6h2.9l-.2 1.1h-7.1l.2-1.1h2.9l1.3-6.5h-2.2zm2.9-3.4h1.4l-.4 1.8h-1.3zM814.6 89l-1.1 5.4h-1.4l1.1-5.4a4.5 4.5 0 0 0 .1-.9 1.3 1.3 0 0 0-.4-1 1.5 1.5 0 0 0-1-.3 2.2 2.2 0 0 0-1.7.7 4 4 0 0 0-1 2l-1 4.9h-1.4l1.7-8.7h1.4l-.1 1.3a4.3 4.3 0 0 1 1.3-1.1 2.9 2.9 0 0 1 1.4-.4 2.4 2.4 0 0 1 1.7.6 2.1 2.1 0 0 1 .6 1.6 5.5 5.5 0 0 1 0 .6v.7zM823.4 94l-1.6.5-1.6.2a3.7 3.7 0 0 1-2.6-.9 3.4 3.4 0 0 1-.9-2.5 6.4 6.4 0 0 1 .5-2.4 6.1 6.1 0 0 1 1.3-2 4.6 4.6 0 0 1 1.4-1 4 4 0 0 1 1.6-.4 3.1 3.1 0 0 1 2.3.9 3.3 3.3 0 0 1 .9 2.4v1.7h-6.3v.5a3.2 3.2 0 0 0 0 .4 2.2 2.2 0 0 0 .6 1.7 2.5 2.5 0 0 0 1.8.6l1.5-.2 1.7-.7zm-.2-4.7v-.6a2 2 0 0 0-.5-1.5 1.9 1.9 0 0 0-1.4-.5 2.6 2.6 0 0 0-1.8.7 3.9 3.9 0 0 0-1.1 1.9h4.7zM833.9 86l-.3 1.4-1.2-.5-1.2-.2a2.9 2.9 0 0 0-1.7.4 1.3 1.3 0 0 0-.6 1.1q0 .8 1.7 1.2h.7a2.8 2.8 0 0 1 1.4.7 1.7 1.7 0 0 1 .5 1.2 2.8 2.8 0 0 1-1.1 2.3 4.7 4.7 0 0 1-3 .9h-1.3l-1.5-.4.3-1.5 1.4.6 1.3.2a2.9 2.9 0 0 0 1.7-.5 1.4 1.4 0 0 0 .7-1.2q0-.8-1.5-1.2h-.7a3 3 0 0 1-1.5-.8 1.8 1.8 0 0 1-.5-1.3 2.5 2.5 0 0 1 1-2.1 4.5 4.5 0 0 1 2.8-.8h1.3zM850.4 85.4a3.1 3.1 0 0 1 2.3.8 3.4 3.4 0 0 1 .8 2.4 7.4 7.4 0 0 1-.3 2.1 6.9 6.9 0 0 1-.9 1.9 4.1 4.1 0 0 1-1.5 1.4 4.3 4.3 0 0 1-2 .5 2.9 2.9 0 0 1-2.2-.9 3.5 3.5 0 0 1-.8-2.4 7.2 7.2 0 0 1 .3-2.1 7.4 7.4 0 0 1 .9-1.9 4.2 4.2 0 0 1 1.5-1.4 4 4 0 0 1 1.9-.4zm-.1 1.2a2.5 2.5 0 0 0-2.1 1.3 6.2 6.2 0 0 0-.9 3.4 2.3 2.3 0 0 0 .4 1.5 1.6 1.6 0 0 0 1.3.5 2.5 2.5 0 0 0 2.1-1.3 6.2 6.2 0 0 0 .9-3.4 2.3 2.3 0 0 0-.4-1.5 1.6 1.6 0 0 0-1.4-.4zM864.1 82.3l-.2 1.2h-1.6a1.7 1.7 0 0 0-1.1.3 1.9 1.9 0 0 0-.5 1.1l-.2.8h3l-.2 1.1h-3l-1.5 7.6h-1.4l1.5-7.6h-2.3l.2-1.1h2.2v-.6a3.7 3.7 0 0 1 1.1-2.2 3.3 3.3 0 0 1 2.2-.6h1.7zM881 94l-1.2.5-1.4.2a3.6 3.6 0 0 1-2.6-.9 3.5 3.5 0 0 1-.9-2.6 6.5 6.5 0 0 1 .4-2.3 5.6 5.6 0 0 1 1.1-1.9 4.9 4.9 0 0 1 1.6-1.2 4.7 4.7 0 0 1 1.9-.4l1.3.2 1.3.5-.3 1.4-1.1-.7-1.2-.2a3.2 3.2 0 0 0-1.5.3 3.1 3.1 0 0 0-1.1 1 5.2 5.2 0 0 0-.7 1.5 5.7 5.7 0 0 0-.2 1.6 2.4 2.4 0 0 0 .5 1.7 2.1 2.1 0 0 0 1.6.6l1.4-.2 1.3-.7zM888.9 85.4a3.1 3.1 0 0 1 2.3.8 3.4 3.4 0 0 1 .8 2.4 7.4 7.4 0 0 1-.3 2.1 6.9 6.9 0 0 1-.9 1.9 4.1 4.1 0 0 1-1.5 1.4 4.3 4.3 0 0 1-2 .5 2.9 2.9 0 0 1-2.2-.9 3.5 3.5 0 0 1-.8-2.4 7.2 7.2 0 0 1 .3-2.1 7.4 7.4 0 0 1 .9-1.9 4.2 4.2 0 0 1 1.5-1.4 4 4 0 0 1 1.9-.4zm-.1 1.2a2.5 2.5 0 0 0-2.1 1.3 6.2 6.2 0 0 0-.9 3.4 2.3 2.3 0 0 0 .4 1.5 1.6 1.6 0 0 0 1.3.5 2.5 2.5 0 0 0 2.1-1.3 6.2 6.2 0 0 0 .9-3.4 2.3 2.3 0 0 0-.4-1.5 1.6 1.6 0 0 0-1.3-.4zM900.4 86.8l.9-4.5h1.4l-2.4 12.2h-1.4l.2-1.1a3.5 3.5 0 0 1-1.2 1 3 3 0 0 1-1.4.3 2.5 2.5 0 0 1-2-.8 3.4 3.4 0 0 1-.7-2.3 8.4 8.4 0 0 1 .3-2.2 7.2 7.2 0 0 1 .9-2 4.2 4.2 0 0 1 1.4-1.4 3.4 3.4 0 0 1 1.8-.5 2.5 2.5 0 0 1 1.3.3 2.3 2.3 0 0 1 .9 1zm-2.1-.1a2.2 2.2 0 0 0-1.2.3 2.7 2.7 0 0 0-.9 1 6.4 6.4 0 0 0-.6 1.6 7.8 7.8 0 0 0-.2 1.8 2.4 2.4 0 0 0 .4 1.5 1.4 1.4 0 0 0 1.2.5 2.1 2.1 0 0 0 1.2-.4 2.8 2.8 0 0 0 .9-1 6.2 6.2 0 0 0 .6-1.6 7.6 7.6 0 0 0 .2-1.8 2.3 2.3 0 0 0-.4-1.5 1.5 1.5 0 0 0-1.2-.4zM910.1 94l-1.6.5-1.6.2a3.7 3.7 0 0 1-2.6-.9 3.4 3.4 0 0 1-.9-2.5 6.4 6.4 0 0 1 .5-2.4 6.1 6.1 0 0 1 1.3-2 4.6 4.6 0 0 1 1.4-1 4 4 0 0 1 1.6-.4 3.1 3.1 0 0 1 2.3.9 3.3 3.3 0 0 1 .9 2.4v1.7h-6.3v.5a3.2 3.2 0 0 0 0 .4 2.2 2.2 0 0 0 .6 1.7 2.5 2.5 0 0 0 1.8.6l1.5-.2 1.7-.7zm-.2-4.7v-.6a2 2 0 0 0-.5-1.5 1.9 1.9 0 0 0-1.4-.5 2.6 2.6 0 0 0-1.8.7 3.9 3.9 0 0 0-1.1 1.9h4.7z"/><path class="d" d="M566.3 116.2h2.6v-7.6l-2.4.6v-2.1l2.4-.6h2.2v9.6h2.6v2h-7.4v-2zM708.2 116.2h4.9v2h-7.4v-2l1.3-1.3 2.7-2.9a5.9 5.9 0 0 0 .8-1.2 2.3 2.3 0 0 0 .3-1 1.5 1.5 0 0 0-.5-1.2 1.9 1.9 0 0 0-1.3-.4l-1.4.2-1.6.7v-2.1l1.6-.5 1.5-.2a4.5 4.5 0 0 1 2.9.9 2.9 2.9 0 0 1 1.1 2.4 3.6 3.6 0 0 1-.2 1.3 5.5 5.5 0 0 1-.8 1.3l-2.3 2.4zM849.1 113h-1.2v-2h1.2a2.3 2.3 0 0 0 1.3-.3 1.1 1.1 0 0 0 .5-1 1.2 1.2 0 0 0-.5-1 2.1 2.1 0 0 0-1.3-.4l-1.4.2-1.6.5v-2.1l1.6-.4h1.5a4.6 4.6 0 0 1 2.9.8 2.7 2.7 0 0 1 1 2.2 2.4 2.4 0 0 1-.6 1.7 2.9 2.9 0 0 1-1.7.9 3.1 3.1 0 0 1 1.9 1 3.1 3.1 0 0 1 .7 2 3.2 3.2 0 0 1-1.1 2.6 4.9 4.9 0 0 1-3.2.9h-1.7l-1.6-.4v-2.1l1.6.6 1.8.2a2.3 2.3 0 0 0 1.5-.4 1.4 1.4 0 0 0 .5-1.2 1.8 1.8 0 0 0-.5-1.4 2.2 2.2 0 0 0-1.6-.9zM990 106.5h2.4v7.2h1.3v2h-1.3v2.5h-2.2v-2.5h-4.6v-2.2zm.2 2.6l-2.9 4.6h2.9v-4.6zM1126.3 106.5h6.3v2h-4.5v2.2l.6-.2h.7a3.8 3.8 0 0 1 2.8 1.1 3.9 3.9 0 0 1 1.1 2.8 3.7 3.7 0 0 1-1.2 2.9 4.5 4.5 0 0 1-3.2 1.1h-1.5l-1.6-.4v-2.1l1.3.5 1.4.2a2.9 2.9 0 0 0 1.9-.5 2.1 2.1 0 0 0 0-3 2.5 2.5 0 0 0-1.7-.6l-1.2.2-1.3.5v-6.5z"/><path class="e" d="M627.1 236.1v-96.4a12 12 0 0 0-12-12h-91a12 12 0 0 0-12 12v96.4"/><path class="f" d="M627.1 236.1v-.5"/><path class="g" d="M627.1 230.6v-90.9a12 12 0 0 0-12-12h-91a12 12 0 0 0-12 12v93.4"/><path class="f" d="M512.1 235.6v.5"/><path class="e" d="M1187.1 236.1v-96.4a12 12 0 0 0-12-12h-91a12 12 0 0 0-12 12v96.4"/><path class="f" d="M1187.1 236.1v-.5"/><path class="g" d="M1187.1 230.6v-90.9a12 12 0 0 0-12-12h-91a12 12 0 0 0-12 12v93.4"/><path class="f" d="M1072.1 235.6v.5"/><path class="e" d="M1047.1 236.1v-96.4a12 12 0 0 0-12-12h-91a12 12 0 0 0-12 12v96.4"/><path class="f" d="M1047.1 236.1v-.5"/><path class="g" d="M1047.1 230.6v-90.9a12 12 0 0 0-12-12h-91a12 12 0 0 0-12 12v93.4"/><path class="f" d="M932.1 235.6v.5"/><path class="e" d="M907.1 236.1v-96.4a12 12 0 0 0-12-12h-91a12 12 0 0 0-12 12v96.4"/><path class="f" d="M907.1 236.1v-.5"/><path class="g" d="M907.1 230.6v-90.9a12 12 0 0 0-12-12h-91a12 12 0 0 0-12 12v93.4"/><path class="f" d="M792.1 235.6v.5"/><path class="e" d="M767.1 236.1v-96.4a12 12 0 0 0-12-12h-91a12 12 0 0 0-12 12v96.4"/><path class="f" d="M767.1 236.1v-.5"/><path class="g" d="M767.1 230.6v-90.9a12 12 0 0 0-12-12h-91a12 12 0 0 0-12 12v93.4"/><path class="f" d="M652.1 235.6v.5"/><rect class="h" x="1072.1" y="127.4" width="115" height="115" rx="12" ry="12"/><rect class="i" x="1082.1" y="137.4" width="95" height="95" rx="2" ry="2" transform="translate(1314.5 -944.7) rotate(90)"/><path class="j" d="M1119.1 173.9a5.9 5.9 0 0 1-2.4-1.4 2.9 2.9 0 0 1-.6-2 3.2 3.2 0 0 1 1-2.5 4 4 0 0 1 2.8-.9l1.6.2 1.6.5v2.3l-1.5-.8-1.5-.3a2.1 2.1 0 0 0-1.3.3 1.1 1.1 0 0 0-.4 1 1.1 1.1 0 0 0 .3.8l1.4.7 1 .4a4.5 4.5 0 0 1 2.1 1.4 3.4 3.4 0 0 1 .7 2.1 3.2 3.2 0 0 1-1 2.6 4.8 4.8 0 0 1-3.2.9l-1.7-.2-1.7-.6v-2.4a7.8 7.8 0 0 0 1.8 1 4.9 4.9 0 0 0 1.7.3 2 2 0 0 0 1.3-.4 1.3 1.3 0 0 0 .5-1.1 1.4 1.4 0 0 0-.3-.9 2.1 2.1 0 0 0-.9-.6zM1133.4 178.6l-1.6.5-1.7.2a4.5 4.5 0 0 1-3.4-1.2 4.6 4.6 0 0 1-1.2-3.4 4.9 4.9 0 0 1 1.1-3.4 4.4 4.4 0 0 1 6.1-.1 4.6 4.6 0 0 1 1.1 3.2v.9h-5.9a1.9 1.9 0 0 0 .6 1.5 2.7 2.7 0 0 0 1.8.5l1.6-.2 1.6-.7v2.1zm-1.9-4.9a2 2 0 0 0-.5-1.4 1.8 1.8 0 0 0-1.3-.5 1.7 1.7 0 0 0-1.3.5 2.2 2.2 0 0 0-.6 1.4h3.6zM1139.8 167.8v2.5h3v1.8h-3v4.1a1.1 1.1 0 0 0 .3.8 1.4 1.4 0 0 0 .9.3h1.8v1.7h-1.9a4.1 4.1 0 0 1-2.7-.6 3.1 3.1 0 0 1-.7-2.3v-4h-2.2v-1.8h2.2v-2.5h2.3zM1095.9 196.3l2.1-9.7h2.3l-2.8 11.7h-3.2l-2.8-11.7h2.3zM1109.4 193.3v5h-2.3v-1a2.8 2.8 0 0 1-1.1.9 3.7 3.7 0 0 1-3.8-.5 2.9 2.9 0 0 1-.8-2.2 2.6 2.6 0 0 1 1-2.3 5.2 5.2 0 0 1 3.1-.7h1.6v-.4a1 1 0 0 0-.4-.8 2 2 0 0 0-1.2-.3l-1.6.2-1.6.7v-2l1.5-.5h1.7a4.2 4.2 0 0 1 3 .9 4.4 4.4 0 0 1 .9 3zm-3.2.9a3.5 3.5 0 0 0-1.8.3 1.2 1.2 0 0 0-.5 1.1 1.2 1.2 0 0 0 1.3 1.3 1.6 1.6 0 0 0 1.4-.7 3.2 3.2 0 0 0 .5-1.9v-.2h-.9zM1119.3 191.9l-.9-.5-1.1-.2-1.3.3a1.9 1.9 0 0 0-.8.7 2 2 0 0 0-.3.7 8 8 0 0 0-.1 1.3v4h-2.3v-8.7h2.3v1.4a2.5 2.5 0 0 1 1-1.2 3.1 3.1 0 0 1 1.6-.4h.9l.9.3v2.2zM1121.7 189.5h4.5v7h2.8v1.8h-8v-1.8h2.9v-5.2h-2.2v-1.8zm2.2-4.3h2.3v2.7h-2.3v-2.7zM1138.3 193.3v5h-2.3v-1a2.8 2.8 0 0 1-1.1.9 3.7 3.7 0 0 1-3.8-.5 2.9 2.9 0 0 1-.8-2.2 2.6 2.6 0 0 1 1-2.3 5.2 5.2 0 0 1 3.1-.7h1.6v-.4a1 1 0 0 0-.4-.8 2 2 0 0 0-1.2-.3l-1.6.2-1.6.7v-2l1.5-.5h1.7a4.2 4.2 0 0 1 3 .9 4.4 4.4 0 0 1 .9 3zm-3.2.9a3.5 3.5 0 0 0-1.8.3 1.2 1.2 0 0 0-.5 1.1 1.2 1.2 0 0 0 1.3 1.3 1.6 1.6 0 0 0 1.4-.7 3.2 3.2 0 0 0 .5-1.9v-.2h-.9zM1142.7 190.7a3.1 3.1 0 0 1 1-1.1 2.3 2.3 0 0 1 1.3-.4 2.8 2.8 0 0 1 2.4 1.2 5.9 5.9 0 0 1 .8 3.4 5.9 5.9 0 0 1-.8 3.4 2.7 2.7 0 0 1-2.3 1.2 2.5 2.5 0 0 1-1.4-.4 2.7 2.7 0 0 1-.9-1.1v1.3h-2.3v-12.1h2.3v4.6zm3.2 3.2a3.9 3.9 0 0 0-.4-2 1.3 1.3 0 0 0-1.2-.7 1.3 1.3 0 0 0-1.2.7 4.8 4.8 0 0 0 0 4 1.3 1.3 0 0 0 1.2.7 1.3 1.3 0 0 0 1.2-.7 3.9 3.9 0 0 0 .4-2zM1151.9 194.6v-6.7h-2.3v-1.8h4.6v8.5a2.5 2.5 0 0 0 .3 1.5 1.3 1.3 0 0 0 1.1.4h1.8v1.8h-2.5a2.9 2.9 0 0 1-2.3-.8 4.4 4.4 0 0 1-.7-2.9zM1167.1 197.8l-1.6.5-1.7.2a4.5 4.5 0 0 1-3.4-1.2 4.6 4.6 0 0 1-1.2-3.4 4.9 4.9 0 0 1 1.1-3.4 4.4 4.4 0 0 1 6.1-.1 4.6 4.6 0 0 1 1.1 3.2v.9h-5.9a1.9 1.9 0 0 0 .6 1.5 2.7 2.7 0 0 0 1.8.5l1.6-.2 1.6-.7v2.1zm-1.9-4.9a2 2 0 0 0-.5-1.4 1.8 1.8 0 0 0-1.3-.5 1.7 1.7 0 0 0-1.3.5 2.2 2.2 0 0 0-.6 1.4h3.6z"/><rect class="k" x="512.1" y="127.4" width="115" height="115" rx="12" ry="12"/><rect class="l" x="522.1" y="137.4" width="95" height="95" rx="2" ry="2" transform="translate(754.5 -384.7) rotate(90)"/><path class="m" d="M551 167.4h2.8l1.4 5.1 1.4-5.1h2.8v11.6h-2v-9.3l-1.2 5.1h-1.8l-1.2-5.1v9.3h-2v-11.6zM560.7 174.7a4.9 4.9 0 0 1 1.1-3.4 4.1 4.1 0 0 1 5.9 0 5.7 5.7 0 0 1 0 6.7 4.1 4.1 0 0 1-5.9 0 4.9 4.9 0 0 1-1.1-3.3zm4-2.7a1.5 1.5 0 0 0-1.3.7 4.6 4.6 0 0 0 0 4 1.5 1.5 0 0 0 2.6 0 4.6 4.6 0 0 0 0-4 1.5 1.5 0 0 0-1.2-.8zM578.6 170.3l-2.8 8.8h-2.8l-2.8-8.7h2.3l1.9 6.8 1.9-6.8h2.3zM587.8 178.6l-1.6.5-1.7.2a4.5 4.5 0 0 1-3.4-1.2 4.6 4.6 0 0 1-1.2-3.4 4.9 4.9 0 0 1 1.1-3.4 4.4 4.4 0 0 1 6.1-.1 4.6 4.6 0 0 1 1.1 3.2v.9h-5.9a1.9 1.9 0 0 0 .6 1.5 2.7 2.7 0 0 0 1.8.5l1.6-.2 1.6-.7v2.1zm-1.9-4.9a2 2 0 0 0-.5-1.4 1.8 1.8 0 0 0-1.3-.5 1.7 1.7 0 0 0-1.3.5 2.2 2.2 0 0 0-.6 1.4h3.6zM541.7 188.7v.8h2.7v1.8h-2.7v7h-2.3v-7h-2.1v-1.8h2.1v-.6a2.9 2.9 0 0 1 .7-2.2 3.6 3.6 0 0 1 2.4-.6h1.9v1.8h-1.8l-.7.2a1 1 0 0 0-.2.6zM546.3 193.9a4.9 4.9 0 0 1 1.1-3.4 4.1 4.1 0 0 1 5.9 0 5.7 5.7 0 0 1 0 6.7 4.1 4.1 0 0 1-5.9 0 4.9 4.9 0 0 1-1.1-3.3zm4-2.7a1.5 1.5 0 0 0-1.3.7 4.6 4.6 0 0 0 0 4 1.5 1.5 0 0 0 2.6 0 4.6 4.6 0 0 0 0-4 1.5 1.5 0 0 0-1.3-.8zM564.1 191.9l-.9-.5-1.1-.2-1.3.3a1.9 1.9 0 0 0-.8.7 2 2 0 0 0-.3.7 8 8 0 0 0-.1 1.3v4h-2.3v-8.7h2.3v1.4a2.5 2.5 0 0 1 1-1.2 3.1 3.1 0 0 1 1.6-.4h.9l.9.3v2.2zM564.8 189.5h1.9l1 6.7.9-4.4h1.9l.9 4.4 1.1-6.7h1.9l-1.6 8.8h-2.2l-1.1-4.5-1.1 4.5h-2.2zM583.1 193.3v5h-2.3v-1a2.8 2.8 0 0 1-1.1.9 3.7 3.7 0 0 1-3.8-.5 2.9 2.9 0 0 1-.8-2.2 2.6 2.6 0 0 1 1-2.3 5.2 5.2 0 0 1 3.1-.7h1.6v-.4a1 1 0 0 0-.4-.8 2 2 0 0 0-1.2-.3l-1.6.2-1.6.7v-2l1.5-.5h1.7a4.2 4.2 0 0 1 3 .9 4.4 4.4 0 0 1 .9 3zm-3.2.9a3.5 3.5 0 0 0-1.8.3 1.2 1.2 0 0 0-.5 1.1 1.2 1.2 0 0 0 1.3 1.3 1.6 1.6 0 0 0 1.4-.7 3.2 3.2 0 0 0 .5-1.9v-.2h-.9zM593 191.9l-.9-.5-1.1-.2-1.3.3a1.9 1.9 0 0 0-.8.7 2 2 0 0 0-.3.7 8 8 0 0 0-.1 1.3v4h-2.3v-8.7h2.3v1.4a2.5 2.5 0 0 1 1-1.2 3.1 3.1 0 0 1 1.6-.4h.9l.9.3v2.2zM599.9 190.7v-4.6h2.3v12.2h-2.3v-1.3a2.8 2.8 0 0 1-.9 1.1 2.4 2.4 0 0 1-1.4.4 2.7 2.7 0 0 1-2.3-1.2 5.9 5.9 0 0 1-.8-3.4 5.9 5.9 0 0 1 .8-3.4 2.8 2.8 0 0 1 2.4-1.2 2.3 2.3 0 0 1 1.3.4 3.2 3.2 0 0 1 .9 1zm-3.2 3.2a3.9 3.9 0 0 0 .4 2 1.3 1.3 0 0 0 1.2.7 1.3 1.3 0 0 0 1.2-.7 4.8 4.8 0 0 0 0-4 1.3 1.3 0 0 0-1.2-.7 1.3 1.3 0 0 0-1.2.7 3.9 3.9 0 0 0-.4 2z"/><rect class="k" x="652.1" y="127.4" width="115" height="115" rx="12" ry="12"/><rect class="l" x="662.1" y="137.4" width="95" height="95" rx="2" ry="2" transform="translate(894.5 -524.7) rotate(90)"/><path class="m" d="M691 167.4h2.8l1.4 5.1 1.4-5.1h2.8v11.6h-2v-9.3l-1.2 5.1h-1.8l-1.2-5.1v9.3h-2v-11.6zM700.7 174.7a4.9 4.9 0 0 1 1.1-3.4 4.1 4.1 0 0 1 5.9 0 5.7 5.7 0 0 1 0 6.7 4.1 4.1 0 0 1-5.9 0 4.9 4.9 0 0 1-1.1-3.3zm4-2.7a1.5 1.5 0 0 0-1.3.7 4.6 4.6 0 0 0 0 4 1.5 1.5 0 0 0 2.6 0 4.6 4.6 0 0 0 0-4 1.5 1.5 0 0 0-1.2-.8zM718.6 170.3l-2.8 8.8h-2.8l-2.8-8.7h2.3l1.9 6.8 1.9-6.8h2.3zM727.8 178.6l-1.6.5-1.7.2a4.5 4.5 0 0 1-3.4-1.2 4.6 4.6 0 0 1-1.2-3.4 4.9 4.9 0 0 1 1.1-3.4 4.4 4.4 0 0 1 6.1-.1 4.6 4.6 0 0 1 1.1 3.2v.9h-5.9a1.9 1.9 0 0 0 .6 1.5 2.7 2.7 0 0 0 1.8.5l1.6-.2 1.6-.7v2.1zm-1.9-4.9a2 2 0 0 0-.5-1.4 1.8 1.8 0 0 0-1.3-.5 1.7 1.7 0 0 0-1.3.5 2.2 2.2 0 0 0-.6 1.4h3.6zM681.7 188.7v.8h2.7v1.8h-2.7v7h-2.3v-7h-2.1v-1.8h2.1v-.6a2.9 2.9 0 0 1 .7-2.2 3.6 3.6 0 0 1 2.4-.6h1.9v1.8h-1.8l-.7.2a1 1 0 0 0-.2.6zM686.3 193.9a4.9 4.9 0 0 1 1.1-3.4 4.1 4.1 0 0 1 5.9 0 5.7 5.7 0 0 1 0 6.7 4.1 4.1 0 0 1-5.9 0 4.9 4.9 0 0 1-1.1-3.3zm4-2.7a1.5 1.5 0 0 0-1.3.7 4.6 4.6 0 0 0 0 4 1.5 1.5 0 0 0 2.6 0 4.6 4.6 0 0 0 0-4 1.5 1.5 0 0 0-1.3-.8zM704.1 191.9l-.9-.5-1.1-.2-1.3.3a1.9 1.9 0 0 0-.8.7 2 2 0 0 0-.3.7 8 8 0 0 0-.1 1.3v4h-2.3v-8.7h2.3v1.4a2.5 2.5 0 0 1 1-1.2 3.1 3.1 0 0 1 1.6-.4h.9l.9.3v2.2zM704.8 189.5h1.9l1 6.7.9-4.4h1.9l.9 4.4 1.1-6.7h1.9l-1.6 8.8h-2.2l-1.1-4.5-1.1 4.5h-2.2zM723.1 193.3v5h-2.3v-1a2.8 2.8 0 0 1-1.1.9 3.7 3.7 0 0 1-3.8-.5 2.9 2.9 0 0 1-.8-2.2 2.6 2.6 0 0 1 1-2.3 5.2 5.2 0 0 1 3.1-.7h1.6v-.4a1 1 0 0 0-.4-.8 2 2 0 0 0-1.2-.3l-1.6.2-1.6.7v-2l1.5-.5h1.7a4.2 4.2 0 0 1 3 .9 4.4 4.4 0 0 1 .9 3zm-3.2.9a3.5 3.5 0 0 0-1.8.3 1.2 1.2 0 0 0-.5 1.1 1.2 1.2 0 0 0 1.3 1.3 1.6 1.6 0 0 0 1.4-.7 3.2 3.2 0 0 0 .5-1.9v-.2h-.9zM733 191.9l-.9-.5-1.1-.2-1.3.3a1.9 1.9 0 0 0-.8.7 2 2 0 0 0-.3.7 8 8 0 0 0-.1 1.3v4h-2.3v-8.7h2.3v1.4a2.5 2.5 0 0 1 1-1.2 3.1 3.1 0 0 1 1.6-.4h.9l.9.3v2.2zM739.9 190.7v-4.6h2.3v12.2h-2.3v-1.3a2.8 2.8 0 0 1-.9 1.1 2.4 2.4 0 0 1-1.4.4 2.7 2.7 0 0 1-2.3-1.2 5.9 5.9 0 0 1-.8-3.4 5.9 5.9 0 0 1 .8-3.4 2.8 2.8 0 0 1 2.4-1.2 2.3 2.3 0 0 1 1.3.4 3.2 3.2 0 0 1 .9 1zm-3.2 3.2a3.9 3.9 0 0 0 .4 2 1.3 1.3 0 0 0 1.2.7 1.3 1.3 0 0 0 1.2-.7 4.8 4.8 0 0 0 0-4 1.3 1.3 0 0 0-1.2-.7 1.3 1.3 0 0 0-1.2.7 3.9 3.9 0 0 0-.4 2z"/><rect class="k" x="932.1" y="127.4" width="115" height="115" rx="12" ry="12"/><rect class="l" x="942.1" y="137.4" width="95" height="95" rx="2" ry="2" transform="translate(1174.5 -804.7) rotate(90)"/><path class="m" d="M971 167.4h2.8l1.4 5.1 1.4-5.1h2.8v11.6h-2v-9.3l-1.2 5.1h-1.8l-1.2-5.1v9.3h-2v-11.6zM980.7 174.7a4.9 4.9 0 0 1 1.1-3.4 4.1 4.1 0 0 1 5.9 0 5.7 5.7 0 0 1 0 6.7 4.1 4.1 0 0 1-5.9 0 4.9 4.9 0 0 1-1.1-3.3zm4-2.7a1.5 1.5 0 0 0-1.3.7 4.6 4.6 0 0 0 0 4 1.5 1.5 0 0 0 2.6 0 4.6 4.6 0 0 0 0-4 1.5 1.5 0 0 0-1.2-.8zM998.6 170.3l-2.8 8.8h-2.8l-2.8-8.7h2.3l1.9 6.8 1.9-6.8h2.3zM1007.8 178.6l-1.6.5-1.7.2a4.5 4.5 0 0 1-3.4-1.2 4.6 4.6 0 0 1-1.2-3.4 4.9 4.9 0 0 1 1.1-3.4 4.4 4.4 0 0 1 6.1-.1 4.6 4.6 0 0 1 1.1 3.2v.9h-5.9a1.9 1.9 0 0 0 .6 1.5 2.7 2.7 0 0 0 1.8.5l1.6-.2 1.6-.7v2.1zm-1.9-4.9a2 2 0 0 0-.5-1.4 1.8 1.8 0 0 0-1.3-.5 1.7 1.7 0 0 0-1.3.5 2.2 2.2 0 0 0-.6 1.4h3.6zM961.7 188.7v.8h2.7v1.8h-2.7v7h-2.3v-7h-2.1v-1.8h2.1v-.6a2.9 2.9 0 0 1 .7-2.2 3.6 3.6 0 0 1 2.4-.6h1.9v1.8h-1.8l-.7.2a1 1 0 0 0-.2.6zM966.3 193.9a4.9 4.9 0 0 1 1.1-3.4 4.1 4.1 0 0 1 5.9 0 5.7 5.7 0 0 1 0 6.7 4.1 4.1 0 0 1-5.9 0 4.9 4.9 0 0 1-1.1-3.3zm4-2.7a1.5 1.5 0 0 0-1.3.7 4.6 4.6 0 0 0 0 4 1.5 1.5 0 0 0 2.6 0 4.6 4.6 0 0 0 0-4 1.5 1.5 0 0 0-1.3-.8zM984.1 191.9l-.9-.5-1.1-.2-1.3.3a1.9 1.9 0 0 0-.8.7 2 2 0 0 0-.3.7 8 8 0 0 0-.1 1.3v4h-2.3v-8.7h2.3v1.4a2.5 2.5 0 0 1 1-1.2 3.1 3.1 0 0 1 1.6-.4h.9l.9.3v2.2zM984.8 189.5h1.9l1 6.7.9-4.4h1.9l.9 4.4 1.1-6.7h1.9l-1.6 8.8h-2.2l-1.1-4.5-1.1 4.5h-2.2zM1003.1 193.3v5h-2.3v-1a2.8 2.8 0 0 1-1.1.9 3.7 3.7 0 0 1-3.8-.5 2.9 2.9 0 0 1-.8-2.2 2.6 2.6 0 0 1 1-2.3 5.2 5.2 0 0 1 3.1-.7h1.6v-.4a1 1 0 0 0-.4-.8 2 2 0 0 0-1.2-.3l-1.6.2-1.6.7v-2l1.5-.5h1.7a4.2 4.2 0 0 1 3 .9 4.4 4.4 0 0 1 .9 3zm-3.2.9a3.5 3.5 0 0 0-1.8.3 1.2 1.2 0 0 0-.5 1.1 1.2 1.2 0 0 0 1.3 1.3 1.6 1.6 0 0 0 1.4-.7 3.2 3.2 0 0 0 .5-1.9v-.2h-.9zM1013 191.9l-.9-.5-1.1-.2-1.3.3a1.9 1.9 0 0 0-.8.7 2 2 0 0 0-.3.7 8 8 0 0 0-.1 1.3v4h-2.3v-8.7h2.3v1.4a2.5 2.5 0 0 1 1-1.2 3.1 3.1 0 0 1 1.6-.4h.9l.9.3v2.2zM1019.9 190.7v-4.6h2.3v12.2h-2.3v-1.3a2.8 2.8 0 0 1-.9 1.1 2.4 2.4 0 0 1-1.4.4 2.7 2.7 0 0 1-2.3-1.2 5.9 5.9 0 0 1-.8-3.4 5.9 5.9 0 0 1 .8-3.4 2.8 2.8 0 0 1 2.4-1.2 2.3 2.3 0 0 1 1.3.4 3.2 3.2 0 0 1 .9 1zm-3.2 3.2a3.9 3.9 0 0 0 .4 2 1.3 1.3 0 0 0 1.2.7 1.3 1.3 0 0 0 1.2-.7 4.8 4.8 0 0 0 0-4 1.3 1.3 0 0 0-1.2-.7 1.3 1.3 0 0 0-1.2.7 3.9 3.9 0 0 0-.4 2z"/><path class="n" d="M147 579.2h85.7v85.65h-85.7z"/><path class="o" d="M147 493.6h85.7v85.65h-85.7zM147 407.9h85.7v85.65h-85.7zM147 322.3h85.7v85.65h-85.7zM147 236.6h85.7v85.65h-85.7zM147 151h85.7v85.65h-85.7zM147 65.3h85.7v85.65h-85.7zM318.3 579.2h85.7v85.65h-85.7zM318.3 493.6h85.7v85.65h-85.7zM318.3 407.9h85.7v85.65h-85.7zM318.3 322.3h85.7v85.65h-85.7zM318.3 236.6h85.7v85.65h-85.7zM318.3 151h85.7v85.65h-85.7zM318.3 65.3h85.7v85.65h-85.7zM232.7 65.3h85.7v85.65h-85.7zM232.7 579.2h85.7v85.65h-85.7zM61.4 407.9h85.7v85.65h-85.7z"/><path class="p" d="M172.3 615.9l-.4 1.9-1.5-.8-1.6-.3a3.8 3.8 0 0 0-2.4.7 2.3 2.3 0 0 0-.9 1.9 1.3 1.3 0 0 0 .4 1 4.5 4.5 0 0 0 1.6.8l1.1.4a4.7 4.7 0 0 1 2.2 1.2 2.8 2.8 0 0 1 .7 1.9 4.1 4.1 0 0 1-1.5 3.4 6.2 6.2 0 0 1-4.1 1.2l-1.9-.2-1.8-.6.4-1.9a6.8 6.8 0 0 0 1.8.9 6.1 6.1 0 0 0 1.9.3 3.6 3.6 0 0 0 2.4-.8 2.5 2.5 0 0 0 .9-2 1.6 1.6 0 0 0-.4-1.1 4 4 0 0 0-1.6-.8l-.9-.3a5.8 5.8 0 0 1-2.3-1.2 2.4 2.4 0 0 1-.7-1.8 4.1 4.1 0 0 1 1.5-3.3 5.8 5.8 0 0 1 3.9-1.3l1.5.2zM180.1 615.9l-.6 2.9h3.8l-.3 1.3h-3.8l-1.1 5.5v.5a3.8 3.8 0 0 0 0 .4.9.9 0 0 0 .4.8 2.4 2.4 0 0 0 1.3.2h1.9l-.3 1.3h-2a3.9 3.9 0 0 1-2.2-.5 1.8 1.8 0 0 1-.7-1.6 4.4 4.4 0 0 1 0-.5v-.7l1.1-5.5h-2.7l.3-1.3h2.7l.6-2.9h1.7zM193.9 623.1l-1.1 5.8h-1.7l.3-1.5a4.5 4.5 0 0 1-1.5 1.3 4 4 0 0 1-1.9.5 3.2 3.2 0 0 1-2.2-.8 2.6 2.6 0 0 1-.8-2 3.4 3.4 0 0 1 1.4-2.8 6.1 6.1 0 0 1 3.8-1.1h2.2v-1a1.4 1.4 0 0 0-.6-1.2 2.8 2.8 0 0 0-1.6-.4l-1.7.2-1.9.7.3-1.6 1.9-.5 1.7-.2a4.1 4.1 0 0 1 2.6.7 2.5 2.5 0 0 1 .9 2.1 7 7 0 0 1-.1.8zm-3.4.7h-1.6l-.9.2a2.1 2.1 0 0 0-1 .8 2.2 2.2 0 0 0-.4 1.2 1.6 1.6 0 0 0 .5 1.2 1.7 1.7 0 0 0 1.3.4 3.2 3.2 0 0 0 2.3-1 5 5 0 0 0 1.3-2.6v-.4h-1.6zM206.1 620.9l-.9-.6-1.2-.2a3.5 3.5 0 0 0-2.5 1 5.2 5.2 0 0 0-1.5 2.9l-1 5h-1.7l2-10.1h1.7l-.4 2a4.3 4.3 0 0 1 1.6-1.7 4.2 4.2 0 0 1 2.2-.6l1.2.2.9.5zM213.5 615.9l-.6 2.9h3.8l-.3 1.3h-3.8l-1.1 5.5v.5a3.6 3.6 0 0 0 0 .4.9.9 0 0 0 .4.8 2.4 2.4 0 0 0 1.3.2h1.8l-.3 1.3h-2a3.9 3.9 0 0 1-2.2-.5 1.8 1.8 0 0 1-.7-1.6 4.8 4.8 0 0 1 0-.5v-.7l1.1-5.5h-2.7l.3-1.3h2.7l.6-2.9h1.7z"/><path class="q" d="M383.5 445.6h-45.5a1 1 0 1 1 0-2.1h45.5a1 1 0 1 1 0 2.1zM385.4 444.5a1 1 0 0 0-.1-.6l-8.1-14.9h-31.8l-8.3 14.8v.2a1 1 0 0 0 .1 1.2l23.3 27.5h1.6l23.3-27.5a1 1 0 0 0 0-.7zm-24.3 26l-22-26 7.8-13.9h28.7l7.6 13.8zM351.7 444.7h-.4a1 1 0 0 1-.5-1.4l6.2-13.7a1 1 0 1 1 1.9.9l-6.2 13.7a1 1 0 0 1-1 .5zM370.9 444.7a1 1 0 0 1-1-.6l-6.2-13.8a1 1 0 1 1 1.9-.9l6.2 13.8a1 1 0 0 1-.5 1.4h-.4zM371.3 444.3a1 1 0 0 0-1.3.6c-1.3 3.6-2.7 7.1-4 10.6s-3.3 8.4-4.7 12.6l-8.5-23.2a1 1 0 0 0-2 .7l9.1 24.9a13.5 13.5 0 0 0 1.3 1.1h.3a1 1 0 0 0 1-.7c1.6-4.9 3.5-9.6 5.5-14.7 1.4-3.5 2.8-7.1 4.1-10.6a1 1 0 0 0-.8-1.3zM383.5 531.3h-45.5a1 1 0 1 1 0-2.1h45.5a1 1 0 1 1 0 2.1zM385.4 530.1a1 1 0 0 0-.1-.6l-8.1-14.9h-31.8l-8.3 14.8v.2a1 1 0 0 0 .1 1.2l23.3 27.5h1.6l23.3-27.5a1 1 0 0 0 0-.7zm-24.3 26l-22-26 7.8-13.9h28.7l7.6 13.8zM351.7 530.3h-.4a1 1 0 0 1-.5-1.4l6.2-13.7a1 1 0 1 1 1.9.9l-6.2 13.7a1 1 0 0 1-1 .5zM370.9 530.3a1 1 0 0 1-1-.6l-6.2-13.8a1 1 0 1 1 1.9-.9l6.2 13.8a1 1 0 0 1-.5 1.4h-.4zM371.3 530a1 1 0 0 0-1.3.6c-1.3 3.6-2.7 7.1-4 10.6s-3.3 8.4-4.7 12.6l-8.5-23.2a1 1 0 0 0-2 .7l9.1 24.9a13.5 13.5 0 0 0 1.3 1.1h.3a1 1 0 0 0 1-.7c1.6-4.9 3.5-9.6 5.5-14.7 1.4-3.5 2.8-7.1 4.1-10.6a1 1 0 0 0-.8-1.3zM383.5 616.9h-45.5a1 1 0 1 1 0-2.1h45.5a1 1 0 1 1 0 2.1zM385.4 615.8a1 1 0 0 0-.1-.6l-8.1-14.9h-31.8l-8.3 14.7v.2a1 1 0 0 0 .1 1.2l23.1 27.6h1.6l23.3-27.5a1 1 0 0 0 .2-.7zm-24.3 26l-22-26 7.8-13.9h28.7l7.6 13.8zM351.7 616h-.4a1 1 0 0 1-.5-1.4l6.2-13.7a1 1 0 1 1 1.9.9l-6.2 13.7a1 1 0 0 1-1 .5zM370.9 616a1 1 0 0 1-1-.6l-6.2-13.8a1 1 0 1 1 1.9-.9l6.2 13.8a1 1 0 0 1-.5 1.4h-.4zM371.3 615.6a1 1 0 0 0-1.3.6c-1.3 3.6-2.7 7.1-4 10.6s-3.3 8.4-4.7 12.6l-8.5-23.2a1 1 0 0 0-2 .7l9.1 24.9a13.5 13.5 0 0 0 1.3 1.1h.3a1 1 0 0 0 1-.7c1.6-4.9 3.5-9.6 5.5-14.7 1.4-3.5 2.8-7.1 4.1-10.6a1 1 0 0 0-.8-1.3zM383.5 360h-45.5a1 1 0 1 1 0-2.1h45.5a1 1 0 1 1 0 2.1zM385.4 358.8a1 1 0 0 0-.1-.6l-8.1-14.9h-31.8l-8.3 14.8v.2a1 1 0 0 0 .1 1.2l23.3 27.5h1.6l23.3-27.5a1 1 0 0 0 0-.7zm-24.3 26l-22-26 7.8-13.9h28.7l7.6 13.8zM351.7 359h-.4a1 1 0 0 1-.5-1.4l6.2-13.7a1 1 0 1 1 1.9.9l-6.2 13.7a1 1 0 0 1-1 .5zM370.9 359a1 1 0 0 1-1-.6l-6.2-13.8a1 1 0 1 1 1.9-.9l6.2 13.8a1 1 0 0 1-.5 1.4h-.4zM371.3 358.7a1 1 0 0 0-1.3.6c-1.3 3.6-2.7 7.1-4 10.6s-3.3 8.4-4.7 12.6l-8.5-23.2a1 1 0 0 0-2 .7l9.1 24.9a13.5 13.5 0 0 0 1.3 1.1h.3a1 1 0 0 0 1-.7c1.6-4.9 3.5-9.6 5.5-14.7 1.4-3.5 2.8-7.1 4.1-10.6a1 1 0 0 0-.8-1.3z"/><path class="r" d="M88.1 465.7l-12.8-14.9 12.8-15h32.2l12.8 15-12.8 14.9h-32.2zM79.1 455.2l8.9-10.1"/><path class="s" d="M173.8 380l-12.9-14.9 12.9-14.9h32.1l12.9 14.9-12.9 14.9h-32.1zM200.4 361.2h14.6"/><path class="t" d="M210.6 195.1l-8.9-10.1"/><path class="t" d="M173.8 208.7l-12.9-14.9 12.9-14.9h32.1l12.9 14.9-12.9 14.9h-32.1z"/><path class="u" d="M361.1 169.9a23.9 23.9 0 1 0 23.9 23.9 24 24 0 0 0-23.9-23.9zm13.4 23.3l-3.5-8.3 5.5-5.5a21 21 0 0 1 5.7 13.9h-7.8zm-22.4 10.6l8.3 3.5v7.9a21.3 21.3 0 0 1-13.9-5.7zm9.7 3.5l8.3-3.5 5.5 5.5a21 21 0 0 1-13.9 5.7v-7.8zm8-4.7l-8.7 3.6-8.7-3.6-3.6-8.7 3.6-8.7 8.7-3.6 8.7 3.6 3.6 8.7zm.3-18.6l-8.3-3.5v-7.9a21.3 21.3 0 0 1 13.9 5.7zm-9.6-3.5l-8.3 3.5-5.6-5.5a21 21 0 0 1 13.9-5.7v7.8h.1zm-14.8-1.2l5.5 5.5-3.5 8.3h-7.9a21.2 21.2 0 0 1 5.9-13.8zm-5.8 15.3h7.9l3.5 8.3-5.5 5.5a21.2 21.2 0 0 1-5.9-13.9zm36.7 13.9l-5.5-5.6 3.5-8.3h7.9a21.2 21.2 0 0 1-5.9 13.8z"/><path class="p" d="M404 65.3v599.6h-257v-171.3h-85.6v-85.7h85.6v-342.6h257m-171.3 513.9h85.7v-428.2h-85.7v428.2m179.6-522.2h-273.7v342.6h-85.6v102.4h85.7v171.3h273.6v-616.3zm-171.3 102.4h68.9v411.5h-68.9v-411.5z"/><rect class="k" x="792.1" y="127.4" width="115" height="115" rx="12" ry="12"/><rect class="l" x="802.1" y="137.4" width="95" height="95" rx="2" ry="2" transform="translate(1034.5 -664.7) rotate(90)"/><path class="m" d="M836.3 165.4h-2.3v-9.6h-3v-2h8.2v2h-3v9.6zM841.2 162.3v-5.7h2.3v5.4a2.6 2.6 0 0 0 .3 1.4 1 1 0 0 0 .9.4 1.1 1.1 0 0 0 1-.5 2.9 2.9 0 0 0 .3-1.5v-5h2.3v8.8h-2.3v-1.3a2.1 2.1 0 0 1-.8 1.1 2.4 2.4 0 0 1-1.4.4 2.2 2.2 0 0 1-1.9-.8 4 4 0 0 1-.7-2.7zM858.6 159l-.9-.5-1.1-.2-1.3.3a1.9 1.9 0 0 0-.8.7 2 2 0 0 0-.3.7 8 8 0 0 0-.1 1.3v4h-2.3v-8.7h2.3v1.4a2.5 2.5 0 0 1 1-1.2 3.1 3.1 0 0 1 1.6-.4h.9l.9.3v2.3zM867.6 159.7v5.7h-2.3v-5.3a2.6 2.6 0 0 0-.3-1.4 1 1 0 0 0-.9-.4 1.1 1.1 0 0 0-1 .6 2.8 2.8 0 0 0-.4 1.5v5h-2.3v-8.7h2.3v1.3a2.1 2.1 0 0 1 .8-1.1 2.5 2.5 0 0 1 1.4-.4 2.2 2.2 0 0 1 1.9.8 4 4 0 0 1 .8 2.4z"/><rect class="v" x="812.9" y="180.2" width="73.4" height="40.91" rx="7.3" ry="7.3"/><path class="m" d="M829.6 194.9h1.5l1.5 7.2 1.4-7.2h1.1l-1.7 8.7h-1.4l-1.5-7.2-1.4 7.2h-1.1zM836 201.1l.8-4.1h1.1l-.8 4.1v.8a.9.9 0 0 0 .3.7 1.1 1.1 0 0 0 .8.2 1.7 1.7 0 0 0 1.3-.5 3 3 0 0 0 .7-1.5l.7-3.7h1.1l-1.3 6.6h-1.1l.2-1a3 3 0 0 1-.9.9 2.3 2.3 0 0 1-1.1.3 1.7 1.7 0 0 1-1.2-.4 1.6 1.6 0 0 1-.4-1.2v-1.1zM846.8 197.7a1.6 1.6 0 0 1 .6-.6l.8-.2a1.1 1.1 0 0 1 .8.3 1.2 1.2 0 0 1 .3.9 5.5 5.5 0 0 1-.1.7l-.2 1-.7 3.8h-1l.7-3.8.2-.9v-.5a.8.8 0 0 0-.1-.5l-.4-.2a.8.8 0 0 0-.7.4 5.6 5.6 0 0 0-.5 1.7l-.7 3.8h-1l.7-3.8.2-.9v-.5a.8.8 0 0 0-.1-.5l-.4-.2a.8.8 0 0 0-.7.3 5.7 5.7 0 0 0-.5 1.7l-.7 3.8h-1l1.3-6.6h1v.6l.6-.5.7-.2.7.2a.9.9 0 0 1 .2.7zM852.2 197.9a2.5 2.5 0 0 1 .8-.7l1.1-.3a1.9 1.9 0 0 1 1.5.6 2.5 2.5 0 0 1 .5 1.7 6.2 6.2 0 0 1-.2 1.7 5.2 5.2 0 0 1-.7 1.5 3.3 3.3 0 0 1-1.1 1 2.7 2.7 0 0 1-1.4.4 1.7 1.7 0 0 1-1-.3 1.5 1.5 0 0 1-.6-.7l-.2.8h-.9l1.8-9.1h1.1zm.6 5l.9-.3a2.1 2.1 0 0 0 .7-.8 5.8 5.8 0 0 0 .6-2.5 1.8 1.8 0 0 0-.3-1.1 1.1 1.1 0 0 0-.9-.4l-.9.3a2.3 2.3 0 0 0-.7.8 4.8 4.8 0 0 0-.5 1.2 5.5 5.5 0 0 0-.2 1.3 1.7 1.7 0 0 0 .3 1.1 1.1 1.1 0 0 0 1 .4zM862.5 203.3l-1.2.4h-1.2a2.8 2.8 0 0 1-2-.7 2.5 2.5 0 0 1-.7-1.9 4.8 4.8 0 0 1 .4-1.8 4.6 4.6 0 0 1 1-1.5 3.5 3.5 0 0 1 1.1-.8l1.2-.3a2.3 2.3 0 0 1 1.7.7 2.5 2.5 0 0 1 .7 1.8v1.3h-4.7v.6a1.6 1.6 0 0 0 .5 1.2 1.8 1.8 0 0 0 1.3.4l1.1-.2 1.3-.5zm-.1-3.5v-.5a1.5 1.5 0 0 0-.4-1.1 1.4 1.4 0 0 0-1.1-.4 1.9 1.9 0 0 0-1.3.5 2.9 2.9 0 0 0-.9 1.4h3.6zM871 198.4l-.6-.4h-.8a2.3 2.3 0 0 0-1.6.7 3.4 3.4 0 0 0-.9 1.8l-.6 3.2h-1.1l1.3-6.6h1.1l-.2 1.3a2.8 2.8 0 0 1 1-1.1 2.7 2.7 0 0 1 1.4-.4h.8l.6.3z"/><path class="w" d="M819.8 221.8c1.8 0 1.9-2.6 0-6.6 1.7-2 1.7-4.3 1.2-6.7s-.5-2.5-.8-3.8a19.6 19.6 0 0 1-.5-3.9c2.3-1.8 5.7-3.5 2-5.2s-5.2-3.3-2-4.9c1.1-1.6 4.2-3-1.8-4.3 8.8-1.3-4.9-2.5 1.8-3.5 11.8-2-1.7-3.1 0-3.1h59.1c12.3 0 4.8.6 1 1.8-.5.6-7.4 1.3-5.6 2.1-.9.8 13.8 1.7 4.6 2.7s7.9 2-.7 3.2c8.3 1.1-2.9 2.3.7 3.5-13.1 1.3-2.8 2.5 1.2 3.8s.3 2.6-1.2 3.9-3.2 2.6-3.6 3.9a5.4 5.4 0 0 0 .4 3.8c1.1 2.5 3.2 4.8 3.2 6.7 1.5 3.9-5.4 6.6 0 6.6h-59z"/><path class="p" d="M840.7 192.8l.8-.8 1.4-1.5 1.8-1.8 1.9-1.7 1.8-1.3a2.8 2.8 0 0 1 1.4-.5 4 4 0 0 1 1.8.5 7 7 0 0 1 1.7 1.2 6.9 6.9 0 0 1 1.3 1.8 4.2 4.2 0 0 1 .5 2v6.7q0 2.4 0 5t-.1 4.9q-.1 2.2-.3 3.8a4.1 4.1 0 0 1-.5 1.9 2.3 2.3 0 0 1-1.7.3 9.4 9.4 0 0 1-2.4-.5 8.4 8.4 0 0 1-2.2-1.2 2.6 2.6 0 0 1-1.1-1.6 11.9 11.9 0 0 1 0-2.2l.2-3.7q.1-2.1.2-4.4t.1-4.2a25.3 25.3 0 0 0-.1-3.2q-.1-1.3-.5-1.3a3.1 3.1 0 0 0-1.4.3l-1.4.8-1.3 1-1 .8a1.2 1.2 0 0 1-.8.3l-.5-.2a.7.7 0 0 1-.1-.6 1 1 0 0 1 .5-.6z"/></svg>