<svg xmlns="http://www.w3.org/2000/svg" width="612" height="792" viewBox="0 0 612 792"><defs><style>.a{fill:#e6e7e8;}.a,.b,.g,.i,.k{stroke:#bcbec0;}.a,.b,.k{stroke-linecap:round;stroke-linejoin:round;stroke-width:3px;stroke-dasharray:1 5;}.b,.i{fill:#fff;}.c{fill:#231f20;}.d{fill:#2865b0;}.e,.f,.g,.k{fill:none;}.e{stroke:#253979;}.e,.f,.g,.i{stroke-miterlimit:10;}.e,.f,.g{stroke-width:2.5px;}.f{stroke:#72c6ef;}.h{fill:#579577;}.i{stroke-width:8px;}.j{fill:#58595b;}.l{fill:#939598;}</style></defs><title>game-board</title><path class="a" d="M254.9 651.7h102.3v102.29h-102.3z"/><path class="b" d="M254.9 549.4h102.3v102.29h-102.3zM254.9 447.1h102.3v102.29h-102.3zM254.9 344.9h102.3v102.29h-102.3zM254.9 242.6h102.3v102.29h-102.3zM254.9 140.3h102.3v102.29h-102.3zM254.9 38h102.3v102.29h-102.3zM459.4 651.7h102.3v102.29h-102.3zM459.4 549.4h102.3v102.29h-102.3zM459.4 447.1h102.3v102.29h-102.3zM459.4 344.9h102.3v102.29h-102.3zM459.4 242.6h102.3v102.29h-102.3zM459.4 140.3h102.3v102.29h-102.3zM459.4 38h102.3v102.29h-102.3zM357.1 38h102.3v102.29h-102.3zM357.1 651.7h102.3v102.29h-102.3zM152.6 447.1h102.3v102.29h-102.3z"/><path class="c" d="M285.1 695.5l-.4 2.2a6.9 6.9 0 0 0-1.8-1 5.9 5.9 0 0 0-1.9-.3 4.6 4.6 0 0 0-2.9.9 2.8 2.8 0 0 0-1.1 2.3 1.6 1.6 0 0 0 .5 1.2 5.4 5.4 0 0 0 1.9.9l1.3.4a5.6 5.6 0 0 1 2.6 1.4 3.3 3.3 0 0 1 .8 2.3 4.9 4.9 0 0 1-1.8 4 7.4 7.4 0 0 1-4.9 1.5l-2.2-.2-2.2-.7.4-2.3a8.1 8.1 0 0 0 2.1 1.1 7.3 7.3 0 0 0 2.3.4 4.3 4.3 0 0 0 2.9-1 3 3 0 0 0 1.1-2.4 1.9 1.9 0 0 0-.5-1.4 4.8 4.8 0 0 0-1.9-.9l-1.1-.4a7 7 0 0 1-2.8-1.4 2.8 2.8 0 0 1-.8-2.1 4.9 4.9 0 0 1 1.8-3.9 6.9 6.9 0 0 1 4.7-1.5l1.8.2zM294.3 695.5l-.7 3.4h4.5l-.3 1.5h-4.5l-1.3 6.6v.6a4.3 4.3 0 0 0 0 .5 1.1 1.1 0 0 0 .4 1 2.9 2.9 0 0 0 1.5.3h2.2l-.3 1.6h-2.4a4.6 4.6 0 0 1-2.7-.6 2.1 2.1 0 0 1-.8-1.9 5.6 5.6 0 0 1 0-.6v-.9l1.3-6.6h-3.2l.3-1.5h3.2l.7-3.4h2zM310.8 704.1l-1.4 6.9h-2l.3-1.8a5.4 5.4 0 0 1-1.8 1.6 4.8 4.8 0 0 1-2.2.5 3.8 3.8 0 0 1-2.6-.9 3.1 3.1 0 0 1-1-2.4 4 4 0 0 1 1.7-3.4 7.3 7.3 0 0 1 4.5-1.3h2.7v-.9a3 3 0 0 0 0-.3 1.6 1.6 0 0 0-.7-1.4 3.3 3.3 0 0 0-1.9-.5l-2 .3-2.3.8.4-1.9 2.2-.6 2-.2a4.9 4.9 0 0 1 3.1.9 3 3 0 0 1 1.1 2.5 8.3 8.3 0 0 1-.1.9zm-4 .8h-1.9l-1.1.3a2.5 2.5 0 0 0-1.2 1 2.6 2.6 0 0 0-.4 1.5 1.9 1.9 0 0 0 .6 1.4 2.1 2.1 0 0 0 1.5.5 3.8 3.8 0 0 0 2.8-1.1 6 6 0 0 0 1.6-3.1v-.4h-1.9zM325.4 701.4a3.2 3.2 0 0 0-1.1-.7l-1.5-.2a4.2 4.2 0 0 0-3 1.2 6.2 6.2 0 0 0-1.7 3.4l-1.1 5.9h-2l2.3-12.1h2l-.4 2.4a5.2 5.2 0 0 1 1.9-2 5 5 0 0 1 2.6-.7l1.4.2 1.1.6zM334.3 695.5l-.7 3.4h4.5l-.3 1.5h-4.5l-1.3 6.6v.6a4.4 4.4 0 0 0 0 .5 1.1 1.1 0 0 0 .4 1 2.9 2.9 0 0 0 1.5.3h2.2l-.3 1.6h-2.4a4.6 4.6 0 0 1-2.7-.6 2.1 2.1 0 0 1-.8-1.9 5.5 5.5 0 0 1 0-.6v-.9l1.3-6.6h-3.2l.3-1.5h3.2l.7-3.4h2z"/><path class="d" d="M537.3 492.1h-54.3a1.3 1.3 0 0 1 0-2.5h54.4a1.3 1.3 0 1 1-.1 2.5zM539.6 490.8a1.2 1.2 0 0 0-.1-.7l-9.7-17.8h-38l-9.9 17.7v.3a1.2 1.2 0 0 0 .1 1.5l27.8 32.8h1.9l27.8-32.8a1.3 1.3 0 0 0 .1-1zm-29 31l-26.3-31.1 9.3-16.6h34.3l9 16.5zM499.3 491h-.5a1.3 1.3 0 0 1-.6-1.7l7.4-16.4a1.3 1.3 0 1 1 2.3 1l-7.4 16.4a1.3 1.3 0 0 1-1.2.7zM522.3 491a1.2 1.2 0 0 1-1.1-.7l-7.4-16.5a1.3 1.3 0 1 1 2.3-1l7.4 16.5a1.3 1.3 0 0 1-.6 1.7h-.5zM522.7 490.6a1.3 1.3 0 0 0-1.6.8c-1.5 4.3-3.2 8.5-4.8 12.6s-3.9 10-5.7 15l-10.2-27.8a1.3 1.3 0 0 0-2.3.9l10.9 29.8a16.1 16.1 0 0 0 1.5 1.4h.4a1.3 1.3 0 0 0 1.2-.9c1.9-5.8 4.2-11.5 6.5-17.6 1.6-4.1 3.3-8.4 4.9-12.7a1.3 1.3 0 0 0-.8-1.5zM537.3 594.4h-54.3a1.3 1.3 0 0 1 0-2.5h54.4a1.3 1.3 0 0 1-.1 2.5zM539.6 593a1.2 1.2 0 0 0-.1-.7l-9.7-17.8h-38l-9.9 17.7v.3a1.2 1.2 0 0 0 .1 1.5l27.8 32.8h1.9l27.6-32.8a1.3 1.3 0 0 0 .3-1zm-29 31l-26.3-31 9.3-16.6h34.3l9 16.5zM499.3 593.3h-.5a1.3 1.3 0 0 1-.6-1.7l7.4-16.4a1.3 1.3 0 1 1 2.3 1l-7.4 16.4a1.3 1.3 0 0 1-1.2.7zM522.3 593.3a1.2 1.2 0 0 1-1.1-.7l-7.4-16.5a1.3 1.3 0 1 1 2.3-1l7.4 16.5a1.3 1.3 0 0 1-.6 1.7h-.5zM522.7 592.9a1.3 1.3 0 0 0-1.6.8c-1.5 4.3-3.2 8.5-4.8 12.6s-3.9 10-5.7 15l-10.2-27.8a1.3 1.3 0 0 0-2.3.9l10.9 29.8a16.1 16.1 0 0 0 1.5 1.4h.4a1.3 1.3 0 0 0 1.2-.9c1.9-5.8 4.2-11.5 6.5-17.6 1.6-4.1 3.3-8.4 4.9-12.7a1.3 1.3 0 0 0-.8-1.5zM537.3 696.7h-54.3a1.3 1.3 0 0 1 0-2.5h54.4a1.3 1.3 0 1 1-.1 2.5zM539.6 695.3a1.2 1.2 0 0 0-.1-.7l-9.7-17.8h-38l-9.9 17.7v.3a1.2 1.2 0 0 0 .1 1.5l27.8 32.8h1.9l27.8-32.8a1.3 1.3 0 0 0 .1-1zm-29 31l-26.3-31.1 9.3-16.6h34.3l9 16.5zM499.3 695.6h-.5a1.3 1.3 0 0 1-.6-1.7l7.4-16.4a1.3 1.3 0 1 1 2.3 1l-7.4 16.4a1.3 1.3 0 0 1-1.2.7zM522.3 695.6a1.2 1.2 0 0 1-1.1-.7l-7.4-16.5a1.3 1.3 0 1 1 2.3-1l7.4 16.5a1.3 1.3 0 0 1-.6 1.7h-.5zM522.7 695.2a1.3 1.3 0 0 0-1.6.8c-1.5 4.3-3.2 8.5-4.8 12.6s-3.9 10-5.7 15l-10.2-27.8a1.3 1.3 0 0 0-2.3.9l10.9 29.8a16.1 16.1 0 0 0 1.5 1.4h.4a1.3 1.3 0 0 0 1.2-.9c1.9-5.8 4.2-11.5 6.5-17.6 1.6-4.1 3.3-8.4 4.9-12.7a1.3 1.3 0 0 0-.8-1.5zM537.3 389.8h-54.3a1.3 1.3 0 0 1 0-2.5h54.4a1.3 1.3 0 1 1-.1 2.5zM539.6 388.5a1.2 1.2 0 0 0-.1-.7l-9.8-17.8h-38l-9.9 17.7v.3a1.2 1.2 0 0 0 .1 1.5l27.8 32.8h1.9l27.8-32.8a1.3 1.3 0 0 0 .2-1zm-29 31l-26.3-31.1 9.3-16.6h34.3l9 16.5zM499.3 388.7h-.5a1.3 1.3 0 0 1-.6-1.7l7.4-16.4a1.3 1.3 0 1 1 2.3 1l-7.5 16.4a1.3 1.3 0 0 1-1.1.7zM522.3 388.7a1.2 1.2 0 0 1-1.1-.7l-7.4-16.5a1.3 1.3 0 1 1 2.3-1l7.4 16.5a1.3 1.3 0 0 1-.6 1.7h-.5zM522.7 388.3a1.3 1.3 0 0 0-1.6.8c-1.5 4.3-3.2 8.5-4.8 12.6s-3.9 10-5.7 15l-10.2-27.7a1.3 1.3 0 0 0-2.3.9l10.9 29.7a16.1 16.1 0 0 0 1.5 1.4h.4a1.3 1.3 0 0 0 1.2-.9c1.9-5.8 4.2-11.5 6.5-17.6 1.6-4.1 3.3-8.4 4.9-12.7a1.3 1.3 0 0 0-.8-1.5z"/><path class="e" d="M184.5 516.1l-15.3-17.8 15.3-17.8h38.4l15.4 17.8-15.4 17.8h-38.4zM173.7 503.6l10.6-12.1"/><path class="f" d="M286.8 413.8l-15.4-17.8 15.4-17.8h38.4l15.4 17.8-15.4 17.8h-38.4zM318.6 391.4h17.5"/><path class="g" d="M330.8 193l-10.6-12.1"/><path class="g" d="M286.8 209.2l-15.4-17.8 15.4-17.8h38.4l15.4 17.8-15.4 17.8h-38.4z"/><path class="h" d="M510.6 162.9a28.6 28.6 0 1 0 28.6 28.6 28.6 28.6 0 0 0-28.6-28.6zm16 27.8l-4.1-10 6.6-6.6a25.1 25.1 0 0 1 6.9 16.6h-9.3zm-26.7 12.6l10 4.1v9.4a25.4 25.4 0 0 1-16.6-6.9zm11.6 4.1l10-4.1 6.6 6.6a25.1 25.1 0 0 1-16.6 6.9v-9.3zm9.5-5.6l-10.4 4.2-10.3-4.3-4.3-10.3 4.3-10.3 10.3-4.3 10.3 4.3 4.3 10.3zm.4-22.2l-10-4.1v-9.5a25.4 25.4 0 0 1 16.6 6.9zm-11.5-4.1l-10 4.1-6.7-6.6a25.1 25.1 0 0 1 16.6-6.9v9.3h.1zm-17.8-1.5l6.6 6.6-4.1 10h-9.4a25.3 25.3 0 0 1 6.9-16.6zm-6.9 18.2h9.4l4.1 10-6.6 6.6a25.3 25.3 0 0 1-6.9-16.5zm43.8 16.6l-6.6-6.7 4.1-10h9.5a25.3 25.3 0 0 1-7 16.7z"/><rect class="i" x="43.6" y="32.4" width="95" height="95" rx="2" ry="2" transform="translate(171 -11.2) rotate(90)"/><path class="j" d="M57.3 58.5l2.1-9.7h2.3l-2.8 11.6h-3.2l-2.7-11.7h2.3zM70.8 55.4v5h-2.3v-1a2.8 2.8 0 0 1-1.1.9 3.7 3.7 0 0 1-3.8-.5 2.9 2.9 0 0 1-.8-2.2 2.6 2.6 0 0 1 1-2.3 5.2 5.2 0 0 1 3.1-.7h1.6v-.3a1 1 0 0 0-.4-.8 2 2 0 0 0-1.2-.3l-1.6.2-1.6.7v-2l1.5-.5h1.8a4.2 4.2 0 0 1 3 .9 4.4 4.4 0 0 1 .8 2.9zm-3.2.9a3.5 3.5 0 0 0-1.8.3 1.2 1.2 0 0 0-.5 1.1 1.2 1.2 0 0 0 1.3 1.3 1.6 1.6 0 0 0 1.4-.7 3.2 3.2 0 0 0 .5-1.9v-.1h-.9zM80.8 54.1l-.9-.5-1.1-.2-1.3.3a1.9 1.9 0 0 0-.8.7 2 2 0 0 0-.3.7 8 8 0 0 0-.1 1.3v4h-2.2v-8.7h2.3v1.3a2.5 2.5 0 0 1 1-1.2 3.1 3.1 0 0 1 1.6-.4h.9l.9.3v2.2zM83.2 51.7h4.5v7h2.8v1.8h-8v-1.9h2.9v-5.2h-2.2v-1.7zm2.2-4.3h2.3v2.7h-2.3v-2.7zM99.7 55.4v5h-2.3v-1a2.8 2.8 0 0 1-1.1.9 3.7 3.7 0 0 1-3.8-.5 2.9 2.9 0 0 1-.8-2.2 2.6 2.6 0 0 1 1-2.3 5.2 5.2 0 0 1 3.1-.7h1.6v-.3a1 1 0 0 0-.4-.8 2 2 0 0 0-1.2-.3l-1.6.2-1.6.7v-2l1.5-.5h1.7a4.2 4.2 0 0 1 3 .9 4.4 4.4 0 0 1 .9 2.9zm-3.2.9a3.5 3.5 0 0 0-1.8.3 1.2 1.2 0 0 0-.5 1.1 1.2 1.2 0 0 0 1.3 1.3 1.6 1.6 0 0 0 1.4-.7 3.2 3.2 0 0 0 .5-1.9v-.1h-.9zM104.1 52.9a3.1 3.1 0 0 1 1-1.1 2.3 2.3 0 0 1 1.3-.4 2.8 2.8 0 0 1 2.4 1.2 5.9 5.9 0 0 1 .8 3.4 5.9 5.9 0 0 1-.8 3.4 2.7 2.7 0 0 1-2.3 1.2 2.5 2.5 0 0 1-1.4-.4 2.7 2.7 0 0 1-.9-1.1v1.3h-2.3v-12.1h2.3v4.6zm3.2 3.2a3.9 3.9 0 0 0-.4-2 1.3 1.3 0 0 0-1.2-.7 1.3 1.3 0 0 0-1.2.7 4.8 4.8 0 0 0 0 4 1.3 1.3 0 0 0 1.2.7 1.3 1.3 0 0 0 1.2-.7 3.9 3.9 0 0 0 .4-2zM113.4 56.8v-6.8h-2.4v-1.7h4.6v8.5a2.5 2.5 0 0 0 .3 1.5 1.3 1.3 0 0 0 1.1.4h1.8v1.8h-2.5a2.9 2.9 0 0 1-2.3-.8 4.4 4.4 0 0 1-.6-2.9zM128.6 60l-1.6.5-1.7.2a4.5 4.5 0 0 1-3.4-1.2 4.6 4.6 0 0 1-1.2-3.4 4.9 4.9 0 0 1 1.1-3.4 4.4 4.4 0 0 1 6.1-.1 4.6 4.6 0 0 1 1.1 3.2v.9h-6a1.9 1.9 0 0 0 .6 1.5 2.7 2.7 0 0 0 1.8.5l1.6-.2 1.6-.7v2.2zm-1.9-4.9a2 2 0 0 0-.5-1.4 1.8 1.8 0 0 0-1.3-.5 1.7 1.7 0 0 0-1.3.5 2.2 2.2 0 0 0-.6 1.4h3.6z"/><rect class="k" x="54.4" y="75.2" width="73.4" height="40.91" rx="7.3" ry="7.3"/><path class="l" d="M76 97.5l3.5-7.6h1.3l-4.2 8.7h-1.6l-.9-8.7h1.2zM86.5 94.9l-.7 3.7h-1.1l.2-1a3 3 0 0 1-1 .8 2.6 2.6 0 0 1-1.2.3 2 2 0 0 1-1.4-.5 1.7 1.7 0 0 1-.5-1.3 2.2 2.2 0 0 1 .9-1.8 4 4 0 0 1 2.5-.7h1.4v-.5a.9.9 0 0 0-.4-.8 1.8 1.8 0 0 0-1.1-.3h-1.1l-1.2.4.2-.8 1.2-.3h1.1a2.7 2.7 0 0 1 1.7.5 1.6 1.6 0 0 1 .6 1.3 4.5 4.5 0 0 1 0 .5v.7zm-2.2.4h-1.6a1.4 1.4 0 0 0-.6.5 1.4 1.4 0 0 0-.2.8 1 1 0 0 0 .3.8 1.1 1.1 0 0 0 .8.3 2.1 2.1 0 0 0 1.5-.6 3.2 3.2 0 0 0 .9-1.7v-.1h-1zM91 96.2v.6a.8.8 0 0 0 .3.6l.7.3h1.2l-.2.9h-1.2a2.5 2.5 0 0 1-1.5-.4 1.3 1.3 0 0 1-.5-1.1 3.3 3.3 0 0 1 0-.4v-.5l1.2-5.9h-1.7l.2-.8h2.9zM95.5 96.1l.8-4.1h1.1l-.8 4.1v.8a.9.9 0 0 0 .3.7 1.1 1.1 0 0 0 .8.2 1.7 1.7 0 0 0 1.3-.5 3 3 0 0 0 .7-1.5l.7-3.7h1.1l-1.3 6.6h-1.2l.2-1a3 3 0 0 1-.9.9 2.3 2.3 0 0 1-1.1.3 1.7 1.7 0 0 1-1.2-.4 1.6 1.6 0 0 1-.4-1.2v-1.2zM107.5 98.3l-1.2.4h-1.2a2.8 2.8 0 0 1-2-.7 2.5 2.5 0 0 1-.7-1.9 4.8 4.8 0 0 1 .4-1.8 4.6 4.6 0 0 1 1-1.5 3.5 3.5 0 0 1 1.1-.8l1.2-.3a2.3 2.3 0 0 1 1.7.7 2.5 2.5 0 0 1 .7 1.8v1.3h-4.7v.6a1.6 1.6 0 0 0 .5 1.2 1.8 1.8 0 0 0 1.3.4l1.1-.2 1.3-.5zm-.1-3.5v-.5a1.5 1.5 0 0 0-.4-1.1 1.4 1.4 0 0 0-1.1-.4 1.9 1.9 0 0 0-1.3.5 2.9 2.9 0 0 0-.9 1.4h3.6z"/><rect class="i" x="-32.9" y="233.4" width="248" height="95" rx="2" ry="2" transform="translate(372 189.9) rotate(90)"/><path class="j" d="M70.4 173.3h2.8l3.1 11.7h-2.3l-.7-2.9h-3.1l-.7 2.9h-2.3zm1.4 2.1l-1.1 4.8h2.2zM85.6 178.6l-.9-.5-1.1-.2-1.3.3a1.9 1.9 0 0 0-.8.7 2 2 0 0 0-.3.7 8 8 0 0 0-.1 1.3v4h-2.2v-8.7h2.3v1.4a2.5 2.5 0 0 1 1-1.2 3.1 3.1 0 0 1 1.6-.4h.9l.9.3v2.2zM95.2 178.6l-.9-.5-1.1-.2-1.3.3a1.9 1.9 0 0 0-.8.7 2 2 0 0 0-.3.7 8 8 0 0 0-.1 1.3v4h-2.2v-8.7h2.3v1.4a2.5 2.5 0 0 1 1-1.2 3.1 3.1 0 0 1 1.6-.4h.9l.9.3v2.2zM104.5 179.9v5h-2.3v-1a2.8 2.8 0 0 1-1.1.9 3.7 3.7 0 0 1-3.8-.5 2.9 2.9 0 0 1-.8-2.2 2.6 2.6 0 0 1 1-2.3 5.2 5.2 0 0 1 3.1-.7h1.6v-.4a1 1 0 0 0-.4-.8 2 2 0 0 0-1.2-.3l-1.6.2-1.6.7v-2l1.5-.5h1.7a4.2 4.2 0 0 1 3 .9 4.4 4.4 0 0 1 .9 3zm-3.2.9a3.5 3.5 0 0 0-1.8.3 1.2 1.2 0 0 0-.5 1.1 1.2 1.2 0 0 0 1.3 1.3 1.6 1.6 0 0 0 1.4-.7 3.2 3.2 0 0 0 .5-1.9v-.2h-.9zM111.1 185.9a4.4 4.4 0 0 1-1.1 1.8 2.3 2.3 0 0 1-1.6.6h-1.9v-1.7h.9a1.8 1.8 0 0 0 1-.2 2.6 2.6 0 0 0 .7-1.1l.2-.5-3.3-8.5h2.4l2 5.7 1.9-5.7h2.4z"/><rect class="k" x="54.4" y="199.8" width="73.4" height="40.91" rx="7.3" ry="7.3"/><path class="l" d="M78.7 214.4h4.9l-.2 1h-1.9l-1.3 6.8h1.8l-.2 1h-4.8l.2-1h1.8l1.3-6.8h-1.8zM88.4 214.7l-.4 1.9h2.4l-.2.8h-2.4l-.7 3.6v.6a.6.6 0 0 0 .2.5l.8.2h1.2l-.2.9h-1.2a2.5 2.5 0 0 1-1.4-.3 1.2 1.2 0 0 1-.5-1v-.9l.7-3.6h-1.7l.2-.8h1.8l.4-1.9h1.1zM96.7 222.8l-1.2.4h-1.2a2.8 2.8 0 0 1-2-.7 2.5 2.5 0 0 1-.7-1.9 4.8 4.8 0 0 1 .4-1.6 4.6 4.6 0 0 1 1-1.5 3.5 3.5 0 0 1 1.1-.8l1.2-.3a2.3 2.3 0 0 1 1.7.7 2.5 2.5 0 0 1 .7 1.8v1.3h-4.9v.6a1.6 1.6 0 0 0 .5 1.2 1.8 1.8 0 0 0 1.3.4l1.1-.2 1.3-.5zm-.1-3.5v-.5a1.5 1.5 0 0 0-.4-1.1 1.4 1.4 0 0 0-1.1-.4 1.9 1.9 0 0 0-1.3.5 2.9 2.9 0 0 0-.9 1.4h3.6zM102.7 217.3a1.6 1.6 0 0 1 .6-.6l.8-.2a1.1 1.1 0 0 1 .8.3 1.2 1.2 0 0 1 .3.9 5.5 5.5 0 0 1-.1.7l-.2 1-.7 3.8h-1l.7-3.8.2-.9v-.5a.8.8 0 0 0-.1-.5l-.4-.2a.8.8 0 0 0-.7.4 5.6 5.6 0 0 0-.5 1.7l-.7 3.8h-1l.7-3.8.2-.9v-.5a.8.8 0 0 0-.1-.5l-.4-.2a.8.8 0 0 0-.7.3 5.7 5.7 0 0 0-.5 1.7l-.7 3.8h-1l1.3-6.6h1v.6l.6-.5.7-.2.7.2a.9.9 0 0 1 .2.7z"/><rect class="k" x="54.4" y="250.7" width="73.4" height="40.91" rx="7.3" ry="7.3"/><path class="l" d="M78.7 265.3h4.9l-.2 1h-1.9l-1.3 6.8h1.8l-.2 1h-4.8l.2-1h1.8l1.3-6.8h-1.8zM88.4 265.7l-.4 1.8h2.4l-.2.8h-2.4l-.7 3.6v.6a.6.6 0 0 0 .2.5l.8.2h1.2l-.2.9h-1.2a2.5 2.5 0 0 1-1.4-.3 1.2 1.2 0 0 1-.5-1v-.8l.7-3.6h-1.7l.2-.8h1.8l.4-1.9h1.1zM96.7 273.7l-1.2.4h-1.2a2.8 2.8 0 0 1-2-.7 2.5 2.5 0 0 1-.7-1.9 4.8 4.8 0 0 1 .4-1.8 4.6 4.6 0 0 1 1-1.5 3.5 3.5 0 0 1 1.1-.8l1.2-.3a2.3 2.3 0 0 1 1.7.7 2.5 2.5 0 0 1 .7 1.8v1.3h-4.9v.6a1.6 1.6 0 0 0 .5 1.2 1.8 1.8 0 0 0 1.3.4l1.1-.2 1.3-.5zm-.1-3.5v-.5a1.5 1.5 0 0 0-.4-1.1 1.4 1.4 0 0 0-1.1-.4 1.9 1.9 0 0 0-1.3.5 2.9 2.9 0 0 0-.9 1.4h3.6zM102.7 268.2a1.6 1.6 0 0 1 .6-.6l.8-.2a1.1 1.1 0 0 1 .8.3 1.2 1.2 0 0 1 .3.9 5.5 5.5 0 0 1-.1.7l-.2 1-.7 3.8h-1l.7-3.8.2-.9v-.4a.8.8 0 0 0-.1-.5l-.4-.2a.8.8 0 0 0-.7.4 5.6 5.6 0 0 0-.5 1.7l-.7 3.8h-1l.7-3.8.2-.9v-.5a.8.8 0 0 0-.1-.5l-.4-.2a.8.8 0 0 0-.7.3 5.7 5.7 0 0 0-.5 1.7l-.7 3.8h-1l1.3-6.6h1v.6l.6-.5.7-.2.7.2a.9.9 0 0 1 .2.6z"/><rect class="k" x="54.4" y="301.6" width="73.4" height="40.91" rx="7.3" ry="7.3"/><path class="l" d="M78.7 316.2h4.9l-.2 1h-1.9l-1.3 6.8h1.8l-.2 1h-4.8l.2-1h1.8l1.3-6.8h-1.8zM88.4 316.6l-.4 1.8h2.4l-.2.8h-2.4l-.7 3.6v.6a.6.6 0 0 0 .2.5l.8.2h1.2l-.2.9h-1.2a2.5 2.5 0 0 1-1.4-.3 1.2 1.2 0 0 1-.5-1v-.8l.7-3.6h-1.7l.2-.8h1.8l.4-1.9h1.1zM96.7 324.7l-1.2.4h-1.2a2.8 2.8 0 0 1-2-.7 2.5 2.5 0 0 1-.7-1.9 4.8 4.8 0 0 1 .4-1.8 4.6 4.6 0 0 1 1-1.5 3.5 3.5 0 0 1 1.1-.8l1.2-.3a2.3 2.3 0 0 1 1.7.7 2.5 2.5 0 0 1 .7 1.8v1.4h-4.9v.6a1.6 1.6 0 0 0 .5 1.2 1.8 1.8 0 0 0 1.3.4l1.1-.2 1.3-.5zm-.1-3.5v-.5a1.5 1.5 0 0 0-.4-1.1 1.4 1.4 0 0 0-1.1-.4 1.9 1.9 0 0 0-1.3.5 2.9 2.9 0 0 0-.9 1.4h3.6zM102.7 319.1a1.6 1.6 0 0 1 .6-.6l.8-.2a1.1 1.1 0 0 1 .8.3 1.2 1.2 0 0 1 .3.9 5.5 5.5 0 0 1-.1.7l-.2 1-.7 3.8h-1l.7-3.8.2-.9v-.5a.8.8 0 0 0-.1-.5l-.4-.2a.8.8 0 0 0-.7.4 5.6 5.6 0 0 0-.5 1.7l-.7 3.8h-1l.7-3.8.2-.9v-.5a.8.8 0 0 0-.1-.5l-.4-.2a.8.8 0 0 0-.7.3 5.7 5.7 0 0 0-.5 1.7l-.7 3.9h-1l1.3-6.6h1v.6l.6-.5.7-.2.7.2a.9.9 0 0 1 .2.6z"/><rect class="k" x="54.4" y="352.5" width="73.4" height="40.91" rx="7.3" ry="7.3"/><path class="l" d="M78.7 367.2h4.9l-.2 1h-1.9l-1.3 6.8h1.8l-.2 1h-4.8l.2-1h1.8l1.3-6.8h-1.8zM88.4 367.5l-.4 1.8h2.4l-.2.8h-2.4l-.7 3.6v.6a.6.6 0 0 0 .2.5l.8.2h1.2l-.2.9h-1.2a2.5 2.5 0 0 1-1.4-.3 1.2 1.2 0 0 1-.5-1v-.8l.7-3.6h-1.7l.2-.8h1.8l.4-1.9h1.1zM96.7 375.6l-1.2.4h-1.2a2.8 2.8 0 0 1-2-.7 2.5 2.5 0 0 1-.7-1.9 4.8 4.8 0 0 1 .4-1.8 4.6 4.6 0 0 1 1-1.5 3.5 3.5 0 0 1 1.1-.8l1.2-.3a2.3 2.3 0 0 1 1.7.7 2.5 2.5 0 0 1 .7 1.8v1.3h-4.9v.6a1.6 1.6 0 0 0 .5 1.2 1.8 1.8 0 0 0 1.3.4l1.1-.2 1.3-.5zm-.1-3.6v-.5a1.5 1.5 0 0 0-.4-1.1 1.4 1.4 0 0 0-1.1-.4 1.9 1.9 0 0 0-1.3.5 2.9 2.9 0 0 0-.8 1.5h3.6zM102.7 370a1.6 1.6 0 0 1 .6-.6l.8-.2a1.1 1.1 0 0 1 .8.3 1.2 1.2 0 0 1 .3.9 5.5 5.5 0 0 1-.1.7l-.2 1-.7 3.8h-1l.7-3.8.2-.9v-.5a.8.8 0 0 0-.1-.5l-.4-.2a.8.8 0 0 0-.7.4 5.6 5.6 0 0 0-.5 1.7l-.7 3.8h-1l.7-3.8.2-.9v-.5a.8.8 0 0 0-.1-.5l-.4-.2a.8.8 0 0 0-.7.3 5.7 5.7 0 0 0-.5 1.7l-.7 3.8h-1l1.3-6.6h1v.6l.6-.5.7-.2.7.2a.9.9 0 0 1 .2.7z"/><path class="c" d="M561.7 38v716h-306.8v-204.6h-102.3v-102.3h102.3v-409.1h306.8m-204.6 613.7h102.3v-511.4h-102.3v511.4m214.6-623.7h-326.8v409.1h-102.3v122.3h102.3v204.6h326.8v-736zm-204.6 122.3h82.3v491.4h-82.3v-491.4z"/></svg>