<svg xmlns="http://www.w3.org/2000/svg" width="792" height="612" viewBox="0 0 792 612"><defs><style>.a{fill:#58595b;}.b,.d,.g{fill:none;stroke-miterlimit:10;}.b{stroke:#72c6ef;stroke-linecap:round;stroke-width:11px;}.c{fill:#b4d44f;}.d{stroke:#849f3a;}.d,.g{stroke-width:8px;}.e{fill:#657d2b;}.f{fill:#fbef4b;}.g{stroke:#b4ae39;}.h{fill:#807d24;}</style></defs><title>questions</title><path class="a" d="M74.2 163.3h5.8v-17l-5.4 1.3v-4.6l5.4-1.3h5v21.7h5.8v4.6h-16.6v-4.6zM100.5 161.5h5.9v6.5h-5.9v-6.5zM154.9 167.2a11.2 11.2 0 0 1-2.6.9 12.5 12.5 0 0 1-2.8.3q-5.3 0-8.1-3.5t-2.8-10.1q0-6.6 2.8-10.1t8.1-3.5a12.7 12.7 0 0 1 2.9.3 10.5 10.5 0 0 1 2.6.9v5.8a10.1 10.1 0 0 0-2.6-1.8 6.2 6.2 0 0 0-2.6-.6 4.8 4.8 0 0 0-4.3 2.3q-1.5 2.3-1.5 6.7t1.5 6.7a4.8 4.8 0 0 0 4.3 2.3 6.2 6.2 0 0 0 2.6-.6 10.1 10.1 0 0 0 2.6-1.8v5.8zM159.3 158.1a11 11 0 0 1 2.5-7.5 9.3 9.3 0 0 1 13.3 0 12.8 12.8 0 0 1 0 15.1 9.3 9.3 0 0 1-13.3 0 11 11 0 0 1-2.5-7.6zm9.1-6.2a3.3 3.3 0 0 0-2.9 1.6 10.2 10.2 0 0 0 0 9.1 3.4 3.4 0 0 0 5.8 0 10.2 10.2 0 0 0 0-9.1 3.3 3.3 0 0 0-2.9-1.6zM186.1 159.7v-15.2h-5.2v-4h10.4v19.1a5.7 5.7 0 0 0 .7 3.3 2.9 2.9 0 0 0 2.4 1h4.1v4h-5.6q-3.7 0-5.3-1.9t-1.5-6.3zM207.7 159.7v-15.2h-5.2v-4h10.4v19.1a5.7 5.7 0 0 0 .7 3.3 2.9 2.9 0 0 0 2.4 1h4.1v4h-5.6q-3.7 0-5.3-1.9t-1.5-6.3zM242 166.9a19.6 19.6 0 0 1-3.7 1.1 20.2 20.2 0 0 1-3.9.4q-4.9 0-7.5-2.6t-2.6-7.6a11 11 0 0 1 2.5-7.6 10 10 0 0 1 13.6-.2q2.4 2.6 2.4 7.3v2.1h-13.3a4.3 4.3 0 0 0 1.4 3.5 6.1 6.1 0 0 0 4 1.1 12.3 12.3 0 0 0 3.5-.5 16.3 16.3 0 0 0 3.6-1.6v4.7zm-4.4-11.1a4.4 4.4 0 0 0-1-3.1 4 4 0 0 0-3-1 3.8 3.8 0 0 0-2.8 1.1 4.9 4.9 0 0 0-1.2 3.1h8.1zM262.9 166.9a10.8 10.8 0 0 1-2.8 1.1 13.1 13.1 0 0 1-3.2.4 9.3 9.3 0 0 1-7.1-2.7 10.7 10.7 0 0 1-2.6-7.6q0-4.9 2.6-7.6a9.3 9.3 0 0 1 7.1-2.8 12.5 12.5 0 0 1 3 .4 13 13 0 0 1 2.9 1.1v4.7a8.4 8.4 0 0 0-2.5-1.5 7.7 7.7 0 0 0-2.8-.5 4.8 4.8 0 0 0-3.9 1.6 6.9 6.9 0 0 0-1.4 4.6 6.8 6.8 0 0 0 1.4 4.5 4.8 4.8 0 0 0 3.9 1.6 7.7 7.7 0 0 0 2.8-.5 8.2 8.2 0 0 0 2.5-1.5v4.7zM278.1 142.6v5.6h6.7v4h-6.7v9.3a2.4 2.4 0 0 0 .6 1.9 3.2 3.2 0 0 0 2.1.6h4v4h-4.3q-4.4 0-6-1.4t-1.6-5.2v-9.1h-5v-4h5v-5.6h5.2zM321.4 142.6v5.6h6.7v4h-6.7v9.3a2.4 2.4 0 0 0 .6 1.9 3.2 3.2 0 0 0 2.1.6h4v4h-4.3q-4.4 0-6-1.4t-1.6-5.2v-9.1h-5v-4h5v-5.6h5.2zM349.8 155.1v12.8h-5.1v-12a5.7 5.7 0 0 0-.6-3 2.2 2.2 0 0 0-2-.9 2.5 2.5 0 0 0-2.2 1.2 6.4 6.4 0 0 0-.8 3.4v11.3h-5.1v-27.3h5.1v10.6a4.8 4.8 0 0 1 1.9-2.5 5.5 5.5 0 0 1 3.2-.9 5 5 0 0 1 4.2 1.9 9 9 0 0 1 1.4 5.4zM372 166.9a19.6 19.6 0 0 1-3.7 1.1 20.2 20.2 0 0 1-3.9.4q-4.9 0-7.5-2.6t-2.6-7.6a11 11 0 0 1 2.5-7.6 10 10 0 0 1 13.6-.2q2.4 2.6 2.4 7.3v2.1h-13.3a4.3 4.3 0 0 0 1.4 3.5 6.1 6.1 0 0 0 4 1.1 12.3 12.3 0 0 0 3.5-.5 16.3 16.3 0 0 0 3.6-1.6v4.7zm-4.4-11.1a4.4 4.4 0 0 0-1-3.1 4 4 0 0 0-3-1 3.8 3.8 0 0 0-2.8 1.1 4.9 4.9 0 0 0-1.2 3.1h8.1zM402.8 159.7v-15.2h-5.2v-4h10.4v19.1a5.7 5.7 0 0 0 .7 3.3 2.9 2.9 0 0 0 2.4 1h4.1v4h-5.6q-3.7 0-5.3-1.9t-1.5-6.3zM421.6 148.2h10.2v15.8h6.4v4h-18v-4h6.4v-11.8h-5v-4zm5-9.6h5.2v6h-5.2v-6zM458.6 166.4q0 4.7-2.1 6.8t-6.9 2.1l-3.2-.2-3.2-.7v-4.7a12.3 12.3 0 0 0 6.1 1.6 4.4 4.4 0 0 0 3.2-1 4.4 4.4 0 0 0 1-3.2v-2.1a5 5 0 0 1-2 2.1 6.2 6.2 0 0 1-3 .7 6.4 6.4 0 0 1-5.4-2.6 11.6 11.6 0 0 1-2-7.2 12.4 12.4 0 0 1 2-7.4 6.3 6.3 0 0 1 5.3-2.7 5.7 5.7 0 0 1 3 .8 5.5 5.5 0 0 1 2.1 2.2v-2.5h5.2v18.2zm-5.2-8.7a7.9 7.9 0 0 0-1-4.2 3 3 0 0 0-2.6-1.6 3 3 0 0 0-2.6 1.6 9.6 9.6 0 0 0 0 8.5 3 3 0 0 0 2.6 1.6 3 3 0 0 0 2.6-1.6 7.9 7.9 0 0 0 1.1-4.2zM479.8 155.1v12.8h-5.1v-12a5.7 5.7 0 0 0-.6-3 2.2 2.2 0 0 0-2-.9 2.5 2.5 0 0 0-2.2 1.2 6.4 6.4 0 0 0-.8 3.4v11.3h-5.1v-27.3h5.1v10.6a4.8 4.8 0 0 1 1.9-2.5 5.5 5.5 0 0 1 3.2-.9 5 5 0 0 1 4.2 1.9 9 9 0 0 1 1.4 5.4zM494.8 142.6v5.6h6.7v4h-6.7v9.3a2.4 2.4 0 0 0 .6 1.9 3.2 3.2 0 0 0 2.1.6h4v4h-4.3q-4.4 0-6-1.4t-1.6-5.2v-9.1h-5v-4h5v-5.6h5.2zM533.8 151a7.1 7.1 0 0 1 2.2-2.5 5.1 5.1 0 0 1 2.8-.8 6.2 6.2 0 0 1 5.4 2.7q1.9 2.7 1.9 7.7t-1.9 7.6a6 6 0 0 1-5.2 2.7 5.5 5.5 0 0 1-3.1-.9 6.1 6.1 0 0 1-2.1-2.6v2.9h-5.1v-27.2h5.1v10.4zm7.2 7.1a8.8 8.8 0 0 0-.9-4.5 2.9 2.9 0 0 0-2.6-1.6 3 3 0 0 0-2.6 1.6 10.8 10.8 0 0 0 0 8.9 3 3 0 0 0 2.6 1.6 2.9 2.9 0 0 0 2.6-1.6 8.8 8.8 0 0 0 .9-4.4zM554.5 159.7v-15.2h-5.2v-4h10.4v19.1a5.7 5.7 0 0 0 .7 3.3 2.9 2.9 0 0 0 2.4 1h4.1v4h-5.6q-3.7 0-5.3-1.9t-1.5-6.3zM572.2 161v-12.8h5.2v12a5.8 5.8 0 0 0 .6 3 2.2 2.2 0 0 0 2 .9 2.4 2.4 0 0 0 2.2-1.2 6.4 6.4 0 0 0 .8-3.4v-11.3h5v19.7h-5.2v-2.9a4.8 4.8 0 0 1-1.9 2.5 5.4 5.4 0 0 1-3.2.9 5 5 0 0 1-4.2-1.9 9 9 0 0 1-1.3-5.5zM610.4 166.9a19.6 19.6 0 0 1-3.7 1.1 20.2 20.2 0 0 1-3.9.4q-4.9 0-7.5-2.6t-2.6-7.6a11 11 0 0 1 2.5-7.6 10 10 0 0 1 13.6-.2q2.4 2.6 2.4 7.3v2.1h-13.3a4.3 4.3 0 0 0 1.4 3.5 6.1 6.1 0 0 0 4 1.1 12.3 12.3 0 0 0 3.5-.5 16.3 16.3 0 0 0 3.6-1.6v4.7zm-4.4-11.1a4.4 4.4 0 0 0-1-3.1 4 4 0 0 0-3-1 3.8 3.8 0 0 0-2.8 1.1 4.9 4.9 0 0 0-1.2 3.1h8.1zM653.7 166.4q0 4.7-2.1 6.8t-6.9 2.1l-3.2-.2-3.2-.7v-4.7a12.3 12.3 0 0 0 6.1 1.6 4.4 4.4 0 0 0 3.2-1 4.4 4.4 0 0 0 1-3.2v-2.1a5 5 0 0 1-2 2.1 6.2 6.2 0 0 1-3 .7 6.4 6.4 0 0 1-5.4-2.6 11.6 11.6 0 0 1-2-7.2 12.4 12.4 0 0 1 2-7.4 6.3 6.3 0 0 1 5.3-2.7 5.7 5.7 0 0 1 3 .8 5.5 5.5 0 0 1 2.1 2.2v-2.5h5.2v18.2zm-5.2-8.7a7.9 7.9 0 0 0-1-4.2 3 3 0 0 0-2.6-1.6 3 3 0 0 0-2.6 1.6 9.6 9.6 0 0 0 0 8.5 3 3 0 0 0 2.6 1.6 3 3 0 0 0 2.6-1.6 7.9 7.9 0 0 0 1-4.2zM675.5 166.9a19.6 19.6 0 0 1-3.7 1.1 20.2 20.2 0 0 1-3.9.4q-4.9 0-7.5-2.6t-2.6-7.6a11 11 0 0 1 2.5-7.6 10 10 0 0 1 13.6-.2q2.4 2.6 2.4 7.3v2.1h-13.4a4.3 4.3 0 0 0 1.4 3.5 6.1 6.1 0 0 0 4 1.1 12.3 12.3 0 0 0 3.5-.5 16.3 16.3 0 0 0 3.6-1.6v4.7zm-4.4-11.1a4.4 4.4 0 0 0-1-3.1 4 4 0 0 0-3-1 3.8 3.8 0 0 0-2.8 1.1 4.9 4.9 0 0 0-1.2 3.1h8.1zM689.9 150.2a4.3 4.3 0 0 1 1.5-1.8 3.9 3.9 0 0 1 2.2-.6 3.7 3.7 0 0 1 3.5 1.8q1 1.8 1 7.3v11.1h-4.2v-12.7a8.4 8.4 0 0 0-.3-2.9 1.2 1.2 0 0 0-1.2-.7 1.2 1.2 0 0 0-1.2.8 8 8 0 0 0-.4 2.9v12.6h-4.2v-12.7a8 8 0 0 0-.4-2.9 1.2 1.2 0 0 0-1.2-.8 1.2 1.2 0 0 0-1.2.7 8.4 8.4 0 0 0-.3 2.9v12.6h-4.2v-19.6h3.7v2a3.8 3.8 0 0 1 1.4-1.8 3.7 3.7 0 0 1 2.2-.7 3.6 3.6 0 0 1 2.2.7 2.8 2.8 0 0 1 1.1 1.8zM707.3 161.5h5.9v6.5h-5.9v-6.5z"/><path class="b" d="M363.1 100.3l-26.3-30.6 26.3-30.5h65.8l26.3 30.5-26.3 30.6h-65.8zM417.6 61.8h30"/><path class="a" d="M324.6 391l-3.9 3.8 3.9 3.9-2 1.9-3.9-3.8-3.8 3.8-2-1.9 3.9-3.9-3.9-3.8 2-2 3.8 3.8 3.9-3.8zM328.2 399.3h3.9v-11.3l-3.6.9v-3.1l3.6-.9h3.3v14.4h3.9v3h-11.1v-3z"/><rect class="c" x="268.5" y="249" width="115" height="115" rx="12" ry="12"/><rect class="d" x="278.5" y="259" width="95" height="95" rx="2" ry="2" transform="translate(632.5 -19.5) rotate(90)"/><path class="e" d="M315.5 295.6a5.9 5.9 0 0 1-2.4-1.4 2.9 2.9 0 0 1-.6-2 3.2 3.2 0 0 1 1-2.5 4 4 0 0 1 2.8-.9l1.7.2 1.6.5v2.3l-1.5-.8-1.5-.3a2.1 2.1 0 0 0-1.3.3 1.1 1.1 0 0 0-.4 1 1.1 1.1 0 0 0 .3.8l1.4.7 1 .4a4.5 4.5 0 0 1 2.1 1.4 3.4 3.4 0 0 1 .7 2.1 3.2 3.2 0 0 1-1 2.6 4.8 4.8 0 0 1-3.2.9l-1.7-.2-1.7-.6v-2.4a7.8 7.8 0 0 0 1.8 1 4.9 4.9 0 0 0 1.7.3 2 2 0 0 0 1.3-.4 1.3 1.3 0 0 0 .5-1.1 1.4 1.4 0 0 0-.3-.9 2.1 2.1 0 0 0-.9-.6zM329.8 300.2l-1.6.5-1.7.2a4.5 4.5 0 0 1-3.4-1.2 4.6 4.6 0 0 1-1.2-3.4 4.9 4.9 0 0 1 1.1-3.4 4.4 4.4 0 0 1 6.1-.1 4.6 4.6 0 0 1 1.1 3.2v1h-5.9a1.9 1.9 0 0 0 .6 1.5 2.7 2.7 0 0 0 1.8.5l1.6-.2 1.6-.7v2.1zm-1.9-4.9a2 2 0 0 0-.5-1.4 1.8 1.8 0 0 0-1.3-.5 1.7 1.7 0 0 0-1.3.5 2.2 2.2 0 0 0-.6 1.4h3.6zM336.2 289.4v2.5h3v1.8h-3v4.1a1.1 1.1 0 0 0 .3.8 1.4 1.4 0 0 0 .9.3h1.8v1.8h-1.9a4.1 4.1 0 0 1-2.7-.6 3.1 3.1 0 0 1-.7-2.3v-4h-2.2v-1.8h2.2v-2.5h2.3zM292.3 317.9l2.1-9.7h2.3l-2.8 11.7h-3.2l-2.8-11.7h2.3zM305.8 314.9v5h-2.3v-1a2.8 2.8 0 0 1-1.1.9 3.7 3.7 0 0 1-3.8-.5 2.9 2.9 0 0 1-.8-2.2 2.6 2.6 0 0 1 1-2.3 5.2 5.2 0 0 1 3.1-.7h1.6v-.4a1 1 0 0 0-.4-.8 2 2 0 0 0-1.2-.3l-1.6.2-1.6.7v-2l1.5-.5h1.7a4.2 4.2 0 0 1 3 .9 4.4 4.4 0 0 1 .9 3zm-3.2.9a3.5 3.5 0 0 0-1.8.3 1.2 1.2 0 0 0-.5 1.1 1.2 1.2 0 0 0 1.3 1.3 1.6 1.6 0 0 0 1.4-.7 3.2 3.2 0 0 0 .5-1.9v-.2h-.9zM315.7 313.5l-.9-.5-1.1-.2-1.3.3a1.9 1.9 0 0 0-.8.7 2 2 0 0 0-.3.7 8 8 0 0 0-.1 1.3v4h-2.2v-8.7h2.3v1.4a2.5 2.5 0 0 1 1-1.2 3.1 3.1 0 0 1 1.6-.4h.9l.9.3v2.2zM318.1 311.1h4.5v7h2.8v1.8h-8v-1.8h2.9v-5.2h-2.2v-1.8zm2.2-4.3h2.3v2.7h-2.3v-2.7zM334.7 314.9v5h-2.3v-1a2.8 2.8 0 0 1-1.1.9 3.7 3.7 0 0 1-3.8-.5 2.9 2.9 0 0 1-.8-2.2 2.6 2.6 0 0 1 1-2.3 5.2 5.2 0 0 1 3.1-.7h1.6v-.4a1 1 0 0 0-.4-.8 2 2 0 0 0-1.2-.3l-1.6.2-1.6.7v-2l1.5-.5h1.7a4.2 4.2 0 0 1 3 .9 4.4 4.4 0 0 1 .9 3zm-3.2.9a3.5 3.5 0 0 0-1.8.3 1.2 1.2 0 0 0-.5 1.1 1.2 1.2 0 0 0 1.3 1.3 1.6 1.6 0 0 0 1.4-.7 3.2 3.2 0 0 0 .5-1.9v-.2h-.9zM339.1 312.4a3.1 3.1 0 0 1 1-1.1 2.3 2.3 0 0 1 1.3-.4 2.8 2.8 0 0 1 2.4 1.2 5.9 5.9 0 0 1 .8 3.4 5.9 5.9 0 0 1-.8 3.4 2.7 2.7 0 0 1-2.3 1.2 2.5 2.5 0 0 1-1.4-.4 2.7 2.7 0 0 1-.9-1.1v1.3h-2.3v-12.2h2.3v4.6zm3.2 3.2a3.9 3.9 0 0 0-.4-2 1.3 1.3 0 0 0-1.2-.7 1.3 1.3 0 0 0-1.2.7 4.8 4.8 0 0 0 0 4 1.3 1.3 0 0 0 1.2.7 1.3 1.3 0 0 0 1.2-.7 3.9 3.9 0 0 0 .4-2.1zM348.3 316.2v-6.7h-2.3v-1.8h4.6v8.5a2.5 2.5 0 0 0 .3 1.5 1.3 1.3 0 0 0 1.1.4h1.8v1.8h-2.5a2.9 2.9 0 0 1-2.3-.8 4.4 4.4 0 0 1-.7-2.9zM363.5 319.4l-1.6.5-1.7.2a4.5 4.5 0 0 1-3.4-1.2 4.6 4.6 0 0 1-1.2-3.4 4.9 4.9 0 0 1 1.1-3.4 4.4 4.4 0 0 1 6.1-.1 4.6 4.6 0 0 1 1.1 3.2v.9h-5.9a1.9 1.9 0 0 0 .6 1.5 2.7 2.7 0 0 0 1.8.5l1.6-.2 1.6-.7v2.1zm-1.9-4.9a2 2 0 0 0-.5-1.4 1.8 1.8 0 0 0-1.3-.5 1.7 1.7 0 0 0-1.3.5 2.2 2.2 0 0 0-.6 1.4h3.6z"/><path class="a" d="M464.6 391l-3.9 3.8 3.9 3.9-2 1.9-3.9-3.8-3.8 3.8-2-1.9 3.9-3.9-3.9-3.8 2-2 3.8 3.8 3.9-3.8zM472.4 394.6h-1.9v-3h1.9a3.4 3.4 0 0 0 2-.5 1.7 1.7 0 0 0 .7-1.4 1.8 1.8 0 0 0-.7-1.5 3.2 3.2 0 0 0-2-.5l-2.1.2-2.3.7v-3.1l2.4-.6 2.3-.2a6.9 6.9 0 0 1 4.3 1.2 4 4 0 0 1 1.5 3.3 3.7 3.7 0 0 1-.9 2.5 4.4 4.4 0 0 1-2.5 1.3 4.2 4.2 0 0 1 3.8 4.6 4.7 4.7 0 0 1-1.6 3.9 7.3 7.3 0 0 1-4.7 1.3l-2.6-.2-2.5-.6v-3.2a10.4 10.4 0 0 0 2.4.8 12.2 12.2 0 0 0 2.7.3 3.5 3.5 0 0 0 2.2-.7 2.1 2.1 0 0 0 .8-1.8 2.6 2.6 0 0 0-.8-2.1 3.4 3.4 0 0 0-2.4-.7z"/><rect class="f" x="408.5" y="249" width="115" height="115" rx="12" ry="12"/><rect class="g" x="418.5" y="259" width="95" height="95" rx="2" ry="2" transform="translate(772.5 -159.5) rotate(90)"/><path class="h" d="M447.4 289h2.8l1.4 5.1 1.4-5.1h2.8v11.7h-2v-9.3l-1.2 5.1h-1.8l-1.2-5.1v9.3h-2v-11.7zM457.1 296.3a4.9 4.9 0 0 1 1.1-3.4 4.1 4.1 0 0 1 5.9 0 5.7 5.7 0 0 1 0 6.7 4.1 4.1 0 0 1-5.9 0 4.9 4.9 0 0 1-1.1-3.3zm4-2.7a1.5 1.5 0 0 0-1.3.7 4.6 4.6 0 0 0 0 4 1.5 1.5 0 0 0 2.6 0 4.6 4.6 0 0 0 0-4 1.5 1.5 0 0 0-1.2-.7zM475 291.9l-2.8 8.8h-2.8l-2.8-8.7h2.3l1.9 6.8 1.9-6.8h2.3zM484.2 300.2l-1.6.5-1.7.2a4.5 4.5 0 0 1-3.4-1.2 4.6 4.6 0 0 1-1.2-3.4 4.9 4.9 0 0 1 1.1-3.4 4.4 4.4 0 0 1 6.1-.1 4.6 4.6 0 0 1 1.1 3.2v1h-5.9a1.9 1.9 0 0 0 .6 1.5 2.7 2.7 0 0 0 1.8.5l1.6-.2 1.6-.7v2.1zm-1.9-4.9a2 2 0 0 0-.5-1.4 1.8 1.8 0 0 0-1.3-.5 1.7 1.7 0 0 0-1.3.5 2.2 2.2 0 0 0-.6 1.4h3.6zM438.1 310.4v.8h2.7v1.8h-2.7v7h-2.3v-7h-2.1v-1.8h2.1v-.6a2.9 2.9 0 0 1 .7-2.2 3.6 3.6 0 0 1 2.4-.6h1.9v1.8h-1.8l-.7.2a1.1 1.1 0 0 0-.2.6zM442.7 315.5a4.9 4.9 0 0 1 1.1-3.4 4.1 4.1 0 0 1 5.9 0 5.7 5.7 0 0 1 0 6.7 4.1 4.1 0 0 1-5.9 0 4.9 4.9 0 0 1-1.1-3.3zm4-2.7a1.5 1.5 0 0 0-1.3.7 4.6 4.6 0 0 0 0 4 1.5 1.5 0 0 0 2.6 0 4.6 4.6 0 0 0 0-4 1.5 1.5 0 0 0-1.3-.7zM460.5 313.5l-.9-.5-1.1-.2-1.3.3a1.9 1.9 0 0 0-.8.7 2 2 0 0 0-.3.7 8 8 0 0 0-.1 1.3v4h-2.3v-8.7h2.3v1.4a2.5 2.5 0 0 1 1-1.2 3.1 3.1 0 0 1 1.6-.4h.9l.9.3v2.2zM461.2 311.1h1.9l1 6.7.9-4.4h1.9l.9 4.4 1.1-6.7h1.9l-1.6 8.8h-2.2l-1.1-4.5-1.1 4.5h-2.2zM479.5 314.9v5h-2.3v-1a2.8 2.8 0 0 1-1.1.9 3.7 3.7 0 0 1-3.8-.5 2.9 2.9 0 0 1-.8-2.2 2.6 2.6 0 0 1 1-2.3 5.2 5.2 0 0 1 3.1-.7h1.6v-.4a1 1 0 0 0-.4-.8 2 2 0 0 0-1.2-.3l-1.6.2-1.6.7v-2l1.5-.5h1.7a4.2 4.2 0 0 1 3 .9 4.4 4.4 0 0 1 .9 3zm-3.2.9a3.5 3.5 0 0 0-1.8.3 1.2 1.2 0 0 0-.5 1.1 1.2 1.2 0 0 0 1.3 1.3 1.6 1.6 0 0 0 1.4-.7 3.2 3.2 0 0 0 .5-1.9v-.2h-.9zM489.4 313.5l-.9-.5-1.1-.2-1.3.3a1.9 1.9 0 0 0-.8.7 2 2 0 0 0-.3.7 8 8 0 0 0-.1 1.3v4h-2.3v-8.7h2.4v1.4a2.5 2.5 0 0 1 1-1.2 3.1 3.1 0 0 1 1.6-.4h.9l.9.3v2.2zM496.3 312.4v-4.6h2.3v12.2h-2.3v-1.3a2.8 2.8 0 0 1-.9 1.1 2.4 2.4 0 0 1-1.4.4 2.7 2.7 0 0 1-2.3-1.2 5.9 5.9 0 0 1-.8-3.4 5.9 5.9 0 0 1 .8-3.4 2.8 2.8 0 0 1 2.4-1.2 2.3 2.3 0 0 1 1.3.4 3.2 3.2 0 0 1 .9 1zm-3.2 3.2a3.9 3.9 0 0 0 .4 2 1.3 1.3 0 0 0 1.2.7 1.3 1.3 0 0 0 1.2-.7 4.8 4.8 0 0 0 0-4 1.3 1.3 0 0 0-1.2-.7 1.3 1.3 0 0 0-1.2.7 3.9 3.9 0 0 0-.4 1.9z"/></svg>