<svg xmlns="http://www.w3.org/2000/svg" width="792" height="612" viewBox="0 0 792 612"><defs><style>.a{fill:#58595b;}.b{fill:#b4d44f;}.c,.f,.i,.l{fill:none;stroke-miterlimit:10;stroke-width:8px;}.c{stroke:#849f3a;}.d{fill:#657d2b;}.e{fill:#fbef4b;}.f{stroke:#b4ae39;}.g{fill:#807d24;}.h{fill:#f9a11b;}.i{stroke:#b97810;}.j{fill:#905d00;}.k{fill:#00a8e1;}.l{stroke:#0080ab;}.m{fill:#006488;}.n{fill:#579577;stroke:#579577;stroke-linecap:round;stroke-linejoin:round;stroke-width:4px;}</style></defs><title>questions</title><path class="a" d="M115.1 141.7h5.4v16.1h2.9v4.4h-2.9v5.7h-5v-5.7h-10.3v-5zm.5 5.8l-6.6 10.3h6.6v-10.4zM133 161.5h5.9v6.5h-5.9v-6.5zM187.4 167.2a11.2 11.2 0 0 1-2.6.9 12.5 12.5 0 0 1-2.8.3q-5.3 0-8.1-3.5t-2.8-10.1q0-6.6 2.8-10.1t8.1-3.5a12.7 12.7 0 0 1 2.9.3 10.5 10.5 0 0 1 2.6.9v5.8a10.1 10.1 0 0 0-2.6-1.8 6.2 6.2 0 0 0-2.6-.6 4.8 4.8 0 0 0-4.3 2.3q-1.5 2.3-1.5 6.7t1.5 6.7a4.8 4.8 0 0 0 4.3 2.3 6.2 6.2 0 0 0 2.6-.6 10.1 10.1 0 0 0 2.6-1.8v5.8zM191.8 158.1a11 11 0 0 1 2.5-7.5 9.3 9.3 0 0 1 13.3 0 12.8 12.8 0 0 1 0 15.1 9.3 9.3 0 0 1-13.3 0 11 11 0 0 1-2.5-7.6zm9.1-6.2a3.3 3.3 0 0 0-2.9 1.6 10.2 10.2 0 0 0 0 9.1 3.4 3.4 0 0 0 5.8 0 10.2 10.2 0 0 0 0-9.1 3.3 3.3 0 0 0-2.9-1.6zM218.6 159.7v-15.2h-5.2v-4h10.4v19.1a5.7 5.7 0 0 0 .7 3.3 2.9 2.9 0 0 0 2.4 1h4.1v4h-5.6q-3.7 0-5.3-1.9t-1.5-6.3zM240.2 159.7v-15.2h-5.2v-4h10.4v19.1a5.7 5.7 0 0 0 .7 3.3 2.9 2.9 0 0 0 2.4 1h4.1v4h-5.6q-3.7 0-5.3-1.9t-1.5-6.3zM274.5 166.9a19.6 19.6 0 0 1-3.7 1.1 20.2 20.2 0 0 1-3.9.4q-4.9 0-7.5-2.6t-2.6-7.6a11 11 0 0 1 2.5-7.6 10 10 0 0 1 13.6-.2q2.4 2.6 2.4 7.3v2.1h-13.3a4.3 4.3 0 0 0 1.4 3.5 6.1 6.1 0 0 0 4 1.1 12.3 12.3 0 0 0 3.5-.5 16.3 16.3 0 0 0 3.6-1.6v4.7zm-4.4-11.1a4.4 4.4 0 0 0-1-3.1 4 4 0 0 0-3-1 3.8 3.8 0 0 0-2.8 1.1 4.9 4.9 0 0 0-1.2 3.1h8.1zM295.4 166.9a10.8 10.8 0 0 1-2.8 1.1 13.1 13.1 0 0 1-3.2.4 9.3 9.3 0 0 1-7.1-2.7 10.7 10.7 0 0 1-2.6-7.6q0-4.9 2.6-7.6a9.3 9.3 0 0 1 7.1-2.8 12.5 12.5 0 0 1 3 .4 13 13 0 0 1 2.9 1.1v4.7a8.4 8.4 0 0 0-2.5-1.5 7.7 7.7 0 0 0-2.8-.5 4.8 4.8 0 0 0-3.9 1.6 6.9 6.9 0 0 0-1.4 4.6 6.8 6.8 0 0 0 1.4 4.5 4.8 4.8 0 0 0 3.9 1.6 7.7 7.7 0 0 0 2.8-.5 8.2 8.2 0 0 0 2.5-1.5v4.7zM310.6 142.6v5.6h6.7v4h-6.7v9.3a2.4 2.4 0 0 0 .6 1.9 3.2 3.2 0 0 0 2.1.6h4v4h-4.3q-4.4 0-6-1.4t-1.6-5.2v-9.1h-5v-4h5v-5.6h5.2zM353.9 142.6v5.6h6.7v4h-6.7v9.3a2.4 2.4 0 0 0 .6 1.9 3.2 3.2 0 0 0 2.1.6h4v4h-4.3q-4.4 0-6-1.4t-1.6-5.2v-9.1h-5v-4h5v-5.6h5.2zM382.3 155.1v12.8h-5.1v-12a5.7 5.7 0 0 0-.6-3 2.2 2.2 0 0 0-2-.9 2.5 2.5 0 0 0-2.2 1.2 6.4 6.4 0 0 0-.8 3.4v11.3h-5.1v-27.3h5.1v10.6a4.8 4.8 0 0 1 1.9-2.5 5.5 5.5 0 0 1 3.2-.9 5 5 0 0 1 4.2 1.9 9 9 0 0 1 1.4 5.4zM404.5 166.9a19.6 19.6 0 0 1-3.7 1.1 20.2 20.2 0 0 1-3.9.4q-4.9 0-7.5-2.6t-2.6-7.6a11 11 0 0 1 2.5-7.6 10 10 0 0 1 13.6-.2q2.4 2.6 2.4 7.3v2.1h-13.3a4.3 4.3 0 0 0 1.4 3.5 6.1 6.1 0 0 0 4 1.1 12.3 12.3 0 0 0 3.5-.5 16.3 16.3 0 0 0 3.6-1.6v4.7zm-4.4-11.1a4.4 4.4 0 0 0-1-3.1 4 4 0 0 0-3-1 3.8 3.8 0 0 0-2.8 1.1 4.9 4.9 0 0 0-1.2 3.1h8.1zM447.8 166.4q0 4.7-2.1 6.8t-6.9 2.1l-3.2-.2-3.2-.7v-4.7a12.3 12.3 0 0 0 6.1 1.6 4.4 4.4 0 0 0 3.2-1 4.4 4.4 0 0 0 1-3.2v-2.1a5 5 0 0 1-2 2.1 6.2 6.2 0 0 1-3 .7 6.4 6.4 0 0 1-5.4-2.6 11.6 11.6 0 0 1-2-7.2 12.4 12.4 0 0 1 2-7.4 6.3 6.3 0 0 1 5.3-2.7 5.7 5.7 0 0 1 3 .8 5.5 5.5 0 0 1 2.1 2.2v-2.5h5.2v18.2zm-5.2-8.7a7.9 7.9 0 0 0-1-4.2 3 3 0 0 0-2.6-1.6 3 3 0 0 0-2.6 1.6 9.6 9.6 0 0 0 0 8.5 3 3 0 0 0 2.6 1.6 3 3 0 0 0 2.6-1.6 7.9 7.9 0 0 0 1-4.2zM470.4 153.7a5.5 5.5 0 0 0-2-1.2 7.7 7.7 0 0 0-2.5-.4 6.7 6.7 0 0 0-2.9.6 4.3 4.3 0 0 0-1.9 1.7 4.4 4.4 0 0 0-.6 1.6 18.1 18.1 0 0 0-.2 2.9v9.1h-5.2v-19.8h5.2v3.1a5.6 5.6 0 0 1 2.3-2.6 7.1 7.1 0 0 1 3.7-.9l2.1.3 1.9.7v4.9zM491.2 166.9a19.6 19.6 0 0 1-3.7 1.1 20.2 20.2 0 0 1-3.9.4q-4.9 0-7.5-2.6t-2.6-7.6a11 11 0 0 1 2.5-7.6 10 10 0 0 1 13.6-.2q2.4 2.6 2.4 7.3v2.1h-13.3a4.3 4.3 0 0 0 1.4 3.5 6.1 6.1 0 0 0 4 1.1 12.3 12.3 0 0 0 3.5-.5 16.3 16.3 0 0 0 3.6-1.6v4.7zm-4.4-11.1a4.4 4.4 0 0 0-1-3.1 4 4 0 0 0-3-1 3.8 3.8 0 0 0-2.8 1.1 4.9 4.9 0 0 0-1.2 3.1h8.1zM512.9 166.9a19.6 19.6 0 0 1-3.7 1.1 20.2 20.2 0 0 1-3.9.4q-4.9 0-7.5-2.6t-2.6-7.6a11 11 0 0 1 2.5-7.6 10 10 0 0 1 13.6-.2q2.4 2.6 2.4 7.3v2.1h-13.3a4.3 4.3 0 0 0 1.4 3.5 6.1 6.1 0 0 0 4 1.1 12.3 12.3 0 0 0 3.5-.5 16.3 16.3 0 0 0 3.6-1.6v4.7zm-4.4-11.1a4.4 4.4 0 0 0-1-3.1 4 4 0 0 0-3-1 3.8 3.8 0 0 0-2.8 1.1 4.9 4.9 0 0 0-1.2 3.1h8.1zM534 155.1v12.8h-5.1v-12a5.8 5.8 0 0 0-.6-3.1 2.2 2.2 0 0 0-2-.9 2.5 2.5 0 0 0-2.2 1.2 6.4 6.4 0 0 0-.8 3.5v11.3h-5.1v-19.7h5.1v3a4.8 4.8 0 0 1 1.9-2.5 5.5 5.5 0 0 1 3.2-.9 5 5 0 0 1 4.2 1.9 9 9 0 0 1 1.4 5.4zM576 148.8v4.5a11.8 11.8 0 0 0-3-1.4 10.6 10.6 0 0 0-3.1-.5 5.4 5.4 0 0 0-2.6.5 1.6 1.6 0 0 0-.9 1.5q0 1.4 3.8 2.3h.2l1.5.4a7.7 7.7 0 0 1 4.1 2.2 5.9 5.9 0 0 1 1.3 4 5.4 5.4 0 0 1-2 4.6q-2 1.5-6 1.5a22.3 22.3 0 0 1-3.6-.3l-3.8-.9v-4.5a16.1 16.1 0 0 0 3.5 1.5 12.3 12.3 0 0 0 3.4.5 5.7 5.7 0 0 0 2.7-.5 1.7 1.7 0 0 0 .9-1.5 1.8 1.8 0 0 0-.7-1.5 9.5 9.5 0 0 0-3.1-1.1l-1.4-.3a8.4 8.4 0 0 1-4.3-2.1 5.9 5.9 0 0 1 .7-8.2 9.3 9.3 0 0 1 5.8-1.6l3.3.3zM592.4 142.6v5.6h6.7v4h-6.7v9.3a2.4 2.4 0 0 0 .6 1.9 3.2 3.2 0 0 0 2.1.6h4v4h-4.3q-4.4 0-6-1.4t-1.6-5.2v-9.1h-5v-4h5v-5.6h5.2zM603.6 158.1a11 11 0 0 1 2.5-7.5 9.3 9.3 0 0 1 13.3 0 12.8 12.8 0 0 1 0 15.1 9.3 9.3 0 0 1-13.3 0 11 11 0 0 1-2.5-7.6zm9.1-6.2a3.3 3.3 0 0 0-2.9 1.6 10.2 10.2 0 0 0 0 9.1 3.4 3.4 0 0 0 5.8 0 10.2 10.2 0 0 0 0-9.1 3.3 3.3 0 0 0-2.9-1.6zM642.4 155.1v12.8h-5.1v-12a5.8 5.8 0 0 0-.6-3.1 2.2 2.2 0 0 0-2-.9 2.5 2.5 0 0 0-2.2 1.2 6.4 6.4 0 0 0-.8 3.5v11.3h-5.1v-19.7h5.1v3a4.8 4.8 0 0 1 1.9-2.5 5.5 5.5 0 0 1 3.2-.9 5 5 0 0 1 4.2 1.9 9 9 0 0 1 1.4 5.4zM664.6 166.9a19.6 19.6 0 0 1-3.7 1.1 20.2 20.2 0 0 1-3.9.4q-4.9 0-7.5-2.6t-2.6-7.6a11 11 0 0 1 2.5-7.6 10 10 0 0 1 13.6-.2q2.4 2.6 2.4 7.3v2.1h-13.3a4.3 4.3 0 0 0 1.4 3.5 6.1 6.1 0 0 0 4 1.1 12.3 12.3 0 0 0 3.5-.5 16.3 16.3 0 0 0 3.6-1.6v4.7zm-4.4-11.1a4.4 4.4 0 0 0-1-3.1 4 4 0 0 0-3-1 3.8 3.8 0 0 0-2.8 1.1 4.9 4.9 0 0 0-1.2 3.1h8.1zM674.8 161.5h5.9v6.5h-5.9v-6.5zM254.6 391l-3.9 3.8 3.9 3.9-2 1.9-3.9-3.8-3.8 3.8-2-1.9 3.9-3.9-3.9-3.8 2-2 3.8 3.8 3.9-3.8zM258.2 399.3h3.9v-11.3l-3.6.9v-3.1l3.6-.9h3.3v14.4h3.9v3h-11.1v-3z"/><rect class="b" x="198.5" y="249" width="115" height="115" rx="12" ry="12"/><rect class="c" x="208.5" y="259" width="95" height="95" rx="2" ry="2" transform="translate(562.5 50.5) rotate(90)"/><path class="d" d="M245.5 295.6a5.9 5.9 0 0 1-2.4-1.4 2.9 2.9 0 0 1-.6-2 3.2 3.2 0 0 1 1-2.5 4 4 0 0 1 2.8-.9l1.7.2 1.6.5v2.3l-1.5-.8-1.5-.3a2.1 2.1 0 0 0-1.3.3 1.1 1.1 0 0 0-.4 1 1.1 1.1 0 0 0 .3.8l1.4.7 1 .4a4.5 4.5 0 0 1 2.1 1.4 3.4 3.4 0 0 1 .7 2.1 3.2 3.2 0 0 1-1 2.6 4.8 4.8 0 0 1-3.2.9l-1.7-.2-1.7-.6v-2.4a7.8 7.8 0 0 0 1.8 1 4.9 4.9 0 0 0 1.7.3 2 2 0 0 0 1.3-.4 1.3 1.3 0 0 0 .5-1.1 1.4 1.4 0 0 0-.3-.9 2.1 2.1 0 0 0-.9-.6zM259.8 300.2l-1.6.5-1.7.2a4.5 4.5 0 0 1-3.4-1.2 4.6 4.6 0 0 1-1.2-3.4 4.9 4.9 0 0 1 1.1-3.4 4.4 4.4 0 0 1 6.1-.1 4.6 4.6 0 0 1 1.1 3.2v1h-5.9a1.9 1.9 0 0 0 .6 1.5 2.7 2.7 0 0 0 1.8.5l1.6-.2 1.6-.7v2.1zm-1.9-4.9a2 2 0 0 0-.5-1.4 1.8 1.8 0 0 0-1.3-.5 1.7 1.7 0 0 0-1.3.5 2.2 2.2 0 0 0-.6 1.4h3.6zM266.2 289.4v2.5h3v1.8h-3v4.1a1.1 1.1 0 0 0 .3.8 1.4 1.4 0 0 0 .9.3h1.8v1.8h-1.9a4.1 4.1 0 0 1-2.7-.6 3.1 3.1 0 0 1-.7-2.3v-4h-2.2v-1.8h2.2v-2.5h2.3zM222.3 317.9l2.1-9.7h2.3l-2.8 11.7h-3.2l-2.8-11.7h2.3zM235.8 314.9v5h-2.3v-1a2.8 2.8 0 0 1-1.1.9 3.7 3.7 0 0 1-3.8-.5 2.9 2.9 0 0 1-.8-2.2 2.6 2.6 0 0 1 1-2.3 5.2 5.2 0 0 1 3.1-.7h1.6v-.4a1 1 0 0 0-.4-.8 2 2 0 0 0-1.2-.3l-1.6.2-1.6.7v-2l1.5-.5h1.7a4.2 4.2 0 0 1 3 .9 4.4 4.4 0 0 1 .9 3zm-3.2.9a3.5 3.5 0 0 0-1.8.3 1.2 1.2 0 0 0-.5 1.1 1.2 1.2 0 0 0 1.3 1.3 1.6 1.6 0 0 0 1.4-.7 3.2 3.2 0 0 0 .5-1.9v-.2h-.9zM245.7 313.5l-.9-.5-1.1-.2-1.3.3a1.9 1.9 0 0 0-.8.7 2 2 0 0 0-.3.7 8 8 0 0 0-.1 1.3v4h-2.2v-8.7h2.3v1.4a2.5 2.5 0 0 1 1-1.2 3.1 3.1 0 0 1 1.6-.4h.9l.9.3v2.2zM248.1 311.1h4.5v7h2.8v1.8h-8v-1.8h2.9v-5.2h-2.2v-1.8zm2.2-4.3h2.3v2.7h-2.3v-2.7zM264.7 314.9v5h-2.3v-1a2.8 2.8 0 0 1-1.1.9 3.7 3.7 0 0 1-3.8-.5 2.9 2.9 0 0 1-.8-2.2 2.6 2.6 0 0 1 1-2.3 5.2 5.2 0 0 1 3.1-.7h1.6v-.4a1 1 0 0 0-.4-.8 2 2 0 0 0-1.2-.3l-1.6.2-1.6.7v-2l1.5-.5h1.7a4.2 4.2 0 0 1 3 .9 4.4 4.4 0 0 1 .9 3zm-3.2.9a3.5 3.5 0 0 0-1.8.3 1.2 1.2 0 0 0-.5 1.1 1.2 1.2 0 0 0 1.3 1.3 1.6 1.6 0 0 0 1.4-.7 3.2 3.2 0 0 0 .5-1.9v-.2h-.9zM269.1 312.4a3.2 3.2 0 0 1 1-1.1 2.3 2.3 0 0 1 1.3-.4 2.8 2.8 0 0 1 2.4 1.2 5.9 5.9 0 0 1 .8 3.4 5.9 5.9 0 0 1-.8 3.4 2.7 2.7 0 0 1-2.3 1.2 2.5 2.5 0 0 1-1.4-.4 2.7 2.7 0 0 1-.9-1.1v1.3h-2.3v-12.2h2.3v4.6zm3.2 3.2a3.9 3.9 0 0 0-.4-2 1.3 1.3 0 0 0-1.2-.7 1.3 1.3 0 0 0-1.2.7 4.8 4.8 0 0 0 0 4 1.3 1.3 0 0 0 1.2.7 1.3 1.3 0 0 0 1.2-.7 3.9 3.9 0 0 0 .4-2.1zM278.3 316.2v-6.7h-2.3v-1.8h4.6v8.5a2.5 2.5 0 0 0 .3 1.5 1.3 1.3 0 0 0 1.1.4h1.8v1.8h-2.5a2.9 2.9 0 0 1-2.3-.8 4.4 4.4 0 0 1-.7-2.9zM293.5 319.4l-1.6.5-1.7.2a4.5 4.5 0 0 1-3.4-1.2 4.6 4.6 0 0 1-1.2-3.4 4.9 4.9 0 0 1 1.1-3.4 4.4 4.4 0 0 1 6.1-.1 4.6 4.6 0 0 1 1.1 3.2v.9h-5.9a1.9 1.9 0 0 0 .6 1.5 2.7 2.7 0 0 0 1.8.5l1.6-.2 1.6-.7v2.1zm-1.9-4.9a2 2 0 0 0-.5-1.4 1.8 1.8 0 0 0-1.3-.5 1.7 1.7 0 0 0-1.3.5 2.2 2.2 0 0 0-.6 1.4h3.6z"/><path class="a" d="M394.6 391l-3.9 3.8 3.9 3.9-2 1.9-3.9-3.8-3.8 3.8-2-1.9 3.9-3.9-3.9-3.8 2-2 3.8 3.8 3.9-3.8zM402.4 394.6h-1.9v-3h1.9a3.4 3.4 0 0 0 2-.5 1.7 1.7 0 0 0 .7-1.4 1.8 1.8 0 0 0-.7-1.5 3.2 3.2 0 0 0-2-.5l-2.1.2-2.3.7v-3.1l2.4-.6 2.3-.2a6.9 6.9 0 0 1 4.3 1.2 4 4 0 0 1 1.5 3.3 3.7 3.7 0 0 1-.9 2.5 4.4 4.4 0 0 1-2.5 1.3 4.2 4.2 0 0 1 3.8 4.6 4.7 4.7 0 0 1-1.6 3.9 7.3 7.3 0 0 1-4.7 1.3l-2.6-.2-2.5-.6v-3.2a10.4 10.4 0 0 0 2.4.8 12.2 12.2 0 0 0 2.7.3 3.5 3.5 0 0 0 2.2-.7 2.1 2.1 0 0 0 .8-1.8 2.6 2.6 0 0 0-.8-2.1 3.4 3.4 0 0 0-2.4-.7z"/><rect class="e" x="338.5" y="249" width="115" height="115" rx="12" ry="12"/><rect class="f" x="348.5" y="259" width="95" height="95" rx="2" ry="2" transform="translate(702.5 -89.5) rotate(90)"/><path class="g" d="M377.4 289h2.8l1.4 5.1 1.4-5.1h2.8v11.7h-2v-9.3l-1.2 5.1h-1.8l-1.2-5.1v9.3h-2v-11.7zM387.1 296.3a4.9 4.9 0 0 1 1.1-3.4 4.1 4.1 0 0 1 5.9 0 5.7 5.7 0 0 1 0 6.7 4.1 4.1 0 0 1-5.9 0 4.9 4.9 0 0 1-1.1-3.3zm4-2.7a1.5 1.5 0 0 0-1.3.7 4.6 4.6 0 0 0 0 4 1.5 1.5 0 0 0 2.6 0 4.6 4.6 0 0 0 0-4 1.5 1.5 0 0 0-1.2-.7zM405 291.9l-2.8 8.8h-2.8l-2.8-8.7h2.3l1.9 6.8 1.9-6.8h2.3zM414.2 300.2l-1.6.5-1.7.2a4.5 4.5 0 0 1-3.4-1.2 4.6 4.6 0 0 1-1.2-3.4 4.9 4.9 0 0 1 1.1-3.4 4.4 4.4 0 0 1 6.1-.1 4.6 4.6 0 0 1 1.1 3.2v1h-5.9a1.9 1.9 0 0 0 .6 1.5 2.7 2.7 0 0 0 1.8.5l1.6-.2 1.6-.7v2.1zm-1.9-4.9a2 2 0 0 0-.5-1.4 1.8 1.8 0 0 0-1.3-.5 1.7 1.7 0 0 0-1.3.5 2.2 2.2 0 0 0-.6 1.4h3.6zM368.1 310.4v.8h2.7v1.8h-2.7v7h-2.3v-7h-2.1v-1.8h2.1v-.6a2.9 2.9 0 0 1 .7-2.2 3.6 3.6 0 0 1 2.4-.6h1.9v1.8h-1.8l-.7.2a1.1 1.1 0 0 0-.2.6zM372.7 315.5a4.9 4.9 0 0 1 1.1-3.4 4.1 4.1 0 0 1 5.9 0 5.7 5.7 0 0 1 0 6.7 4.1 4.1 0 0 1-5.9 0 4.9 4.9 0 0 1-1.1-3.3zm4-2.7a1.5 1.5 0 0 0-1.3.7 4.6 4.6 0 0 0 0 4 1.5 1.5 0 0 0 2.6 0 4.6 4.6 0 0 0 0-4 1.5 1.5 0 0 0-1.3-.7zM390.5 313.5l-.9-.5-1.1-.2-1.3.3a1.9 1.9 0 0 0-.8.7 2 2 0 0 0-.3.7 8 8 0 0 0-.1 1.3v4h-2.3v-8.7h2.3v1.4a2.5 2.5 0 0 1 1-1.2 3.1 3.1 0 0 1 1.6-.4h.9l.9.3v2.2zM391.2 311.1h1.9l1 6.7.9-4.4h1.9l.9 4.4 1.1-6.7h1.9l-1.6 8.8h-2.2l-1.1-4.5-1.1 4.5h-2.2zM409.5 314.9v5h-2.3v-1a2.8 2.8 0 0 1-1.1.9 3.7 3.7 0 0 1-3.8-.5 2.9 2.9 0 0 1-.8-2.2 2.6 2.6 0 0 1 1-2.3 5.2 5.2 0 0 1 3.1-.7h1.6v-.4a1 1 0 0 0-.4-.8 2 2 0 0 0-1.2-.3l-1.6.2-1.6.7v-2l1.5-.5h1.7a4.2 4.2 0 0 1 3 .9 4.4 4.4 0 0 1 .9 3zm-3.2.9a3.5 3.5 0 0 0-1.8.3 1.2 1.2 0 0 0-.5 1.1 1.2 1.2 0 0 0 1.3 1.3 1.6 1.6 0 0 0 1.4-.7 3.2 3.2 0 0 0 .5-1.9v-.2h-.9zM419.4 313.5l-.9-.5-1.1-.2-1.3.3a1.9 1.9 0 0 0-.8.7 2 2 0 0 0-.3.7 8 8 0 0 0-.1 1.3v4h-2.3v-8.7h2.4v1.4a2.5 2.5 0 0 1 1-1.2 3.1 3.1 0 0 1 1.6-.4h.9l.9.3v2.2zM426.3 312.4v-4.6h2.3v12.2h-2.3v-1.3a2.8 2.8 0 0 1-.9 1.1 2.4 2.4 0 0 1-1.4.4 2.7 2.7 0 0 1-2.3-1.2 5.9 5.9 0 0 1-.8-3.4 5.9 5.9 0 0 1 .8-3.4 2.8 2.8 0 0 1 2.4-1.2 2.3 2.3 0 0 1 1.3.4 3.2 3.2 0 0 1 .9 1zm-3.2 3.2a3.9 3.9 0 0 0 .4 2 1.3 1.3 0 0 0 1.2.7 1.3 1.3 0 0 0 1.2-.7 4.8 4.8 0 0 0 0-4 1.3 1.3 0 0 0-1.2-.7 1.3 1.3 0 0 0-1.2.7 3.9 3.9 0 0 0-.4 1.9z"/><path class="a" d="M534.6 391l-3.9 3.8 3.9 3.9-2 1.9-3.9-3.8-3.8 3.8-2-1.9 3.9-3.9-3.9-3.8 2-2 3.8 3.8 3.9-3.8zM538.2 399.3h3.9v-11.3l-3.6.9v-3.1l3.6-.9h3.3v14.4h3.9v3h-11.1v-3z"/><rect class="e" x="478.5" y="249" width="115" height="115" rx="12" ry="12"/><rect class="f" x="488.5" y="259" width="95" height="95" rx="2" ry="2" transform="translate(842.5 -229.5) rotate(90)"/><path class="g" d="M522.7 310.3h-2.3v-9.6h-3v-2h8.2v2h-3v9.6zM527.6 307.2v-5.7h2.3v5.3a2.6 2.6 0 0 0 .3 1.4 1 1 0 0 0 .9.4 1.1 1.1 0 0 0 1-.5 2.9 2.9 0 0 0 .3-1.5v-5h2.3v8.8h-2.3v-1.4a2.1 2.1 0 0 1-.8 1.1 2.4 2.4 0 0 1-1.4.4 2.2 2.2 0 0 1-1.9-.8 4 4 0 0 1-.7-2.5zM545 303.9l-.9-.5-1.1-.2-1.3.3a1.9 1.9 0 0 0-.8.7 2 2 0 0 0-.3.7 8 8 0 0 0-.1 1.3v4h-2.3v-8.7h2.3v1.4a2.5 2.5 0 0 1 1-1.2 3.1 3.1 0 0 1 1.6-.4h.9l.9.3v2.2zM554 304.6v5.7h-2.3v-5.3a2.6 2.6 0 0 0-.3-1.4 1 1 0 0 0-.9-.4 1.1 1.1 0 0 0-1 .6 2.8 2.8 0 0 0-.4 1.5v5h-2.1v-8.7h2.3v1.3a2.1 2.1 0 0 1 .8-1.1 2.5 2.5 0 0 1 1.4-.4 2.2 2.2 0 0 1 1.9.8 4 4 0 0 1 .6 2.4z"/><path class="a" d="M114.6 569.5l-3.9 3.8 3.9 3.9-2 1.9-3.9-3.8-3.8 3.8-2-1.9 3.9-3.9-3.9-3.8 2-2 3.8 3.8 3.9-3.8zM121.1 577.8h7.4v3h-11.2v-3l1.9-2 4.1-4.4a8.8 8.8 0 0 0 1.3-1.8 3.4 3.4 0 0 0 .4-1.5 2.3 2.3 0 0 0-.7-1.8 2.9 2.9 0 0 0-2-.6 6.9 6.9 0 0 0-2.1.4l-2.4 1.1v-3.2l2.5-.7 2.3-.2a6.7 6.7 0 0 1 4.4 1.3 4.3 4.3 0 0 1 1.6 3.5 5.4 5.4 0 0 1-.3 1.9 8.3 8.3 0 0 1-1.2 2l-3.4 3.6z"/><rect class="h" x="58.5" y="427.5" width="115" height="115" rx="12" ry="12"/><rect class="i" x="68.5" y="437.5" width="95" height="95" rx="2" ry="2" transform="translate(601 369) rotate(90)"/><path class="j" d="M98.5 488.8v-11.7h2.3v9.6h4.9v2h-7.2zM107.1 484.4a4.9 4.9 0 0 1 1.1-3.4 4.1 4.1 0 0 1 5.9 0 5.7 5.7 0 0 1 0 6.7 4.1 4.1 0 0 1-5.9 0 4.9 4.9 0 0 1-1.1-3.3zm4-2.7a1.5 1.5 0 0 0-1.3.7 4.6 4.6 0 0 0 0 4 1.5 1.5 0 0 0 2.6 0 4.6 4.6 0 0 0 0-4 1.5 1.5 0 0 0-1.2-.7zM116.8 484.4a4.9 4.9 0 0 1 1.1-3.4 4.1 4.1 0 0 1 5.9 0 5.7 5.7 0 0 1 0 6.7 4.1 4.1 0 0 1-5.9 0 4.9 4.9 0 0 1-1.1-3.3zm4-2.7a1.5 1.5 0 0 0-1.3.7 4.6 4.6 0 0 0 0 4 1.5 1.5 0 0 0 2.6 0 4.6 4.6 0 0 0 0-4 1.5 1.5 0 0 0-1.3-.7zM129.1 487.5v4.6h-2.3v-12.1h2.3v1.3a2.7 2.7 0 0 1 .9-1.1 2.5 2.5 0 0 1 1.4-.4 2.7 2.7 0 0 1 2.3 1.2 5.9 5.9 0 0 1 .8 3.4 5.9 5.9 0 0 1-.8 3.4 2.8 2.8 0 0 1-2.4 1.2 2.3 2.3 0 0 1-1.3-.4 3.1 3.1 0 0 1-.9-1.1zm3.2-3.1a3.9 3.9 0 0 0-.4-2 1.3 1.3 0 0 0-1.2-.7 1.3 1.3 0 0 0-1.2.7 4.8 4.8 0 0 0 0 4 1.3 1.3 0 0 0 1.2.7 1.3 1.3 0 0 0 1.2-.7 3.9 3.9 0 0 0 .4-2z"/><path class="a" d="M254.6 569.5l-3.9 3.8 3.9 3.9-2 1.9-3.9-3.8-3.8 3.8-2-1.9 3.9-3.9-3.9-3.8 2-2 3.8 3.8 3.9-3.8zM261.1 577.8h7.4v3h-11.2v-3l1.9-2 4.1-4.4a8.8 8.8 0 0 0 1.3-1.8 3.4 3.4 0 0 0 .4-1.5 2.3 2.3 0 0 0-.7-1.8 2.9 2.9 0 0 0-2-.6 6.9 6.9 0 0 0-2.1.4l-2.4 1.1v-3.2l2.5-.7 2.3-.2a6.7 6.7 0 0 1 4.4 1.3 4.3 4.3 0 0 1 1.6 3.5 5.4 5.4 0 0 1-.3 1.9 8.3 8.3 0 0 1-1.2 2l-3.4 3.6z"/><rect class="h" x="198.5" y="427.5" width="115" height="115" rx="12" ry="12"/><rect class="i" x="208.5" y="437.5" width="95" height="95" rx="2" ry="2" transform="translate(741 229) rotate(90)"/><path class="j" d="M247.7 479.1v-2h6.9v2h-2.3v7.6h2.3v2h-6.9v-2h2.3v-7.6h-2.3zM261.8 479.2v.8h2.7v1.8h-2.7v7h-2.3v-7h-2.1v-1.8h2.1v-.6a2.9 2.9 0 0 1 .7-2.2 3.6 3.6 0 0 1 2.4-.6h1.9v1.8h-1.8l-.7.2a1 1 0 0 0-.2.6z"/><path class="a" d="M394.6 569.5l-3.9 3.8 3.9 3.9-2 1.9-3.9-3.8-3.8 3.8-2-1.9 3.9-3.9-3.9-3.8 2-2 3.8 3.8 3.9-3.8zM401.1 577.8h7.4v3h-11.2v-3l1.9-2 4.1-4.4a8.8 8.8 0 0 0 1.3-1.8 3.4 3.4 0 0 0 .4-1.5 2.3 2.3 0 0 0-.7-1.8 2.9 2.9 0 0 0-2-.6 6.9 6.9 0 0 0-2.1.4l-2.4 1.1v-3.2l2.5-.7 2.3-.2a6.7 6.7 0 0 1 4.4 1.3 4.3 4.3 0 0 1 1.6 3.5 5.4 5.4 0 0 1-.3 1.9 8.3 8.3 0 0 1-1.2 2l-3.4 3.6z"/><rect class="h" x="338.5" y="427.5" width="115" height="115" rx="12" ry="12"/><rect class="i" x="348.5" y="437.5" width="95" height="95" rx="2" ry="2" transform="translate(881 89) rotate(90)"/><path class="j" d="M385.3 488.8h-7.3v-11.7h7.3v2h-5v2.5h4.5v2h-4.5v3.1h5v2zM389.4 485.1v-6.7h-2.3v-1.8h4.6v8.5a2.5 2.5 0 0 0 .3 1.5 1.3 1.3 0 0 0 1.1.4h1.8v1.8h-2.5a2.9 2.9 0 0 1-2.3-.8 4.4 4.4 0 0 1-.7-2.9zM403.7 480.3v2l-1.3-.6-1.4-.2-1.2.2a.7.7 0 0 0-.4.7q0 .6 1.7 1h.1l.7.2a3.4 3.4 0 0 1 1.8 1 2.6 2.6 0 0 1 .6 1.8 2.4 2.4 0 0 1-.9 2 4.4 4.4 0 0 1-2.7.7h-1.6l-1.7-.4v-2l1.5.7 1.5.2a2.5 2.5 0 0 0 1.2-.2.7.7 0 0 0 .4-.7.8.8 0 0 0-.3-.7l-1.4-.5h-.6a3.7 3.7 0 0 1-1.9-.9 2.6 2.6 0 0 1 .3-3.7 4.1 4.1 0 0 1 2.6-.7h1.5zM414.2 488.3l-1.6.5-1.7.2a4.5 4.5 0 0 1-3.4-1.2 4.6 4.6 0 0 1-1.2-3.4 4.9 4.9 0 0 1 1.1-3.4 4.4 4.4 0 0 1 6.1-.1 4.6 4.6 0 0 1 1.1 3.2v.9h-5.9a1.9 1.9 0 0 0 .6 1.5 2.7 2.7 0 0 0 1.8.5l1.6-.2 1.6-.7v2.1zm-1.9-4.9a2 2 0 0 0-.5-1.4 1.8 1.8 0 0 0-1.3-.5 1.7 1.7 0 0 0-1.3.5 2.2 2.2 0 0 0-.6 1.4h3.6z"/><path class="a" d="M534.6 569.5l-3.9 3.8 3.9 3.9-2 1.9-3.9-3.8-3.8 3.8-2-1.9 3.9-3.9-3.9-3.8 2-2 3.8 3.8 3.9-3.8zM538.2 577.8h3.9v-11.3l-3.6.9v-3.1l3.6-.9h3.3v14.4h3.9v3h-11.1v-3z"/><rect class="k" x="478.5" y="427.5" width="115" height="115" rx="12" ry="12"/><rect class="l" x="488.5" y="437.5" width="95" height="95" rx="2" ry="2" transform="translate(1021 -51) rotate(90)"/><path class="m" d="M511.1 464.4a5.9 5.9 0 0 1-2.4-1.4 2.9 2.9 0 0 1-.6-2 3.2 3.2 0 0 1 1-2.5 4 4 0 0 1 2.8-.9l1.6.2 1.6.5v2.3l-1.5-.8-1.5-.3a2.1 2.1 0 0 0-1.3.3 1.1 1.1 0 0 0-.4 1 1.1 1.1 0 0 0 .3.8l1.4.7 1 .4a4.5 4.5 0 0 1 2.1 1.4 3.4 3.4 0 0 1 .7 2.1 3.2 3.2 0 0 1-1 2.6 4.8 4.8 0 0 1-3.2.9l-1.7-.2-1.7-.6v-2.4a7.8 7.8 0 0 0 1.8 1 4.9 4.9 0 0 0 1.7.3 2 2 0 0 0 1.3-.4 1.3 1.3 0 0 0 .5-1.1 1.4 1.4 0 0 0-.3-.9 2.1 2.1 0 0 0-.9-.6zM522.9 468.3a3.1 3.1 0 0 1-1 1.1 2.3 2.3 0 0 1-1.3.4 2.8 2.8 0 0 1-2.4-1.2 5.9 5.9 0 0 1-.8-3.4 5.9 5.9 0 0 1 .8-3.4 2.7 2.7 0 0 1 2.3-1.2 2.4 2.4 0 0 1 1.4.4 2.8 2.8 0 0 1 .9 1.1v-1.3h2.3v12.1h-2.3v-4.6zm-3.2-3.1a3.9 3.9 0 0 0 .4 2 1.3 1.3 0 0 0 1.2.7 1.3 1.3 0 0 0 1.2-.7 4.8 4.8 0 0 0 0-4 1.3 1.3 0 0 0-1.2-.7 1.3 1.3 0 0 0-1.2.7 3.9 3.9 0 0 0-.4 2zM527.6 466.5v-5.7h2.3v5.3a2.6 2.6 0 0 0 .3 1.4 1 1 0 0 0 .9.4 1.1 1.1 0 0 0 1-.5 2.8 2.8 0 0 0 .3-1.5v-5h2.3v8.8h-2.3v-1.3a2.1 2.1 0 0 1-.8 1.1 2.4 2.4 0 0 1-1.4.4 2.2 2.2 0 0 1-1.9-.8 4 4 0 0 1-.7-2.6zM544.7 464.6v5h-2.3v-1a2.7 2.7 0 0 1-1.1.9 3.7 3.7 0 0 1-3.8-.5 2.9 2.9 0 0 1-.8-2.2 2.6 2.6 0 0 1 1-2.3 5.2 5.2 0 0 1 3.1-.7h1.6v-.4a1 1 0 0 0-.4-.8 2 2 0 0 0-1.2-.3l-1.6.2-1.6.7v-2l1.5-.5h1.7a4.2 4.2 0 0 1 3 .9 4.4 4.4 0 0 1 .9 3zm-3.2.9a3.5 3.5 0 0 0-1.8.3 1.2 1.2 0 0 0-.5 1.1 1.2 1.2 0 0 0 1.3 1.3 1.6 1.6 0 0 0 1.4-.7 3.2 3.2 0 0 0 .5-1.9v-.2h-.9zM554.6 463.2l-.9-.5-1.1-.2-1.3.3a1.9 1.9 0 0 0-.8.7 2 2 0 0 0-.3.7 8.1 8.1 0 0 0-.1 1.3v4h-2.3v-8.7h2.3v1.4a2.5 2.5 0 0 1 1-1.2 3.1 3.1 0 0 1 1.6-.4h.9l.9.3v2.2zM563.9 469.1l-1.6.5-1.7.2a4.5 4.5 0 0 1-3.4-1.2 4.6 4.6 0 0 1-1.2-3.4 4.9 4.9 0 0 1 1.1-3.4 4.4 4.4 0 0 1 6.1-.1 4.6 4.6 0 0 1 1.1 3.2v.9h-5.9a1.9 1.9 0 0 0 .6 1.5 2.7 2.7 0 0 0 1.8.5l1.6-.2 1.6-.7v2.1zm-1.9-4.9a1.9 1.9 0 0 0-.5-1.4 1.8 1.8 0 0 0-1.3-.5 1.7 1.7 0 0 0-1.3.5 2.2 2.2 0 0 0-.6 1.4h3.6zM520.3 483.1v5.7h-2.3v-5.3a2.5 2.5 0 0 0-.3-1.4 1 1 0 0 0-.9-.4 1.1 1.1 0 0 0-1 .6 2.8 2.8 0 0 0-.4 1.5v5h-2.3v-12.2h2.3v4.7a2.1 2.1 0 0 1 .8-1.1 2.5 2.5 0 0 1 1.4-.4 2.2 2.2 0 0 1 1.9.8 4 4 0 0 1 .8 2.5zM530.2 483.8v5h-2.3v-1a2.7 2.7 0 0 1-1.1.9 3.7 3.7 0 0 1-3.8-.5 2.9 2.9 0 0 1-.8-2.2 2.6 2.6 0 0 1 1-2.3 5.2 5.2 0 0 1 3.1-.7h1.6v-.4a1 1 0 0 0-.4-.8 2 2 0 0 0-1.2-.3l-1.6.2-1.6.7v-2l1.5-.5h1.7a4.2 4.2 0 0 1 3 .9 4.4 4.4 0 0 1 .9 3zm-3.2.9a3.5 3.5 0 0 0-1.8.3 1.2 1.2 0 0 0-.5 1.1 1.2 1.2 0 0 0 1.3 1.3 1.6 1.6 0 0 0 1.4-.7 3.2 3.2 0 0 0 .5-1.9v-.2h-.9zM538.9 480.3v2l-1.3-.6-1.4-.2-1.2.2a.7.7 0 0 0-.4.7q0 .6 1.7 1h.1l.7.2a3.4 3.4 0 0 1 1.8 1 2.6 2.6 0 0 1 .6 1.8 2.4 2.4 0 0 1-.9 2 4.4 4.4 0 0 1-2.7.7h-1.6l-1.7-.4v-2l1.5.7 1.5.2a2.5 2.5 0 0 0 1.2-.2.7.7 0 0 0 .4-.7.8.8 0 0 0-.3-.7l-1.4-.5h-.5a3.7 3.7 0 0 1-1.9-.9 2.6 2.6 0 0 1 .3-3.7 4.1 4.1 0 0 1 2.6-.7h1.5zM559.1 483.8v5h-2.3v-1a2.7 2.7 0 0 1-1.1.9 3.7 3.7 0 0 1-3.8-.5 2.9 2.9 0 0 1-.8-2.2 2.6 2.6 0 0 1 1-2.3 5.2 5.2 0 0 1 3.1-.7h1.6v-.4a1 1 0 0 0-.4-.8 2 2 0 0 0-1.2-.3l-1.6.2-1.6.7v-2l1.5-.5h1.7a4.2 4.2 0 0 1 3 .9 4.4 4.4 0 0 1 .9 3zm-3.2.9a3.5 3.5 0 0 0-1.8.3 1.2 1.2 0 0 0-.5 1.1 1.2 1.2 0 0 0 1.3 1.3 1.6 1.6 0 0 0 1.4-.7 3.2 3.2 0 0 0 .5-1.9v-.2h-.9zM530.1 507.3a4.1 4.1 0 0 1-.9 3 4.3 4.3 0 0 1-3.1.9h-1.4l-1.4-.3v-2.1l1.3.5 1.4.2a2 2 0 0 0 1.4-.5 1.9 1.9 0 0 0 .5-1.4v-.9a2.2 2.2 0 0 1-.9.9 2.8 2.8 0 0 1-1.4.3 2.8 2.8 0 0 1-2.4-1.2 5.2 5.2 0 0 1-.9-3.2 5.5 5.5 0 0 1 .9-3.3 2.8 2.8 0 0 1 2.4-1.2 2.5 2.5 0 0 1 1.3.4 2.5 2.5 0 0 1 .9 1v-1.1h2.3v8.1zm-2.3-3.9a3.5 3.5 0 0 0-.4-1.9 1.3 1.3 0 0 0-2.3 0 4.3 4.3 0 0 0 0 3.8 1.3 1.3 0 0 0 2.3 0 3.5 3.5 0 0 0 .4-1.9zM539.8 507.5l-1.6.5-1.7.2a4.5 4.5 0 0 1-3.4-1.2 4.6 4.6 0 0 1-1.2-3.4 4.9 4.9 0 0 1 1.1-3.4 4.4 4.4 0 0 1 6.1-.1 4.6 4.6 0 0 1 1.1 3.2v.9h-5.9a1.9 1.9 0 0 0 .6 1.5 2.7 2.7 0 0 0 1.8.5l1.6-.2 1.6-.7v2.1zm-1.9-4.9a1.9 1.9 0 0 0-.5-1.4 1.8 1.8 0 0 0-1.3-.5 1.7 1.7 0 0 0-1.3.5 2.2 2.2 0 0 0-.6 1.4h3.6zM546.2 500.1a1.9 1.9 0 0 1 .7-.8 1.7 1.7 0 0 1 1-.3 1.6 1.6 0 0 1 1.6.8 7.8 7.8 0 0 1 .4 3.3v4.9h-1.9v-5.6a3.7 3.7 0 0 0-.1-1.3.5.5 0 0 0-.5-.3.6.6 0 0 0-.5.3 3.6 3.6 0 0 0-.2 1.3v5.6h-1.9v-5.6a3.5 3.5 0 0 0-.2-1.3.6.6 0 0 0-.5-.3.5.5 0 0 0-.5.3 3.7 3.7 0 0 0-.1 1.3v5.6h-1.9v-8.7h1.7v.9a1.7 1.7 0 0 1 .6-.8 1.6 1.6 0 0 1 1-.3 1.6 1.6 0 0 1 1 .3 1.3 1.3 0 0 1 .3.7z"/><path class="a" d="M674.6 569.5l-3.9 3.8 3.9 3.9-2 1.9-3.9-3.8-3.8 3.8-2-1.9 3.9-3.9-3.9-3.8 2-2 3.8 3.8 3.9-3.8zM678.2 577.8h3.9v-11.3l-3.6.9v-3.1l3.6-.9h3.3v14.4h3.9v3h-11.1v-3z"/><rect class="k" x="618.5" y="427.5" width="115" height="115" rx="12" ry="12"/><rect class="l" x="628.5" y="437.5" width="95" height="95" rx="2" ry="2" transform="translate(1161 -191) rotate(90)"/><path class="m" d="M670 469.2l-1.1.4h-1.3a4.3 4.3 0 0 1-3.6-1.6 8.8 8.8 0 0 1 0-9 4.3 4.3 0 0 1 3.6-1.6h1.3l1.1.4v2.6l-1.2-.8-1.2-.3a2.1 2.1 0 0 0-1.9 1 7.2 7.2 0 0 0 0 6 2.1 2.1 0 0 0 1.9 1l1.2-.3 1.2-.8v2.6zM679.8 464.6v5h-2.3v-1a2.7 2.7 0 0 1-1.1.9 3.7 3.7 0 0 1-3.8-.5 2.9 2.9 0 0 1-.8-2.2 2.6 2.6 0 0 1 1-2.3 5.2 5.2 0 0 1 3.1-.7h1.6v-.4a1 1 0 0 0-.4-.8 2 2 0 0 0-1.2-.3l-1.6.2-1.6.7v-2l1.5-.5h1.8a4.2 4.2 0 0 1 3 .9 4.4 4.4 0 0 1 .8 3zm-3.2.9a3.5 3.5 0 0 0-1.8.3 1.2 1.2 0 0 0-.5 1.1 1.2 1.2 0 0 0 1.3 1.3 1.6 1.6 0 0 0 1.4-.7 3.2 3.2 0 0 0 .5-1.9v-.2h-.9zM689.2 463.9v5.7h-2.3v-5.3a2.6 2.6 0 0 0-.3-1.4 1 1 0 0 0-.9-.4 1.1 1.1 0 0 0-1 .6 2.8 2.8 0 0 0-.4 1.5v5h-2.3v-8.7h2.3v1.3a2.1 2.1 0 0 1 .8-1.1 2.5 2.5 0 0 1 1.4-.4 2.2 2.2 0 0 1 1.9.8 4 4 0 0 1 .8 2.4zM662.1 480.9a1.9 1.9 0 0 1 .7-.8 1.7 1.7 0 0 1 1-.3 1.6 1.6 0 0 1 1.6.8 7.8 7.8 0 0 1 .4 3.3v4.9h-1.9v-5.6a3.7 3.7 0 0 0-.1-1.3.5.5 0 0 0-.5-.3.6.6 0 0 0-.5.3 3.6 3.6 0 0 0-.2 1.3v5.6h-1.9v-5.6a3.5 3.5 0 0 0-.2-1.3.6.6 0 0 0-.5-.3.5.5 0 0 0-.5.3 3.7 3.7 0 0 0-.1 1.3v5.6h-1.9v-8.8h1.5v.9a1.7 1.7 0 0 1 .6-.8 1.6 1.6 0 0 1 1-.3 1.6 1.6 0 0 1 1 .3 1.3 1.3 0 0 1 .5.8zM667.1 484.4a4.9 4.9 0 0 1 1.1-3.4 4.1 4.1 0 0 1 5.9 0 5.7 5.7 0 0 1 0 6.7 4.1 4.1 0 0 1-5.9 0 4.9 4.9 0 0 1-1.1-3.3zm4-2.7a1.5 1.5 0 0 0-1.3.7 4.6 4.6 0 0 0 0 4 1.5 1.5 0 0 0 2.6 0 4.6 4.6 0 0 0 0-4 1.5 1.5 0 0 0-1.2-.7zM685 480l-2.8 8.8h-2.8l-2.8-8.7h2.3l1.9 6.8 1.9-6.8h2.3zM694.2 488.3l-1.6.5-1.7.2a4.5 4.5 0 0 1-3.4-1.2 4.6 4.6 0 0 1-1.2-3.4 4.9 4.9 0 0 1 1.1-3.4 4.4 4.4 0 0 1 6.1-.1 4.6 4.6 0 0 1 1.1 3.2v.9h-5.9a1.9 1.9 0 0 0 .6 1.5 2.7 2.7 0 0 0 1.8.5l1.6-.2 1.6-.7v2.1zm-1.9-4.9a1.9 1.9 0 0 0-.5-1.4 1.8 1.8 0 0 0-1.3-.5 1.7 1.7 0 0 0-1.3.5 2.2 2.2 0 0 0-.6 1.4h3.6zM648.1 498.4v.8h2.7v1.8h-2.7v7h-2.3v-7h-2.1v-1.8h2.1v-.6a2.9 2.9 0 0 1 .7-2.2 3.6 3.6 0 0 1 2.4-.6h1.9v1.8h-1.8l-.7.2a1 1 0 0 0-.2.6zM652.7 503.6a4.9 4.9 0 0 1 1.1-3.4 4.1 4.1 0 0 1 5.9 0 5.7 5.7 0 0 1 0 6.7 4.1 4.1 0 0 1-5.9 0 4.9 4.9 0 0 1-1.1-3.3zm4-2.7a1.5 1.5 0 0 0-1.3.7 4.6 4.6 0 0 0 0 4 1.5 1.5 0 0 0 2.6 0 4.6 4.6 0 0 0 0-4 1.5 1.5 0 0 0-1.3-.7zM670.5 501.6l-.9-.5-1.1-.2-1.3.3a1.9 1.9 0 0 0-.8.7 2 2 0 0 0-.3.7 8.1 8.1 0 0 0-.1 1.3v4h-2.3v-8.7h2.3v1.4a2.5 2.5 0 0 1 1-1.2 3.1 3.1 0 0 1 1.6-.4h.9l.9.3v2.2zM671.2 499.2h1.9l1 6.7.9-4.4h1.9l.9 4.4 1.1-6.7h1.9l-1.6 8.8h-2.2l-1.1-4.5-1.1 4.5h-2.2zM689.5 503v5h-2.3v-1a2.7 2.7 0 0 1-1.1.9 3.7 3.7 0 0 1-3.8-.5 2.9 2.9 0 0 1-.8-2.2 2.6 2.6 0 0 1 1-2.3 5.2 5.2 0 0 1 3.1-.7h1.6v-.4a1 1 0 0 0-.4-.8 2 2 0 0 0-1.2-.3l-1.6.2-1.6.7v-2l1.5-.5h1.7a4.2 4.2 0 0 1 3 .9 4.4 4.4 0 0 1 .9 3zm-3.2.9a3.5 3.5 0 0 0-1.8.3 1.2 1.2 0 0 0-.5 1.1 1.2 1.2 0 0 0 1.3 1.3 1.6 1.6 0 0 0 1.4-.7 3.2 3.2 0 0 0 .5-1.9v-.2h-.9zM699.4 501.6l-.9-.5-1.1-.2-1.3.3a1.9 1.9 0 0 0-.8.7 2 2 0 0 0-.3.7 8.1 8.1 0 0 0-.1 1.3v4h-2.3v-8.7h2.4v1.4a2.5 2.5 0 0 1 1-1.2 3.1 3.1 0 0 1 1.6-.4h.9l.9.3v2.2zM706.3 500.5v-4.6h2.3v12.1h-2.3v-1.3a2.8 2.8 0 0 1-.9 1.1 2.4 2.4 0 0 1-1.4.4 2.7 2.7 0 0 1-2.3-1.2 5.9 5.9 0 0 1-.8-3.4 5.9 5.9 0 0 1 .8-3.4 2.8 2.8 0 0 1 2.3-1.2 2.3 2.3 0 0 1 1.3.4 3.1 3.1 0 0 1 1 1.1zm-3.2 3.2a3.9 3.9 0 0 0 .4 2 1.3 1.3 0 0 0 1.2.7 1.3 1.3 0 0 0 1.2-.7 4.8 4.8 0 0 0 0-4 1.3 1.3 0 0 0-1.2-.7 1.3 1.3 0 0 0-1.2.7 3.9 3.9 0 0 0-.4 1.9z"/><path class="n" d="M396 30.8a41.6 41.6 0 1 0 41.6 41.6 41.6 41.6 0 0 0-41.6-41.6zm23.3 40.5l-6-14.5 9.6-9.6a36.5 36.5 0 0 1 10 24.1h-13.6zm-38.9 18.3l14.5 6v13.7a37 37 0 0 1-24.1-10zm16.8 6l14.5-6 9.6 9.6a36.5 36.5 0 0 1-24.1 10v-13.6zm13.9-8.2l-15.1 6.2-15.1-6.2-6.2-15.1 6.2-15.1 15.1-6.1 15.1 6.2 6.2 15.1zm.6-32.3l-14.5-6v-13.7a37 37 0 0 1 24.1 10zm-16.7-6l-14.5 6-9.7-9.6a36.5 36.5 0 0 1 24.1-10v13.6h.1zm-25.8-2l9.6 9.6-6 14.5h-13.7a36.8 36.8 0 0 1 10-24.2zm-10.1 26.5h13.7l6 14.5-9.6 9.6a36.8 36.8 0 0 1-10.1-24.1zm63.8 24.1l-9.6-9.7 6-14.5h13.7a36.9 36.9 0 0 1-10.1 24.2z"/></svg>