<svg xmlns="http://www.w3.org/2000/svg" width="512" height="512" viewBox="0 0 512 512"><defs><linearGradient id="a" x1="256" x2="256" y1="15.55" y2="496.45" gradientUnits="userSpaceOnUse"><stop offset="0" stop-color="#ccfff3"/><stop offset="1" stop-color="#7bc4b3"/></linearGradient><linearGradient id="b" x1="256" x2="256" y1="33.22" y2="478.78" gradientUnits="userSpaceOnUse"><stop offset="0" stop-color="#4ec2bb"/><stop offset="1" stop-color="#00695f"/></linearGradient><clipPath id="c"><path fill="none" d="M98.47 413.53L33.22 256 98.47 98.47 256 33.22l157.53 65.25L478.78 256l-65.25 157.53L256 478.78 98.47 413.53z"/></clipPath></defs><path fill="url(#a)" d="M85.97 426.02L15.55 256 85.97 85.97 256 15.55l170.02 70.42L496.45 256l-70.43 170.02L256 496.45 85.97 426.02z"/><path fill="url(#b)" d="M98.47 413.53L33.22 256 98.47 98.47 256 33.22l157.53 65.25L478.78 256l-65.25 157.53L256 478.78 98.47 413.53z"/><g fill="#fff" clip-path="url(#c)"><path d="M320.83 154.12H190.5c-5 0-12.6 5.16-8.3 2.58l-35.7 21.42h219l-36.09-21.66a13.71 13.71 0 0 0-8.58-2.34zm4.67 153.37h-139l-40-44.73h219l-40 44.73z"/><circle cx="303.3" cy="236.13" r="14.15"/><path d="M277 323.28a6.62 6.62 0 0 1-6.49 6.72h-28.58c-3.64 0-5.93-3.08-5.93-6.72V315h-28.86l7.86 28.19A11.79 11.79 0 0 0 226.71 355h59a11.79 11.79 0 0 0 11.69-11.81l7.9-28.19H277z"/><path d="M148.22 446h216l-17.67-75.22A22.78 22.78 0 0 0 323.77 348h-135.1a22.78 22.78 0 0 0-22.78 22.78zM206 362h100v64H206zm29.93-237.13c0 8.67 6.07 16 13.07 18.83V161h15v-17.85a20 20 0 1 0-28.07-18.28zm30.8 0a10.61 10.61 0 1 1-10.61-10.6 10.61 10.61 0 0 1 10.61 10.6zm131.78 95.69L374.5 192h-237l-24 28.56-3 23.47a8 8 0 0 0 8 8h157.76l-6-35h58.24l10 35h55a8 8 0 0 0 8-8zM190 239h-44v-9h44zm0-16h-44v-11h44z"/><path d="M218.5 372.98h12v40h-12z"/><circle cx="288.42" cy="379.9" r="6.92"/><circle cx="288.42" cy="406.06" r="6.92"/><rect width="40" height="9.87" x="332.72" y="387.16" rx="4.12" transform="rotate(-180 352.72 392.095)"/><rect width="40" height="9.87" x="332.72" y="401.34" rx="4.12" transform="rotate(-180 352.72 406.28)"/><rect width="40" height="9.87" x="332.72" y="372.98" rx="4.12" transform="rotate(180 352.72 377.915)"/><rect width="40" height="9.87" x="139.72" y="387.16" rx="4.12" transform="rotate(-180 159.72 392.095)"/><rect width="40" height="9.87" x="139.72" y="401.34" rx="4.12" transform="rotate(-180 159.72 406.28)"/><rect width="40" height="9.87" x="139.72" y="372.98" rx="4.12" transform="rotate(180 159.72 377.915)"/><path d="M168 434h173v56H168z"/></g></svg>