<svg xmlns="http://www.w3.org/2000/svg" width="1000" height="300" viewBox="0 0 1000 300"><defs><style>.a{fill:#fdf0c7;}.b{fill:#039fc2;}.c{fill:#fff;}.d{fill:#fb6264;}.e{fill:#ccc;}</style></defs><title>post-it-notes</title><rect class="a" x="5" y="28.4" width="178.2" height="178.23"/><path d="M28.5,102.5h3.9l6.5,11.8,6.5-11.8h3.9l-8.6,14.7v12H37.1v-12Z"/><path d="M70,117.6v1.6H55.7q-0.1,4.1,1.6,5.9a6.4,6.4,0,0,0,4.8,1.8,11.8,11.8,0,0,0,3.3-.5,20.2,20.2,0,0,0,3.7-1.5v3.3a22.2,22.2,0,0,1-3.6,1.2,15.7,15.7,0,0,1-3.4.4,9.5,9.5,0,0,1-7.3-2.8,10.8,10.8,0,0,1-2.6-7.7,11,11,0,0,1,2.6-7.7,8.8,8.8,0,0,1,6.9-2.9,7.5,7.5,0,0,1,6,2.6A10,10,0,0,1,70,117.6Zm-3.3-1a6.4,6.4,0,0,0-1.5-3.6,4.7,4.7,0,0,0-3.7-1.5,5.3,5.3,0,0,0-3.9,1.6,5.6,5.6,0,0,0-1.7,3.5H66.7Z"/><path d="M84.9,122a5.7,5.7,0,0,0,.8,3.3,2.8,2.8,0,0,0,2.4,1.1H92v2.8H87.8a5.7,5.7,0,0,1-4.6-1.9,8,8,0,0,1-1.6-5.4V103.9H76.3v-2.6h8.6V122Z"/><path d="M107,122a5.7,5.7,0,0,0,.8,3.3,2.8,2.8,0,0,0,2.4,1.1h3.9v2.8h-4.2a5.7,5.7,0,0,1-4.6-1.9,8,8,0,0,1-1.6-5.4V103.9H98.4v-2.6H107V122Z"/><path d="M127.2,108.7a7.8,7.8,0,0,1,6.4,2.7q2.2,2.7,2.2,7.8t-2.2,7.8a8.9,8.9,0,0,1-12.8,0q-2.2-2.7-2.2-7.8t2.2-7.8A7.7,7.7,0,0,1,127.2,108.7Zm0,2.8a4.3,4.3,0,0,0-3.8,2,10.6,10.6,0,0,0-1.3,5.8,10.6,10.6,0,0,0,1.3,5.8,4.7,4.7,0,0,0,7.6,0,10.6,10.6,0,0,0,1.3-5.8,10.6,10.6,0,0,0-1.3-5.8A4.3,4.3,0,0,0,127.2,111.5Z"/><path d="M138.3,109.2h3.3l3.5,16.2,2.9-10.4h2.8l2.9,10.4,3.5-16.2h3.3l-4.7,20.1h-3.2l-3.2-11-3.2,11H143Z"/><rect class="b" x="275.6" y="28.4" width="178.2" height="178.23"/><path class="c" d="M323.5,102.5h7.9a9.9,9.9,0,0,1,6.3,1.8,6,6,0,0,1,2.2,5,4.8,4.8,0,0,1-1.2,3.2,5.4,5.4,0,0,1-3.5,1.8,6.3,6.3,0,0,1,4.1,2.2,8.5,8.5,0,0,1,1.5,5.4,6.5,6.5,0,0,1-2.4,5.5q-2.4,1.9-7.1,1.9h-7.9V102.5Zm3.6,3v7.3h4.2a5.8,5.8,0,0,0,3.8-1,3.2,3.2,0,0,0,1.2-2.5,3.5,3.5,0,0,0-1.2-2.9,6.3,6.3,0,0,0-3.8-.9h-4.2Zm0,10.3v10.5h4.3q3.2,0,4.5-1.1a4.4,4.4,0,0,0,1.3-3.6q0-3.3-1.4-4.6a6.7,6.7,0,0,0-4.4-1.2h-4.3Z"/><path class="c" d="M355.5,122a5.7,5.7,0,0,0,.8,3.3,2.8,2.8,0,0,0,2.4,1.1h3.9v2.8h-4.2a5.7,5.7,0,0,1-4.6-1.9,8,8,0,0,1-1.6-5.4V103.9h-5.3v-2.6h8.6V122Z"/><path class="c" d="M368.2,121.7V109.2h3.3v12.4a6.6,6.6,0,0,0,1,4,3.5,3.5,0,0,0,3,1.3,4.2,4.2,0,0,0,3.6-1.6,7.7,7.7,0,0,0,1.2-4.7V109.2h3.3v20h-3.3v-3a6.2,6.2,0,0,1-2.4,2.6,6.8,6.8,0,0,1-3.5.9,5.4,5.4,0,0,1-4.6-2Q368.2,125.8,368.2,121.7Z"/><path class="c" d="M406.8,117.6v1.6H392.6q-0.1,4.1,1.6,5.9A6.4,6.4,0,0,0,399,127a11.7,11.7,0,0,0,3.3-.5,20.2,20.2,0,0,0,3.7-1.5v3.3a22.2,22.2,0,0,1-3.6,1.2,15.7,15.7,0,0,1-3.4.4,9.5,9.5,0,0,1-7.3-2.8,10.8,10.8,0,0,1-2.6-7.7,11,11,0,0,1,2.6-7.7,8.8,8.8,0,0,1,6.9-2.9,7.5,7.5,0,0,1,6,2.6A10,10,0,0,1,406.8,117.6Zm-3.3-1A6.4,6.4,0,0,0,402,113a4.7,4.7,0,0,0-3.7-1.5,5.2,5.2,0,0,0-3.9,1.6,5.6,5.6,0,0,0-1.7,3.5h10.9Z"/><rect class="d" x="546.2" y="28.4" width="178.2" height="178.23"/><path class="c" d="M615.8,116.6a5.1,5.1,0,0,1,2.4,1.4,16.6,16.6,0,0,1,2.5,4l3.6,7.3h-3.9l-3.2-6.8a10.6,10.6,0,0,0-2.5-3.7,4.6,4.6,0,0,0-2.9-.8h-3.5v11.3h-3.6V102.5h7.5q4.4,0,6.8,2a7.1,7.1,0,0,1,2.3,5.7,6.4,6.4,0,0,1-1.4,4.3A6.3,6.3,0,0,1,615.8,116.6Zm-7.4-11.1V115h4a5.6,5.6,0,0,0,3.9-1.2,4.6,4.6,0,0,0,1.3-3.6,4.5,4.5,0,0,0-1.4-3.5,5.7,5.7,0,0,0-3.9-1.2h-3.8Z"/><path class="c" d="M644.3,117.6v1.6H630q-0.1,4.1,1.6,5.9a6.4,6.4,0,0,0,4.8,1.8,11.7,11.7,0,0,0,3.3-.5,20.2,20.2,0,0,0,3.7-1.5v3.3a22.2,22.2,0,0,1-3.6,1.2,15.7,15.7,0,0,1-3.4.4,9.5,9.5,0,0,1-7.3-2.8,10.8,10.8,0,0,1-2.6-7.7,11,11,0,0,1,2.6-7.7,8.8,8.8,0,0,1,6.9-2.9,7.5,7.5,0,0,1,6,2.6A10,10,0,0,1,644.3,117.6Zm-3.3-1a6.4,6.4,0,0,0-1.5-3.6,4.7,4.7,0,0,0-3.7-1.5,5.2,5.2,0,0,0-3.9,1.6,5.6,5.6,0,0,0-1.7,3.5H641Z"/><path class="c" d="M661.7,111.8V101.4H665v27.9h-3.3v-2.5a5.7,5.7,0,0,1-2.2,2.3,6.3,6.3,0,0,1-3.2.8,6.7,6.7,0,0,1-5.7-2.8q-2.1-2.8-2.1-7.8t2.1-7.7a6.8,6.8,0,0,1,5.7-2.8,6.4,6.4,0,0,1,3.2.8A5.5,5.5,0,0,1,661.7,111.8Zm-9.7,7.5a11.1,11.1,0,0,0,1.2,5.8,4,4,0,0,0,3.6,2,4,4,0,0,0,3.6-2,10.9,10.9,0,0,0,1.2-5.8,10.9,10.9,0,0,0-1.2-5.8,4,4,0,0,0-3.6-2,4,4,0,0,0-3.6,2A11.1,11.1,0,0,0,652,119.3Z"/><path class="e" d="M994,29.4V205.6H817.8V29.4H994m1-1H816.8V206.6H995V28.4h0Z"/><path d="M854.9,99.6a36,36,0,0,0-3.6,8.1,29.1,29.1,0,0,0,0,16.3,36.7,36.7,0,0,0,3.6,8.2h-2.9a37.3,37.3,0,0,1-4-8.3,25.1,25.1,0,0,1,0-16.1,36.5,36.5,0,0,1,4-8.3h2.9Z"/><path d="M862.1,102.6H867l10.5,21.9V102.6h3.9v26.6h-4.9l-10.5-21.9v21.9h-3.9V102.6Z"/><path d="M894.8,108.7a7.8,7.8,0,0,1,6.4,2.7q2.2,2.7,2.2,7.8t-2.2,7.8a8.9,8.9,0,0,1-12.8,0q-2.2-2.7-2.2-7.8t2.2-7.8A7.7,7.7,0,0,1,894.8,108.7Zm0,2.8a4.3,4.3,0,0,0-3.8,2,10.6,10.6,0,0,0-1.3,5.8A10.6,10.6,0,0,0,891,125a4.7,4.7,0,0,0,7.6,0,10.6,10.6,0,0,0,1.3-5.8,10.6,10.6,0,0,0-1.3-5.8A4.3,4.3,0,0,0,894.8,111.5Z"/><path d="M924.7,116.8v12.4h-3.3V116.8a6.7,6.7,0,0,0-.9-4,3.5,3.5,0,0,0-3-1.3,4.2,4.2,0,0,0-3.6,1.6,7.7,7.7,0,0,0-1.2,4.7v11.3h-3.3V109.2h3.3v3a6.2,6.2,0,0,1,2.4-2.6,6.9,6.9,0,0,1,3.6-.9,5.4,5.4,0,0,1,4.6,2Q924.7,112.8,924.7,116.8Z"/><path d="M948,117.6v1.6H933.8q-0.1,4.1,1.6,5.9a6.4,6.4,0,0,0,4.8,1.8,11.7,11.7,0,0,0,3.3-.5,20.2,20.2,0,0,0,3.7-1.5v3.3a22.2,22.2,0,0,1-3.6,1.2,15.7,15.7,0,0,1-3.4.4,9.5,9.5,0,0,1-7.3-2.8,10.8,10.8,0,0,1-2.6-7.7,11,11,0,0,1,2.6-7.7,8.8,8.8,0,0,1,6.9-2.9,7.5,7.5,0,0,1,6,2.6A10,10,0,0,1,948,117.6Zm-3.3-1a6.4,6.4,0,0,0-1.5-3.6,4.7,4.7,0,0,0-3.7-1.5,5.2,5.2,0,0,0-3.9,1.6,5.6,5.6,0,0,0-1.7,3.5h10.9Z"/><path d="M956.3,99.6h2.9a36.6,36.6,0,0,1,4,8.3,25.2,25.2,0,0,1,0,16.1,36.6,36.6,0,0,1-4,8.3h-2.9a37.4,37.4,0,0,0,3.6-8.2,28.8,28.8,0,0,0,0-16.3A36.3,36.3,0,0,0,956.3,99.6Z"/><path d="M74.1,247.5h2.5l4.6,15.1H79.1L78,258.7H72.7l-1.1,3.9H69.5Zm1.2,1.8L73.2,257h4.3Z"/><path d="M82.7,255.3H93.4V257H82.7v-1.7Z"/><path d="M105.4,255.1a11.1,11.1,0,0,1-1.3,5.9,4.7,4.7,0,0,1-7.6,0,14.6,14.6,0,0,1,0-11.8,4.7,4.7,0,0,1,7.6,0A11.1,11.1,0,0,1,105.4,255.1Zm-2.1,0a11.9,11.9,0,0,0-.7-4.8,2.5,2.5,0,0,0-4.5,0,16.9,16.9,0,0,0,0,9.5,2.5,2.5,0,0,0,4.5,0A11.9,11.9,0,0,0,103.3,255.1Z"/><path d="M108,247.5h2.1v6.7l6.4-6.7h2.4l-5.9,6.2,6.1,8.9h-2.5l-4.9-7.6-1.6,1.7v5.9H108V247.5Z"/><path d="M6.8,272.4H9.6l5.9,12.4V272.4h2.2v15.1H14.9L9,275.1v12.4H6.8V272.4Z"/><path d="M25.4,275.9a4.4,4.4,0,0,1,3.6,1.5,8.5,8.5,0,0,1,0,8.9,4.4,4.4,0,0,1-3.6,1.5,4.4,4.4,0,0,1-3.6-1.5,8.5,8.5,0,0,1,0-8.9A4.4,4.4,0,0,1,25.4,275.9Zm0,1.6a2.4,2.4,0,0,0-2.1,1.1,7.7,7.7,0,0,0,0,6.5,2.6,2.6,0,0,0,4.3,0,7.7,7.7,0,0,0,0-6.5A2.4,2.4,0,0,0,25.4,277.5Z"/><path d="M54.8,280.5v7H52.9v-7a3.8,3.8,0,0,0-.5-2.2,2,2,0,0,0-1.7-.7,2.4,2.4,0,0,0-2,.9,4.3,4.3,0,0,0-.7,2.7v6.4H46.1V271.7H48v6.1a3.5,3.5,0,0,1,1.3-1.5,3.9,3.9,0,0,1,2-.5,3,3,0,0,1,2.6,1.1A5.7,5.7,0,0,1,54.8,280.5Z"/><path d="M68,280.9v0.9H59.9a4.5,4.5,0,0,0,.9,3.3,3.6,3.6,0,0,0,2.7,1l1.9-.3,2.1-.9v1.9l-2.1.7-1.9.2a5.4,5.4,0,0,1-4.1-1.6,6.1,6.1,0,0,1-1.5-4.4,6.2,6.2,0,0,1,1.5-4.3,5,5,0,0,1,3.9-1.6,4.3,4.3,0,0,1,3.4,1.5A5.6,5.6,0,0,1,68,280.9Zm-1.9-.5a3.6,3.6,0,0,0-.9-2,2.6,2.6,0,0,0-2.1-.9,3,3,0,0,0-2.2.9,3.1,3.1,0,0,0-1,2h6.1Z"/><path d="M76.4,283.4a3.2,3.2,0,0,0,.5,1.9,1.6,1.6,0,0,0,1.4.6h2.2v1.6H78.1a3.2,3.2,0,0,1-2.6-1.1,4.5,4.5,0,0,1-.9-3V273.1h-3v-1.5h4.9v11.7Z"/><path d="M85.4,286.1v5.7H83.5V276.2h1.9v1.4a3.2,3.2,0,0,1,1.2-1.3,3.6,3.6,0,0,1,1.8-.4,3.8,3.8,0,0,1,3.2,1.6,7.3,7.3,0,0,1,1.2,4.4,7.1,7.1,0,0,1-1.2,4.3,3.8,3.8,0,0,1-3.2,1.6,3.6,3.6,0,0,1-1.8-.4A3.1,3.1,0,0,1,85.4,286.1Zm5.5-4.2a6.3,6.3,0,0,0-.7-3.3,2.2,2.2,0,0,0-2-1.1,2.3,2.3,0,0,0-2.1,1.1,8,8,0,0,0,0,6.5,2.3,2.3,0,0,0,2.1,1.1,2.2,2.2,0,0,0,2-1.1A6.3,6.3,0,0,0,90.9,281.8Z"/><path d="M117.3,280.5v7h-1.9v-7a3.8,3.8,0,0,0-.5-2.2,2,2,0,0,0-1.7-.7,2.4,2.4,0,0,0-2,.9,4.3,4.3,0,0,0-.7,2.7v6.4h-1.9V276.2h1.9v1.7a3.5,3.5,0,0,1,1.3-1.5,3.9,3.9,0,0,1,2-.5,3,3,0,0,1,2.6,1.1A5.7,5.7,0,0,1,117.3,280.5Z"/><path d="M130.5,280.9v0.9h-8.1a4.5,4.5,0,0,0,.9,3.3,3.6,3.6,0,0,0,2.7,1l1.9-.3,2.1-.9v1.9l-2.1.7-1.9.2a5.4,5.4,0,0,1-4.1-1.6,6.1,6.1,0,0,1-1.5-4.4,6.2,6.2,0,0,1,1.5-4.3,5,5,0,0,1,3.9-1.6,4.3,4.3,0,0,1,3.4,1.5A5.6,5.6,0,0,1,130.5,280.9Zm-1.9-.5a3.6,3.6,0,0,0-.9-2,2.6,2.6,0,0,0-2.1-.9,3,3,0,0,0-2.2.9,3.1,3.1,0,0,0-1,2h6.1Z"/><path d="M143,280.9v0.9h-8.1a4.5,4.5,0,0,0,.9,3.3,3.6,3.6,0,0,0,2.7,1l1.9-.3,2.1-.9v1.9l-2.1.7-1.9.2a5.4,5.4,0,0,1-4.1-1.6,6.1,6.1,0,0,1-1.5-4.4,6.2,6.2,0,0,1,1.5-4.3,5,5,0,0,1,3.9-1.6,4.3,4.3,0,0,1,3.4,1.5A5.6,5.6,0,0,1,143,280.9Zm-1.9-.5a3.6,3.6,0,0,0-.9-2,2.6,2.6,0,0,0-2.1-.9,3,3,0,0,0-2.2.9,3.1,3.1,0,0,0-1,2h6.1Z"/><path d="M152.8,277.6v-5.9h1.9v15.8h-1.9v-1.4a3.2,3.2,0,0,1-1.2,1.3,3.6,3.6,0,0,1-1.8.4,3.8,3.8,0,0,1-3.2-1.6,7.3,7.3,0,0,1-1.2-4.4,7.1,7.1,0,0,1,1.2-4.3,3.8,3.8,0,0,1,3.2-1.6,3.6,3.6,0,0,1,1.8.4A3.1,3.1,0,0,1,152.8,277.6Zm-5.5,4.2a6.3,6.3,0,0,0,.7,3.3,2.3,2.3,0,0,0,2,1.1,2.3,2.3,0,0,0,2.1-1.1,7.9,7.9,0,0,0,0-6.5,2.3,2.3,0,0,0-2.1-1.1,2.3,2.3,0,0,0-2,1.1A6.3,6.3,0,0,0,147.3,281.8Z"/><path d="M167.9,280.9v0.9h-8.1a4.5,4.5,0,0,0,.9,3.3,3.6,3.6,0,0,0,2.7,1l1.9-.3,2.1-.9v1.9l-2.1.7-1.9.2a5.4,5.4,0,0,1-4.1-1.6,6.1,6.1,0,0,1-1.5-4.4,6.2,6.2,0,0,1,1.5-4.3,5,5,0,0,1,3.9-1.6,4.3,4.3,0,0,1,3.4,1.5A5.6,5.6,0,0,1,167.9,280.9Zm-1.9-.5a3.6,3.6,0,0,0-.9-2,2.6,2.6,0,0,0-2.1-.9,3,3,0,0,0-2.2.9,3.1,3.1,0,0,0-1,2h6.1Z"/><path d="M177.8,277.6v-5.9h1.9v15.8h-1.9v-1.4a3.2,3.2,0,0,1-1.2,1.3,3.6,3.6,0,0,1-1.8.4,3.8,3.8,0,0,1-3.2-1.6,7.3,7.3,0,0,1-1.2-4.4,7.1,7.1,0,0,1,1.2-4.3,3.8,3.8,0,0,1,3.2-1.6,3.6,3.6,0,0,1,1.8.4A3.1,3.1,0,0,1,177.8,277.6Zm-5.5,4.2a6.3,6.3,0,0,0,.7,3.3,2.3,2.3,0,0,0,2,1.1,2.3,2.3,0,0,0,2.1-1.1,7.9,7.9,0,0,0,0-6.5,2.3,2.3,0,0,0-2.1-1.1,2.3,2.3,0,0,0-2,1.1A6.3,6.3,0,0,0,172.3,281.8Z"/><path d="M351,247.5h2.5l4.6,15.1H356l-1.1-3.9h-5.3l-1.1,3.9h-2.1Zm1.2,1.8L350,257h4.3Z"/><path d="M369.1,255.6v7h-1.9v-7a3.8,3.8,0,0,0-.5-2.2,2,2,0,0,0-1.7-.7,2.4,2.4,0,0,0-2,.9,4.3,4.3,0,0,0-.7,2.7v6.4h-1.9V246.8h1.9V253a3.5,3.5,0,0,1,1.3-1.5,3.9,3.9,0,0,1,2-.5,3,3,0,0,1,2.6,1.1A5.7,5.7,0,0,1,369.1,255.6Z"/><path d="M376.2,260h2.7v2.6h-2.7V260Zm0.3-12.6h2.1v6.6l-0.2,3.1h-1.6l-0.2-3.1v-6.6Z"/><path d="M259.9,272.4h2.1v5.8h5.6v-5.8h2.1v15.1h-2.1v-7.6h-5.6v7.6h-2.1V272.4Z"/><path d="M282.3,280.9v0.9h-8.1a4.5,4.5,0,0,0,.9,3.3,3.6,3.6,0,0,0,2.7,1l1.9-.3,2.1-.9v1.9l-2.1.7-1.9.2a5.4,5.4,0,0,1-4.1-1.6,6.1,6.1,0,0,1-1.5-4.4,6.2,6.2,0,0,1,1.5-4.3,5,5,0,0,1,3.9-1.6,4.3,4.3,0,0,1,3.4,1.5A5.6,5.6,0,0,1,282.3,280.9Zm-1.9-.5a3.6,3.6,0,0,0-.9-2,2.6,2.6,0,0,0-2.1-.9,3,3,0,0,0-2.2.9,3.1,3.1,0,0,0-1,2h6.1Z"/><path d="M290.8,283.4a3.2,3.2,0,0,0,.5,1.9,1.6,1.6,0,0,0,1.4.6h2.2v1.6h-2.4a3.2,3.2,0,0,1-2.6-1.1,4.5,4.5,0,0,1-.9-3V273.1h-3v-1.5h4.9v11.7Z"/><path d="M299.8,286.1v5.7h-1.9V276.2h1.9v1.4a3.2,3.2,0,0,1,1.2-1.3,3.6,3.6,0,0,1,1.8-.4,3.8,3.8,0,0,1,3.2,1.6,7.3,7.3,0,0,1,1.2,4.4,7.1,7.1,0,0,1-1.2,4.3,3.8,3.8,0,0,1-3.2,1.6,3.6,3.6,0,0,1-1.8-.4A3.1,3.1,0,0,1,299.8,286.1Zm5.5-4.2a6.3,6.3,0,0,0-.7-3.3,2.2,2.2,0,0,0-2-1.1,2.3,2.3,0,0,0-2.1,1.1,8,8,0,0,0,0,6.5,2.3,2.3,0,0,0,2.1,1.1,2.2,2.2,0,0,0,2-1.1A6.3,6.3,0,0,0,305.3,281.8Z"/><path d="M331.7,271.7v1.5h-2.1a1.9,1.9,0,0,0-1.4.4,2.1,2.1,0,0,0-.4,1.5v1h3.9v1.4h-3.9v9.9H326v-9.9h-3v-1.4h3v-0.8a3.8,3.8,0,0,1,.9-2.7,3.6,3.6,0,0,1,2.7-.9h2.2Z"/><path d="M345.2,278.5l-1.2-.7-1.4-.2a3.3,3.3,0,0,0-2.7,1.1,4.8,4.8,0,0,0-.9,3.2v5.6h-1.9V276.2H339v2.2a3.8,3.8,0,0,1,1.4-1.8,4.1,4.1,0,0,1,2.3-.6l1.3,0.2,1.1,0.5v1.9Z"/><path d="M352.2,275.9a4.4,4.4,0,0,1,3.6,1.5,8.5,8.5,0,0,1,0,8.9,5,5,0,0,1-7.2,0,8.5,8.5,0,0,1,0-8.9A4.4,4.4,0,0,1,352.2,275.9Zm0,1.6a2.4,2.4,0,0,0-2.1,1.1,7.7,7.7,0,0,0,0,6.5,2.6,2.6,0,0,0,4.3,0,7.7,7.7,0,0,0,0-6.5A2.4,2.4,0,0,0,352.2,277.5Z"/><path d="M365.3,277.3a2.6,2.6,0,0,1,.9-1.1,2.3,2.3,0,0,1,1.3-.3,2,2,0,0,1,1.9,1.1,9.6,9.6,0,0,1,.6,4v6.6h-1.7V281a9.6,9.6,0,0,0-.3-3,1,1,0,0,0-1-.6,1.1,1.1,0,0,0-1.1.6,8.7,8.7,0,0,0-.3,2.9v6.5h-1.7V281a8.9,8.9,0,0,0-.3-3,1.1,1.1,0,0,0-1-.6,1,1,0,0,0-1,.6,9,9,0,0,0-.3,2.9v6.5h-1.7V276.2h1.7v1a2.5,2.5,0,0,1,.8-0.9,2.1,2.1,0,0,1,1.1-.3,2.2,2.2,0,0,1,1.3.4A2.3,2.3,0,0,1,365.3,277.3Z"/><path d="M394.2,281v6.5h-1.9v-1.7a3.8,3.8,0,0,1-1.5,1.5,4.6,4.6,0,0,1-2.2.5,3.9,3.9,0,0,1-2.8-1,3.9,3.9,0,0,1,.2-5.5,6,6,0,0,1,3.7-1h2.5v-0.3a2.6,2.6,0,0,0-.7-2,3.2,3.2,0,0,0-2.2-.6l-1.9.3-1.9.8v-1.9l2-.6,1.8-.2a6.3,6.3,0,0,1,2.4.4,3.8,3.8,0,0,1,1.6,1.2,3.1,3.1,0,0,1,.5,1.3A11.4,11.4,0,0,1,394.2,281Zm-3.6.8h-0.6a4.3,4.3,0,0,0-2.5.6,1.9,1.9,0,0,0-.8,1.7,2.1,2.1,0,0,0,.6,1.6,2.4,2.4,0,0,0,1.7.6,3,3,0,0,0,2.4-1.1,4.6,4.6,0,0,0,.9-3v-0.4h-1.7Z"/><path d="M406.6,280.5v7h-1.9v-7a3.8,3.8,0,0,0-.5-2.2,2,2,0,0,0-1.7-.7,2.4,2.4,0,0,0-2,.9,4.3,4.3,0,0,0-.7,2.7v6.4h-1.9V276.2h1.9v1.7a3.5,3.5,0,0,1,1.3-1.5,3.9,3.9,0,0,1,2-.5,3,3,0,0,1,2.6,1.1A5.7,5.7,0,0,1,406.6,280.5Z"/><path d="M417.1,283.9L416,287a30,30,0,0,1-1.3,3.3,3.2,3.2,0,0,1-1.2,1.2,3.3,3.3,0,0,1-1.6.4h-1.5v-1.6h1.1a1.7,1.7,0,0,0,1.3-.5,8.2,8.2,0,0,0,1.2-2.5l-4.4-11.2h2l3.4,8.9,3.3-8.9h2Z"/><path d="M424.8,277.6a3.1,3.1,0,0,1,1.2-1.3,3.6,3.6,0,0,1,1.8-.4,3.8,3.8,0,0,1,3.2,1.6,7.1,7.1,0,0,1,1.2,4.3,7.3,7.3,0,0,1-1.2,4.4,3.8,3.8,0,0,1-3.2,1.6,3.6,3.6,0,0,1-1.8-.4,3.2,3.2,0,0,1-1.2-1.3v1.4h-1.9V271.7h1.9v5.9Zm5.5,4.2a6.3,6.3,0,0,0-.7-3.3,2.3,2.3,0,0,0-2-1.1,2.3,2.3,0,0,0-2.1,1.1,8,8,0,0,0,0,6.5,2.3,2.3,0,0,0,2.1,1.1,2.3,2.3,0,0,0,2-1.1A6.3,6.3,0,0,0,430.2,281.8Z"/><path d="M439.7,275.9a4.4,4.4,0,0,1,3.6,1.5,8.5,8.5,0,0,1,0,8.9,5,5,0,0,1-7.2,0,8.5,8.5,0,0,1,0-8.9A4.4,4.4,0,0,1,439.7,275.9Zm0,1.6a2.4,2.4,0,0,0-2.1,1.1,7.7,7.7,0,0,0,0,6.5,2.6,2.6,0,0,0,4.3,0,7.7,7.7,0,0,0,0-6.5A2.4,2.4,0,0,0,439.7,277.5Z"/><path d="M454.6,277.6v-5.9h1.9v15.8h-1.9v-1.4a3.2,3.2,0,0,1-1.2,1.3,3.6,3.6,0,0,1-1.8.4,3.8,3.8,0,0,1-3.2-1.6,7.3,7.3,0,0,1-1.2-4.4,7.1,7.1,0,0,1,1.2-4.3,3.8,3.8,0,0,1,3.2-1.6,3.6,3.6,0,0,1,1.8.4A3.1,3.1,0,0,1,454.6,277.6Zm-5.5,4.2a6.3,6.3,0,0,0,.7,3.3,2.3,2.3,0,0,0,2,1.1,2.3,2.3,0,0,0,2.1-1.1,7.9,7.9,0,0,0,0-6.5,2.3,2.3,0,0,0-2.1-1.1,2.3,2.3,0,0,0-2,1.1A6.3,6.3,0,0,0,449.1,281.8Z"/><path d="M467.1,283.9l-1.2,3.1a30,30,0,0,1-1.3,3.3,3.2,3.2,0,0,1-1.2,1.2,3.3,3.3,0,0,1-1.6.4h-1.5v-1.6h1.1a1.7,1.7,0,0,0,1.3-.5,8.2,8.2,0,0,0,1.2-2.5l-4.4-11.2h2l3.4,8.9,3.3-8.9h2Z"/><path d="M577.3,247.5q3.5,0,5.1,1.8t1.6,5.7q0,3.9-1.6,5.7t-5.1,1.8h-3.1V247.5h3.1Zm0,13.4q2.6,0,3.6-1.3t1-4.6q0-3.4-1-4.6t-3.6-1.3h-1v11.8h1Z"/><path d="M591.6,251a4.4,4.4,0,0,1,3.6,1.5,8.5,8.5,0,0,1,0,8.9,5,5,0,0,1-7.2,0,8.5,8.5,0,0,1,0-8.9A4.4,4.4,0,0,1,591.6,251Zm0,1.6a2.4,2.4,0,0,0-2.1,1.1,7.7,7.7,0,0,0,0,6.5,2.6,2.6,0,0,0,4.3,0,7.7,7.7,0,0,0,0-6.5A2.4,2.4,0,0,0,591.6,252.6Z"/><path d="M599.8,258.3v-7h1.9v7a3.8,3.8,0,0,0,.5,2.3,2,2,0,0,0,1.7.7,2.4,2.4,0,0,0,2-.9,4.4,4.4,0,0,0,.7-2.7v-6.4h1.9v11.3h-1.9v-1.7a3.5,3.5,0,0,1-1.4,1.5,3.9,3.9,0,0,1-2,.5,3,3,0,0,1-2.6-1.1A5.8,5.8,0,0,1,599.8,258.3Z"/><path d="M614.1,252.7a3.1,3.1,0,0,1,1.2-1.3,3.6,3.6,0,0,1,1.8-.4,3.8,3.8,0,0,1,3.2,1.6,7.1,7.1,0,0,1,1.2,4.3,7.3,7.3,0,0,1-1.2,4.4,3.8,3.8,0,0,1-3.2,1.6,3.6,3.6,0,0,1-1.8-.4,3.2,3.2,0,0,1-1.2-1.3v1.4h-1.9V246.8h1.9v5.9Zm5.5,4.2a6.3,6.3,0,0,0-.7-3.3,2.3,2.3,0,0,0-2-1.1,2.3,2.3,0,0,0-2.1,1.1,8,8,0,0,0,0,6.5,2.3,2.3,0,0,0,2.1,1.1,2.3,2.3,0,0,0,2-1.1A6.3,6.3,0,0,0,619.6,256.9Z"/><path d="M630.1,258.5a3.2,3.2,0,0,0,.5,1.9,1.6,1.6,0,0,0,1.4.6h2.2v1.6h-2.4a3.2,3.2,0,0,1-2.6-1.1,4.5,4.5,0,0,1-.9-3V248.2h-3v-1.5h4.9v11.7Z"/><path d="M646.6,256v0.9h-8.1a4.5,4.5,0,0,0,.9,3.3,3.6,3.6,0,0,0,2.7,1l1.9-.3,2.1-.9V262l-2.1.7-1.9.2a5.4,5.4,0,0,1-4.1-1.6,6.1,6.1,0,0,1-1.5-4.4,6.2,6.2,0,0,1,1.5-4.3,5,5,0,0,1,3.9-1.6,4.3,4.3,0,0,1,3.4,1.5A5.6,5.6,0,0,1,646.6,256Zm-1.9-.5a3.6,3.6,0,0,0-.9-2,2.6,2.6,0,0,0-2.1-.9,3,3,0,0,0-2.2.9,3.1,3.1,0,0,0-1,2h6.1Z"/><path d="M665.3,247.5h2.5l4.6,15.1h-2.1l-1.1-3.9h-5.3l-1.1,3.9h-2.1Zm1.2,1.8-2.2,7.7h4.3Z"/><path d="M683.4,255.6v7h-1.9v-7a3.8,3.8,0,0,0-.5-2.2,2,2,0,0,0-1.7-.7,2.4,2.4,0,0,0-2,.9,4.3,4.3,0,0,0-.7,2.7v6.4h-1.9V246.8h1.9V253a3.5,3.5,0,0,1,1.3-1.5,3.9,3.9,0,0,1,2-.5,3,3,0,0,1,2.6,1.1A5.7,5.7,0,0,1,683.4,255.6Z"/><path d="M690.5,260h2.7v2.6h-2.7V260Zm0.3-12.6h2.1v6.6l-0.2,3.1H691l-0.2-3.1v-6.6Z"/><path d="M536.7,272.4h2.1v5.8h5.6v-5.8h2.1v15.1h-2.1v-7.6h-5.6v7.6h-2.1V272.4Z"/><path d="M559.2,280.9v0.9h-8.1a4.5,4.5,0,0,0,.9,3.3,3.6,3.6,0,0,0,2.7,1l1.9-.3,2.1-.9v1.9l-2.1.7-1.9.2a5.4,5.4,0,0,1-4.1-1.6,6.1,6.1,0,0,1-1.5-4.4,6.2,6.2,0,0,1,1.5-4.3,5,5,0,0,1,3.9-1.6,4.3,4.3,0,0,1,3.4,1.5A5.6,5.6,0,0,1,559.2,280.9Zm-1.9-.5a3.6,3.6,0,0,0-.9-2,2.6,2.6,0,0,0-2.1-.9,3,3,0,0,0-2.2.9,3.1,3.1,0,0,0-1,2h6.1Z"/><path d="M567.6,283.4a3.2,3.2,0,0,0,.5,1.9,1.6,1.6,0,0,0,1.4.6h2.2v1.6h-2.4a3.2,3.2,0,0,1-2.6-1.1,4.5,4.5,0,0,1-.9-3V273.1h-3v-1.5h4.9v11.7Z"/><path d="M576.6,286.1v5.7h-1.9V276.2h1.9v1.4a3.2,3.2,0,0,1,1.2-1.3,3.6,3.6,0,0,1,1.8-.4,3.8,3.8,0,0,1,3.2,1.6,7.3,7.3,0,0,1,1.2,4.4,7.1,7.1,0,0,1-1.2,4.3,3.8,3.8,0,0,1-3.2,1.6,3.6,3.6,0,0,1-1.8-.4A3.1,3.1,0,0,1,576.6,286.1Zm5.5-4.2a6.3,6.3,0,0,0-.7-3.3,2.2,2.2,0,0,0-2-1.1,2.3,2.3,0,0,0-2.1,1.1,8,8,0,0,0,0,6.5,2.3,2.3,0,0,0,2.1,1.1,2.2,2.2,0,0,0,2-1.1A6.3,6.3,0,0,0,582.1,281.8Z"/><path d="M608.6,271.7v1.5h-2.1a1.9,1.9,0,0,0-1.4.4,2.1,2.1,0,0,0-.4,1.5v1h3.9v1.4h-3.9v9.9h-1.9v-9.9h-3v-1.4h3v-0.8a3.8,3.8,0,0,1,.9-2.7,3.6,3.6,0,0,1,2.7-.9h2.2Z"/><path d="M622,278.5l-1.2-.7-1.4-.2a3.3,3.3,0,0,0-2.7,1.1,4.8,4.8,0,0,0-.9,3.2v5.6H614V276.2h1.9v2.2a3.8,3.8,0,0,1,1.4-1.8,4.1,4.1,0,0,1,2.3-.6l1.3,0.2,1.1,0.5v1.9Z"/><path d="M629,275.9a4.4,4.4,0,0,1,3.6,1.5,8.5,8.5,0,0,1,0,8.9,5,5,0,0,1-7.2,0,8.5,8.5,0,0,1,0-8.9A4.4,4.4,0,0,1,629,275.9Zm0,1.6a2.4,2.4,0,0,0-2.1,1.1,7.7,7.7,0,0,0,0,6.5,2.6,2.6,0,0,0,4.3,0,7.7,7.7,0,0,0,0-6.5A2.4,2.4,0,0,0,629,277.5Z"/><path d="M642.1,277.3a2.6,2.6,0,0,1,.9-1.1,2.3,2.3,0,0,1,1.3-.3,2,2,0,0,1,1.9,1.1,9.6,9.6,0,0,1,.6,4v6.6h-1.7V281a9.6,9.6,0,0,0-.3-3,1,1,0,0,0-1-.6,1.1,1.1,0,0,0-1.1.6,8.7,8.7,0,0,0-.3,2.9v6.5h-1.7V281a8.9,8.9,0,0,0-.3-3,1.1,1.1,0,0,0-1-.6,1,1,0,0,0-1,.6,9,9,0,0,0-.3,2.9v6.5h-1.7V276.2h1.7v1a2.5,2.5,0,0,1,.8-0.9,2.1,2.1,0,0,1,1.1-.3,2.2,2.2,0,0,1,1.3.4A2.3,2.3,0,0,1,642.1,277.3Z"/><path d="M660.8,272.4h11.5v1.7h-4.7v13.4h-2.1V274.1h-4.8v-1.7Z"/><path d="M683.4,280.5v7h-1.9v-7a3.8,3.8,0,0,0-.5-2.2,2,2,0,0,0-1.7-.7,2.4,2.4,0,0,0-2,.9,4.3,4.3,0,0,0-.7,2.7v6.4h-1.9V271.7h1.9v6.1a3.5,3.5,0,0,1,1.3-1.5,3.9,3.9,0,0,1,2-.5,3,3,0,0,1,2.6,1.1A5.7,5.7,0,0,1,683.4,280.5Z"/><path d="M691.5,275.9a4.4,4.4,0,0,1,3.6,1.5,8.5,8.5,0,0,1,0,8.9,5,5,0,0,1-7.2,0,8.5,8.5,0,0,1,0-8.9A4.4,4.4,0,0,1,691.5,275.9Zm0,1.6a2.4,2.4,0,0,0-2.1,1.1,7.7,7.7,0,0,0,0,6.5,2.6,2.6,0,0,0,4.3,0,7.7,7.7,0,0,0,0-6.5A2.4,2.4,0,0,0,691.5,277.5Z"/><path d="M704.6,277.3a2.6,2.6,0,0,1,.9-1.1,2.3,2.3,0,0,1,1.3-.3,2,2,0,0,1,1.9,1.1,9.6,9.6,0,0,1,.6,4v6.6h-1.7V281a9.6,9.6,0,0,0-.3-3,1,1,0,0,0-1-.6,1.1,1.1,0,0,0-1.1.6,8.7,8.7,0,0,0-.3,2.9v6.5h-1.7V281a8.9,8.9,0,0,0-.3-3,1.1,1.1,0,0,0-1-.6,1,1,0,0,0-1,.6,9,9,0,0,0-.3,2.9v6.5h-1.7V276.2h1.7v1a2.5,2.5,0,0,1,.8-0.9,2.1,2.1,0,0,1,1.1-.3,2.2,2.2,0,0,1,1.3.4A2.3,2.3,0,0,1,704.6,277.3Z"/><path d="M721,281v6.5h-1.9v-1.7a3.8,3.8,0,0,1-1.5,1.5,4.6,4.6,0,0,1-2.2.5,3.9,3.9,0,0,1-2.8-1,3.9,3.9,0,0,1,.2-5.5,6,6,0,0,1,3.7-1h2.5v-0.3a2.6,2.6,0,0,0-.7-2,3.2,3.2,0,0,0-2.2-.6l-1.9.3-1.9.8v-1.9l2-.6,1.8-.2a6.3,6.3,0,0,1,2.4.4,3.8,3.8,0,0,1,1.6,1.2,3.1,3.1,0,0,1,.5,1.3A11.4,11.4,0,0,1,721,281Zm-3.6.8h-0.6a4.3,4.3,0,0,0-2.5.6,1.9,1.9,0,0,0-.8,1.7,2.1,2.1,0,0,0,.6,1.6,2.4,2.4,0,0,0,1.7.6,3,3,0,0,0,2.4-1.1,4.6,4.6,0,0,0,.9-3v-0.4h-1.7Z"/><path d="M732.6,276.6v1.8l-1.6-.7-1.7-.2a3.5,3.5,0,0,0-1.9.4,1.4,1.4,0,0,0-.6,1.3,1.4,1.4,0,0,0,.5,1.1,6.4,6.4,0,0,0,2.3.7h0.8a3.7,3.7,0,0,1,2.1,1.1,3,3,0,0,1,.7,2.1,3.2,3.2,0,0,1-1.2,2.6,5.2,5.2,0,0,1-3.3.9l-1.8-.2-2-.5v-1.9l2,0.8,1.8,0.3a3.2,3.2,0,0,0,1.9-.5,1.6,1.6,0,0,0,.7-1.4q0-1.3-2.5-1.8h-0.8a4.5,4.5,0,0,1-2.4-1.1,2.8,2.8,0,0,1-.7-2,3,3,0,0,1,1.1-2.5,4.9,4.9,0,0,1,3.2-.9l1.8,0.2Z"/><path d="M866.2,248v2.1l-1.9-.9a6.1,6.1,0,0,0-1.9-.3,3.6,3.6,0,0,0-2.3.7,2.2,2.2,0,0,0-.8,1.8,2,2,0,0,0,.6,1.5,4.6,4.6,0,0,0,2.1.9L863,254a5.9,5.9,0,0,1,3.1,1.6,4.1,4.1,0,0,1,1,2.9,4.1,4.1,0,0,1-1.3,3.3,5.9,5.9,0,0,1-3.9,1.1l-2.1-.2-2.2-.7v-2.2a10.1,10.1,0,0,0,2.2,1.1,6.6,6.6,0,0,0,2.1.3,3.8,3.8,0,0,0,2.4-.7,2.7,2.7,0,0,0,.3-3.7,4.2,4.2,0,0,0-2.1-.9l-1.1-.3a6.2,6.2,0,0,1-3.1-1.4,3.5,3.5,0,0,1-1-2.6,4.1,4.1,0,0,1,1.4-3.2,5.2,5.2,0,0,1,3.6-1.2l1.8,0.2Z"/><path d="M870.4,258.3v-7h1.9v7a3.8,3.8,0,0,0,.5,2.3,2,2,0,0,0,1.7.7,2.4,2.4,0,0,0,2-.9,4.4,4.4,0,0,0,.7-2.7v-6.4H879v11.3h-1.9v-1.7a3.5,3.5,0,0,1-1.4,1.5,3.9,3.9,0,0,1-2,.5,3,3,0,0,1-2.6-1.1A5.8,5.8,0,0,1,870.4,258.3Z"/><path d="M891.6,262l-1.5.7-1.6.2a5.4,5.4,0,0,1-4.1-1.6,7.2,7.2,0,0,1,0-8.8,5.4,5.4,0,0,1,4.1-1.6l1.6,0.2,1.6,0.7v2a5.1,5.1,0,0,0-1.5-1,4.6,4.6,0,0,0-1.7-.3,3.3,3.3,0,0,0-2.7,1.1,6,6,0,0,0,0,6.5,3.3,3.3,0,0,0,2.7,1.1,4.8,4.8,0,0,0,1.7-.3,4.3,4.3,0,0,0,1.4-.9V262Z"/><path d="M904.1,262l-1.5.7-1.6.2a5.4,5.4,0,0,1-4.1-1.6,7.2,7.2,0,0,1,0-8.8A5.4,5.4,0,0,1,901,251l1.6,0.2,1.6,0.7v2a5.1,5.1,0,0,0-1.5-1,4.6,4.6,0,0,0-1.7-.3,3.3,3.3,0,0,0-2.7,1.1,6,6,0,0,0,0,6.5,3.3,3.3,0,0,0,2.7,1.1,4.8,4.8,0,0,0,1.7-.3,4.3,4.3,0,0,0,1.4-.9V262Z"/><path d="M917.2,256v0.9h-8.1a4.5,4.5,0,0,0,.9,3.3,3.6,3.6,0,0,0,2.7,1l1.9-.3,2.1-.9V262l-2.1.7-1.9.2a5.4,5.4,0,0,1-4.1-1.6,6.1,6.1,0,0,1-1.5-4.4,6.2,6.2,0,0,1,1.5-4.3,5,5,0,0,1,3.9-1.6,4.3,4.3,0,0,1,3.4,1.5A5.6,5.6,0,0,1,917.2,256Zm-1.9-.5a3.6,3.6,0,0,0-.9-2,2.6,2.6,0,0,0-2.1-.9,3,3,0,0,0-2.2.9,3.1,3.1,0,0,0-1,2h6.1Z"/><path d="M928.2,251.7v1.8l-1.6-.7-1.7-.2a3.5,3.5,0,0,0-1.9.4,1.4,1.4,0,0,0-.6,1.3,1.4,1.4,0,0,0,.5,1.1,6.4,6.4,0,0,0,2.3.7H926a3.7,3.7,0,0,1,2.1,1.1,3,3,0,0,1,.7,2.1,3.2,3.2,0,0,1-1.2,2.6,5.2,5.2,0,0,1-3.3.9l-1.8-.2-2-.5v-1.9l2,0.8,1.8,0.3a3.2,3.2,0,0,0,1.9-.5,1.6,1.6,0,0,0,.7-1.4q0-1.3-2.5-1.8h-0.8a4.5,4.5,0,0,1-2.4-1.1,2.8,2.8,0,0,1-.7-2,3,3,0,0,1,1.1-2.5,4.9,4.9,0,0,1,3.2-.9l1.8,0.2Z"/><path d="M940.7,251.7v1.8l-1.6-.7-1.7-.2a3.5,3.5,0,0,0-1.9.4,1.4,1.4,0,0,0-.6,1.3,1.4,1.4,0,0,0,.5,1.1,6.4,6.4,0,0,0,2.3.7h0.8a3.7,3.7,0,0,1,2.1,1.1,3,3,0,0,1,.7,2.1,3.2,3.2,0,0,1-1.2,2.6,5.2,5.2,0,0,1-3.3.9l-1.8-.2-2-.5v-1.9l2,0.8,1.8,0.3a3.2,3.2,0,0,0,1.9-.5,1.6,1.6,0,0,0,.7-1.4q0-1.3-2.5-1.8h-0.8a4.5,4.5,0,0,1-2.4-1.1,2.8,2.8,0,0,1-.7-2,3,3,0,0,1,1.1-2.5,4.9,4.9,0,0,1,3.2-.9l1.8,0.2Z"/><path d="M948.6,260h2.7v2.6h-2.7V260Zm0.3-12.6H951v6.6l-0.2,3.1h-1.6l-0.2-3.1v-6.6Z"/><path d="M819.8,272.4h2.1v5.8h5.6v-5.8h2.1v15.1h-2.1v-7.6h-5.6v7.6h-2.1V272.4Z"/><path d="M842.3,280.9v0.9h-8.1a4.5,4.5,0,0,0,.9,3.3,3.6,3.6,0,0,0,2.7,1l1.9-.3,2.1-.9v1.9l-2.1.7-1.9.2a5.4,5.4,0,0,1-4.1-1.6,6.1,6.1,0,0,1-1.5-4.4,6.2,6.2,0,0,1,1.5-4.3,5,5,0,0,1,3.9-1.6,4.3,4.3,0,0,1,3.4,1.5A5.6,5.6,0,0,1,842.3,280.9Zm-1.9-.5a3.6,3.6,0,0,0-.9-2,2.6,2.6,0,0,0-2.1-.9,3,3,0,0,0-2.2.9,3.1,3.1,0,0,0-1,2h6.1Z"/><path d="M850.7,283.4a3.2,3.2,0,0,0,.5,1.9,1.6,1.6,0,0,0,1.4.6h2.2v1.6h-2.4a3.2,3.2,0,0,1-2.6-1.1,4.5,4.5,0,0,1-.9-3V273.1h-3v-1.5h4.9v11.7Z"/><path d="M859.7,286.1v5.7h-1.9V276.2h1.9v1.4a3.2,3.2,0,0,1,1.2-1.3,3.6,3.6,0,0,1,1.8-.4,3.8,3.8,0,0,1,3.2,1.6,7.3,7.3,0,0,1,1.2,4.4,7.1,7.1,0,0,1-1.2,4.3,3.8,3.8,0,0,1-3.2,1.6,3.6,3.6,0,0,1-1.8-.4A3.1,3.1,0,0,1,859.7,286.1Zm5.5-4.2a6.3,6.3,0,0,0-.7-3.3,2.2,2.2,0,0,0-2-1.1,2.3,2.3,0,0,0-2.1,1.1,8,8,0,0,0,0,6.5,2.3,2.3,0,0,0,2.1,1.1,2.2,2.2,0,0,0,2-1.1A6.3,6.3,0,0,0,865.2,281.8Z"/><path d="M871.6,276.2h4.8v9.9h3.7v1.4h-9.3v-1.4h3.7v-8.4h-2.9v-1.4Zm2.9-4.4h1.9v2.4h-1.9v-2.4Z"/><path d="M891.5,280.5v7h-1.9v-7a3.8,3.8,0,0,0-.5-2.2,2,2,0,0,0-1.7-.7,2.4,2.4,0,0,0-2,.9,4.3,4.3,0,0,0-.7,2.7v6.4h-1.9V276.2h1.9v1.7a3.5,3.5,0,0,1,1.3-1.5,3.9,3.9,0,0,1,2-.5,3,3,0,0,1,2.6,1.1A5.7,5.7,0,0,1,891.5,280.5Z"/><path d="M903.9,286.8a5.5,5.5,0,0,1-1.2,3.9,4.6,4.6,0,0,1-3.5,1.3h-1.6l-1.7-.4v-1.8l1.8,0.7,1.5,0.2a2.7,2.7,0,0,0,2.2-.8,4,4,0,0,0,.7-2.6h0v-1.3a3.2,3.2,0,0,1-1.2,1.4,3.6,3.6,0,0,1-1.9.5,3.8,3.8,0,0,1-3.2-1.6,8.2,8.2,0,0,1,0-8.5,3.8,3.8,0,0,1,3.2-1.6,3.7,3.7,0,0,1,1.9.4,3.2,3.2,0,0,1,1.2,1.3v-1.5h1.9v10.6Zm-1.9-5a6,6,0,0,0-.7-3.2,2.2,2.2,0,0,0-2-1.1,2.4,2.4,0,0,0-2.1,1.1,7.4,7.4,0,0,0,0,6.4,2.4,2.4,0,0,0,2.1,1.1,2.2,2.2,0,0,0,2-1.1A6.1,6.1,0,0,0,902.1,281.7Z"/><path d="M924.6,275.9a4.4,4.4,0,0,1,3.6,1.5,8.5,8.5,0,0,1,0,8.9,5,5,0,0,1-7.2,0,8.5,8.5,0,0,1,0-8.9A4.4,4.4,0,0,1,924.6,275.9Zm0,1.6a2.4,2.4,0,0,0-2.1,1.1,7.7,7.7,0,0,0,0,6.5,2.6,2.6,0,0,0,4.3,0,7.7,7.7,0,0,0,0-6.5A2.4,2.4,0,0,0,924.6,277.5Z"/><path d="M937.1,272.9v3.2h4.2v1.4h-4.2v6.2a2.5,2.5,0,0,0,.5,1.8,2.2,2.2,0,0,0,1.7.5h2.1v1.5h-2.3a4.2,4.2,0,0,1-3-.8,4,4,0,0,1-.9-2.9v-6.2h-3v-1.4h3v-3.2h1.9Z"/><path d="M954,280.5v7h-1.9v-7a3.8,3.8,0,0,0-.5-2.2,2,2,0,0,0-1.7-.7,2.4,2.4,0,0,0-2,.9,4.3,4.3,0,0,0-.7,2.7v6.4h-1.9V271.7h1.9v6.1a3.5,3.5,0,0,1,1.3-1.5,3.9,3.9,0,0,1,2-.5,3,3,0,0,1,2.6,1.1A5.7,5.7,0,0,1,954,280.5Z"/><path d="M967.2,280.9v0.9h-8.1a4.5,4.5,0,0,0,.9,3.3,3.6,3.6,0,0,0,2.7,1l1.9-.3,2.1-.9v1.9l-2.1.7-1.9.2a5.4,5.4,0,0,1-4.1-1.6,6.1,6.1,0,0,1-1.5-4.4,6.2,6.2,0,0,1,1.5-4.3,5,5,0,0,1,3.9-1.6,4.3,4.3,0,0,1,3.4,1.5A5.6,5.6,0,0,1,967.2,280.9Zm-1.9-.5a3.6,3.6,0,0,0-.9-2,2.6,2.6,0,0,0-2.1-.9,3,3,0,0,0-2.2.9,3.1,3.1,0,0,0-1,2h6.1Z"/><path d="M980.1,278.5l-1.2-.7-1.4-.2a3.3,3.3,0,0,0-2.7,1.1,4.8,4.8,0,0,0-.9,3.2v5.6H972V276.2h1.9v2.2a3.8,3.8,0,0,1,1.4-1.8,4.1,4.1,0,0,1,2.3-.6l1.3,0.2,1.1,0.5v1.9Z"/><path d="M990.7,276.6v1.8l-1.6-.7-1.7-.2a3.5,3.5,0,0,0-1.9.4,1.4,1.4,0,0,0-.6,1.3,1.4,1.4,0,0,0,.5,1.1,6.4,6.4,0,0,0,2.3.7h0.8a3.7,3.7,0,0,1,2.1,1.1,3,3,0,0,1,.7,2.1,3.2,3.2,0,0,1-1.2,2.6,5.2,5.2,0,0,1-3.3.9l-1.8-.2-2-.5v-1.9l2,0.8,1.8,0.3a3.2,3.2,0,0,0,1.9-.5,1.6,1.6,0,0,0,.7-1.4q0-1.3-2.5-1.8h-0.8a4.5,4.5,0,0,1-2.4-1.1,2.8,2.8,0,0,1-.7-2,3,3,0,0,1,1.1-2.5,4.9,4.9,0,0,1,3.2-.9l1.8,0.2Z"/></svg>