<svg xmlns="http://www.w3.org/2000/svg" width="256" height="80" viewBox="0 0 256 80"><path fill="#555" d="M14.2 20.4c0-.6-.4-1.2-2.3-1.2v-.9c1.9 0 2.3-.6 2.3-1.2s-.1-2-.1-3.1.9-2.1 2.9-2.1h1v.8h-.9c-1.6 0-1.9.4-1.9 1.4s.1 1.9.1 2.9-.4 1.5-1.5 1.7c1.1.2 1.5.7 1.5 1.7s-.1 1.9-.1 2.9.3 1.4 1.9 1.4h.9v.8h-1c-2 0-2.9-.5-2.9-2.1s.1-1.9.1-3z"/><path fill="#672373" d="M31.1 35.2v-1.8h1.7v1.8l-.4 3.5h-.9zm3.7 0v-1.8h1.8v1.8l-.4 3.5h-.9zM40 33h1.3v4.9a4.1 4.1 0 0 1 2.9-1.5c1.8 0 2.7 1.1 2.7 3.1v4.8h-1.4v-4.6c0-1.5-.5-2.2-1.7-2.2a3.6 3.6 0 0 0-2.5 1.4v5.4H40zm9.2 10.5c3.5-3 5.3-4.8 5.3-6.5s-.7-1.9-2.2-1.9a3.5 3.5 0 0 0-2.4 1.2l-.7-.8a4.5 4.5 0 0 1 3.3-1.5 3 3 0 0 1 3.3 3c0 1.9-1.9 3.8-4.7 6.3h5.3v1.1h-7.2zm10.5-8.3v-1.8h1.8v1.8l-.5 3.5h-.9zm3.6 0v-1.8H65v1.8l-.4 3.5h-.9z"/><path fill="#555" d="M72.9 36.1a1.3 1.3 0 0 1 1.3 1.4 1.3 1.3 0 0 1-2.6 0 1.3 1.3 0 0 1 1.3-1.4zm0 5.7a1.3 1.3 0 0 1 1.3 1.4 1.3 1.3 0 0 1-2.6 0 1.3 1.3 0 0 1 1.3-1.4z"/><path fill="#672373" d="M90.3 35.2v-1.8h1.8v1.8l-.4 3.5h-.9zm3.7 0v-1.8h1.7v1.8l-.4 3.5h-.9zm9.2-1.5a4 4 0 0 1 2.9 1.3l-.7.8a3.2 3.2 0 0 0-2.2-.9c-1.9 0-3.2 1.6-3.2 4.2s1.2 4.2 3.2 4.2a2.6 2.6 0 0 0 1.8-.6V40h-2.1v-1.1h3.3v4.4a4 4 0 0 1-3.1 1.2c-2.6 0-4.5-2-4.5-5.4s1.9-5.4 4.6-5.4zm9.1 2.7a3.3 3.3 0 0 1 3.5 3.6v.7h-6.1a2.8 2.8 0 0 0 3 2.8 3.8 3.8 0 0 0 2.3-.8l.5.9a5.3 5.3 0 0 1-3 .9 3.9 3.9 0 0 1-4.1-4 4 4 0 0 1 3.9-4.1zm2.3 3.5a2.2 2.2 0 0 0-2.3-2.5 2.7 2.7 0 0 0-2.6 2.5zm3.2-3.3h1v1a2 2 0 0 1 1.8-1.2 1.5 1.5 0 0 1 1.4 1.3c.5-.8 1-1.3 1.8-1.3s1.7.9 1.7 2.4v5.5h-1.2v-5.4c0-.9-.3-1.4-.9-1.4s-.9.4-1.3 1.2v5.6h-1v-5.4c0-.9-.3-1.4-.9-1.4s-.9.4-1.3 1.2v5.6h-1.2zm10.3 5.8a4.8 4.8 0 0 0 3.2 1.1c1.4 0 2.1-.6 2.1-1.2s-.7-1-2.6-1.5-2.9-1.1-2.9-2.2 1.1-2.2 3.2-2.2a5.7 5.7 0 0 1 3.1 1l-.6.8a4.9 4.9 0 0 0-2.5-.8c-1.4 0-1.9.5-1.9 1.1s1 1.1 2.4 1.4 3.1 1.1 3.1 2.3-1.3 2.3-3.5 2.3a6.8 6.8 0 0 1-3.7-1.2zm9.8-7.2v-1.8h1.7v1.8l-.4 3.5h-.9zm3.7 0v-1.8h1.7v1.8l-.4 3.5h-.9z"/><path fill="#555" d="M13.7 67.1c1.6 0 2-.4 2-1.4s-.1-1.8-.1-2.9a1.4 1.4 0 0 1 1.4-1.7 1.4 1.4 0 0 1-1.4-1.7c0-1 .1-2 .1-2.9s-.4-1.4-2-1.4h-.8v-.8h1c1.9 0 2.9.5 2.9 2.1s-.2 2.1-.2 3.1.5 1.2 2.3 1.2v.9c-1.8 0-2.3.6-2.3 1.2s.2 1.9.2 3.1-1 2.1-2.9 2.1h-1v-.8z"/><circle cx="15.4" cy="40" r="2" opacity=".1"/><circle cx="24" cy="40" r="2" opacity=".1"/><circle cx="82.2" cy="40" r="2" opacity=".1"/><circle cx="48.5" cy="61.2" r="7.2"/><path fill="#fff" d="M50.9 62.7v1.2h-4.6v-1.2H48V59h-1.4v-.9l1.7-.6h1.1v5.2z"/><circle cx="117" cy="61.2" r="7.2"/><path fill="#fff" d="M114.6 63.1c1.8-1.6 3.1-2.7 3.1-3.6a1 1 0 0 0-1.1-1 1.9 1.9 0 0 0-1.3.7l-.8-.8a3 3 0 0 1 2.3-1.1 2.1 2.1 0 0 1 2.3 2.1c0 1.1-1.1 2.2-2.4 3.3h2.7v1.2h-4.8z"/></svg>