<svg xmlns="http://www.w3.org/2000/svg" width="256" height="80" viewBox="0 0 256 80"><path fill="#555" d="M14.2 20.4c0-.6-.4-1.2-2.3-1.2v-.9c1.9 0 2.3-.6 2.3-1.2s-.1-2-.1-3.1.9-2.1 2.9-2.1h1v.8h-.9c-1.6 0-1.9.4-1.9 1.4s.1 1.9.1 2.9-.4 1.5-1.5 1.7c1.1.2 1.5.7 1.5 1.7s-.1 1.9-.1 2.9.3 1.4 1.9 1.4h.9v.8h-1c-2 0-2.9-.5-2.9-2.1s.1-1.9.1-3z"/><path fill="#672373" d="M31.1 35.2v-1.8h1.7v1.8l-.4 3.5h-.9zm3.7 0v-1.8h1.8v1.8l-.4 3.5h-.9zm11.8 9.1h-1.1V43h-.1a3.8 3.8 0 0 1-2.8 1.5c-1.9 0-2.7-1.1-2.7-3.1v-4.8h1.3v4.6c0 1.5.5 2.2 1.8 2.2s1.5-.4 2.4-1.4v-5.4h1.3zm3.2-1.9a5 5 0 0 0 3.2 1.1c1.4 0 2.1-.5 2.1-1.2s-.6-1-2.5-1.5-2.9-1.1-2.9-2.2 1.1-2.2 3.2-2.2a6.3 6.3 0 0 1 3.1 1l-.6.8a5.3 5.3 0 0 0-2.5-.8c-1.5 0-1.9.5-1.9 1.1s.9 1.1 2.3 1.4 3.1 1.1 3.1 2.3-1.2 2.3-3.4 2.3a6.4 6.4 0 0 1-3.8-1.2zm12.8-6a3.3 3.3 0 0 1 3.5 3.6v.7H60a2.8 2.8 0 0 0 3 2.8 3.8 3.8 0 0 0 2.3-.8l.5.9a5.3 5.3 0 0 1-3 .9 3.9 3.9 0 0 1-4.1-4 4 4 0 0 1 3.9-4.1zm2.3 3.5a2.2 2.2 0 0 0-2.3-2.5 2.7 2.7 0 0 0-2.6 2.5zm5.8-6.8h4.4v.7h-3.4V46h3.4v.7h-4.4zm9.9 7.2l-2.7-3.7h1.4l1.2 1.7.9 1.3h.1l.9-1.3 1.1-1.7h1.4l-2.7 3.8 2.9 3.9h-1.4l-1.4-1.8-1-1.4-1 1.4-1.3 1.8h-1.4zm6.8-7.3h4v8.8c0 1.2.5 1.6 1.5 1.6l1.4-.3.4.9a5 5 0 0 1-2.1.5c-1.7 0-2.5-.9-2.5-2.8v-7.6h-2.7zm9.7 3.6h4.9v7.7h-1.3v-6.6h-3.6zm3-2.6a1 1 0 0 1 1.1-1 1 1 0 0 1 0 2 1 1 0 0 1-1.1-1zm6.5 2.6h1.1v1.3h.1a4.1 4.1 0 0 1 2.9-1.5c1.8 0 2.7 1.1 2.7 3.1v4.8h-1.3v-4.6c0-1.5-.5-2.2-1.8-2.2s-1.5.5-2.5 1.4v5.4h-1.3zm9.8-3.6h1.3v7.7l4.2-4h1.5l-3.1 3.1 3.5 4.6h-1.5l-2.8-3.8-1.8 1.8v2h-1.3zm12.6 3.1a1.3 1.3 0 0 1 1.2 1.4 1.2 1.2 0 0 1-1.2 1.3 1.2 1.2 0 0 1-1.3-1.3 1.3 1.3 0 0 1 1.3-1.4zm0 5.7a1.3 1.3 0 0 1 1.2 1.4 1.2 1.2 0 0 1-1.2 1.3 1.2 1.2 0 0 1-1.3-1.3 1.3 1.3 0 0 1 1.3-1.4zm6.2-8.8h1.3v4.9a4.4 4.4 0 0 1 3-1.5c1.8 0 2.6 1.1 2.6 3.1v4.8h-1.3v-4.6c0-1.5-.5-2.2-1.8-2.2s-1.5.5-2.4 1.4v5.4h-1.3zm10.4 3.6h1v1.8h.1a4.1 4.1 0 0 1 3.4-2 3.3 3.3 0 0 1 1.5.3l-.2 1.2a4 4 0 0 0-1.5-.3c-1.1 0-2.2.6-3.1 2.2v4.5h-1.3zm12.2-.2a3.3 3.3 0 0 1 3.5 3.6c0 .3 0 .6-.1.7h-6a2.8 2.8 0 0 0 2.9 2.8 3.8 3.8 0 0 0 2.4-.8l.5.9a5.6 5.6 0 0 1-3 .9 3.9 3.9 0 0 1-4.2-4 4 4 0 0 1 4-4.1zm2.3 3.5a2.2 2.2 0 0 0-2.3-2.5 2.6 2.6 0 0 0-2.6 2.5zm11-5.6a3.7 3.7 0 0 0-1.8-.4 1.8 1.8 0 0 0-1.9 2v.7h3.2v1.1h-3.2v6.6h-1.3v-6.6h-2.2v-1h2.2V36a2.9 2.9 0 0 1 3.1-3.2 5.4 5.4 0 0 1 2.2.5zm5.6 11.7V33.8h-3.3v-.7h4.3v13.6h-4.3V46zm6.7-10.8v-1.8h1.7v1.8l-.4 3.5h-.9zm3.6 0v-1.8h1.8v1.8l-.4 3.5h-.9z"/><path fill="#555" d="M196.5 36.1a1.3 1.3 0 0 1 1.2 1.4 1.2 1.2 0 0 1-1.2 1.3 1.2 1.2 0 0 1-1.3-1.3 1.3 1.3 0 0 1 1.3-1.4zm0 5.7a1.3 1.3 0 0 1 1.2 1.4 1.2 1.2 0 0 1-1.2 1.3 1.2 1.2 0 0 1-1.3-1.3 1.3 1.3 0 0 1 1.3-1.4z"/><path fill="#672373" d="M213.9 35.2v-1.8h1.7v1.8l-.4 3.5h-.9zm3.6 0v-1.8h1.7v1.8l-.4 3.5h-.9zm5.4 6.9a1.2 1.2 0 1 1-1.1 1.2 1.1 1.1 0 0 1 1.1-1.2zm3.2 0a1.2 1.2 0 0 1 0 2.4 1.2 1.2 0 0 1 0-2.4zm3.1 0a1.2 1.2 0 1 1-1.1 1.2 1.1 1.1 0 0 1 1.1-1.2zm3.7-6.9v-1.8h1.7v1.8l-.4 3.5h-.9zm3.6 0v-1.8h1.8v1.8l-.3 3.5h-1z"/><path fill="#555" d="M13.7 67.1c1.6 0 2-.4 2-1.4s-.1-1.8-.1-2.9a1.4 1.4 0 0 1 1.4-1.7 1.4 1.4 0 0 1-1.4-1.7c0-1 .1-2 .1-2.9s-.4-1.4-2-1.4h-.8v-.8h1c1.9 0 2.9.5 2.9 2.1s-.2 2.1-.2 3.1.5 1.2 2.3 1.2v.9c-1.8 0-2.3.6-2.3 1.2s.2 1.9.2 3.1-1 2.1-2.9 2.1h-1v-.8z"/><circle cx="15.4" cy="40" r="2" opacity=".1"/><circle cx="24" cy="40" r="2" opacity=".1"/><circle cx="205.8" cy="40" r="2" opacity=".1"/><circle cx="52.5" cy="61.2" r="7.2"/><path fill="#fff" d="M54.9 62.7v1.2h-4.6v-1.2H52V59h-1.4v-.9l1.7-.6h1.1v5.2z"/><circle cx="227" cy="61.2" r="7.2"/><path fill="#fff" d="M225.1 62.2a2.3 2.3 0 0 0 1.6.6c.7 0 1.2-.2 1.2-.7s-.4-1-2-1v-1c1.3 0 1.8-.4 1.8-.9s-.4-.7-1-.7a1.8 1.8 0 0 0-1.3.6l-.8-.9a3.6 3.6 0 0 1 2.2-.9c1.4 0 2.4.7 2.4 1.8a1.5 1.5 0 0 1-1.3 1.4c.9.2 1.5.7 1.5 1.6s-1.2 1.8-2.6 1.8a3 3 0 0 1-2.4-.9z"/><circle cx="124" cy="61.2" r="7.2"/><path fill="#fff" d="M121.6 63.1c1.8-1.6 3.1-2.7 3.1-3.6a1 1 0 0 0-1.1-1 1.9 1.9 0 0 0-1.3.7l-.8-.8a3 3 0 0 1 2.3-1.1 2.1 2.1 0 0 1 2.3 2.1c0 1.1-1.1 2.2-2.4 3.3h2.7v1.2h-4.8z"/></svg>